<?xml version="1.0" standalone="no"?>
<!DOCTYPE svg PUBLIC "-//W3C//DTD SVG 20010904//EN"
 "http://www.w3.org/TR/2001/REC-SVG-20010904/DTD/svg10.dtd">
<svg version="1.0" xmlns="http://www.w3.org/2000/svg"
 width="1312.000000pt" height="1312.000000pt" viewBox="0 0 1312.000000 1312.000000"
 preserveAspectRatio="xMidYMid meet">
<metadata>
Created by potrace 1.11, written by Peter Selinger 2001-2013
</metadata>
<g transform="translate(0.000000,1312.000000) scale(0.100000,-0.100000)"
fill="#000000" stroke="none">
<path d="M6269 13096 c-2 -2 -62 -6 -134 -10 -71 -3 -141 -8 -155 -10 -14 -2
-59 -7 -100 -10 -41 -4 -86 -8 -100 -10 -14 -2 -52 -7 -85 -11 -104 -12 -128
-15 -190 -25 -33 -5 -78 -12 -100 -15 -22 -4 -47 -8 -55 -10 -8 -3 -33 -7 -55
-11 -246 -37 -756 -176 -1045 -284 -47 -17 -96 -35 -110 -39 -31 -10 -162 -64
-235 -97 -328 -146 -428 -196 -720 -364 -267 -152 -682 -450 -915 -656 -14
-12 -52 -46 -85 -75 -88 -78 -440 -432 -515 -518 -36 -41 -69 -79 -75 -85 -24
-26 -175 -216 -216 -271 -24 -33 -46 -62 -49 -65 -41 -37 -383 -563 -423 -650
-4 -8 -17 -31 -29 -50 -30 -50 -186 -359 -235 -467 -148 -323 -313 -798 -391
-1123 -32 -130 -54 -227 -58 -247 -2 -13 -6 -35 -9 -50 -3 -16 -10 -55 -16
-87 -5 -33 -12 -62 -13 -65 -2 -3 -7 -28 -10 -56 -4 -27 -9 -57 -11 -65 -2 -8
-6 -37 -10 -65 -3 -27 -10 -77 -15 -110 -5 -33 -11 -87 -15 -120 -3 -33 -8
-73 -10 -90 -4 -34 -11 -114 -22 -260 -16 -216 -8 -834 13 -1035 8 -79 35
-314 39 -340 16 -104 59 -346 70 -398 8 -34 17 -77 20 -95 30 -170 155 -590
257 -862 95 -255 282 -660 413 -895 88 -158 275 -451 378 -595 48 -66 171
-231 181 -242 6 -6 22 -26 36 -44 183 -240 543 -619 799 -839 35 -30 83 -71
105 -91 23 -20 88 -73 146 -118 58 -45 112 -88 120 -95 144 -114 550 -381 733
-480 23 -12 58 -32 77 -43 84 -48 502 -253 516 -253 3 0 24 -9 48 -19 158 -73
500 -194 731 -261 180 -52 430 -114 505 -125 24 -4 47 -8 50 -10 3 -2 46 -11
95 -19 50 -9 101 -18 115 -21 14 -2 61 -9 106 -15 44 -6 89 -12 100 -14 10 -2
69 -9 129 -15 61 -7 128 -14 150 -16 293 -32 943 -26 1250 10 22 2 63 7 90 10
28 3 64 8 80 10 17 2 53 7 80 10 44 6 349 58 400 69 399 87 836 219 1110 336
11 5 65 28 120 50 212 88 541 256 780 397 139 83 511 331 570 381 11 10 49 39
85 67 57 43 166 131 180 145 3 3 32 27 65 55 353 293 761 737 1062 1155 121
169 353 528 353 546 0 3 11 22 24 43 76 119 268 514 359 737 145 354 279 787
343 1109 32 160 46 235 58 310 13 82 19 120 32 225 2 19 6 49 8 65 3 17 7 62
11 100 3 39 8 84 10 100 27 210 27 907 0 1124 -2 14 -6 60 -9 102 -4 42 -8 86
-11 97 -2 11 -6 49 -10 84 -5 53 -51 336 -70 433 -18 88 -77 342 -101 430 -3
11 -6 25 -8 30 -10 42 -123 403 -135 430 -5 11 -28 72 -51 135 -23 63 -53 139
-66 168 -13 29 -24 55 -24 58 0 28 -218 475 -317 652 -420 744 -937 1356
-1608 1903 -195 159 -507 377 -715 501 -119 71 -381 218 -389 218 -3 0 -43 20
-90 44 -219 113 -572 258 -851 350 -117 38 -355 108 -415 122 -5 1 -68 16
-140 33 -121 28 -243 54 -324 67 -18 3 -43 8 -55 10 -42 9 -282 43 -341 49
-33 3 -76 8 -95 10 -44 5 -160 16 -225 21 -65 5 -742 14 -746 10z"/>
</g>
</svg>
