<svg xmlns="http://www.w3.org/2000/svg" xmlns:xlink="http://www.w3.org/1999/xlink" xml:space="preserve" version="1.1" style="shape-rendering:geometricPrecision;text-rendering:geometricPrecision;image-rendering:optimizeQuality;" viewBox="0 0 60000 75000" x="0px" y="0px" fill-rule="evenodd" clip-rule="evenodd"><defs><style type="text/css">
   
    .fil0 {fill:black;fill-rule:nonzero}
   
  </style></defs><g><path class="fil0" d="M41106 20771c-2819,-2819 -6513,-4228 -10207,-4228 -3694,0 -7389,1409 -10207,4228 -2819,2819 -4228,6513 -4228,10207 0,3694 1409,7389 4228,10207 2819,2819 6513,4228 10207,4228 3694,0 7389,-1409 10207,-4228 2819,-2819 4228,-6513 4228,-10207 0,-3694 -1409,-7389 -4228,-10207zm-9609 25975l-1296 -4 0 498 402 1 -3 1710 498 0 3 -1708 397 1 0 -498zm15192 -16416l-4 1296 498 0 1 -391 1709 -1 0 -498 -1708 1 1 -407 -498 0zm-14392 20168c41,-72 133,-96 204,-54 72,41 96,133 54,204l-410 710c-41,72 -133,96 -204,54 -72,-41 -96,-133 -54,-204l410 -710zm1224 1098c72,-41 163,-16 204,55 41,72 16,163 -55,204l-710 410c-72,41 -163,16 -204,-55 -41,-72 -16,-163 55,-204l710 -410zm511 1563c83,0 150,67 150,150 0,83 -67,150 -150,150l-820 0c-83,0 -150,-67 -150,-150 0,-83 67,-150 150,-150l820 0zm-339 1610c72,41 96,133 54,204 -41,72 -133,96 -204,54l-710 -410c-72,-41 -96,-133 -54,-204 41,-72 133,-96 204,-54l710 410zm-1098 1225c41,72 16,163 -55,204 -72,41 -163,16 -204,-55l-410 -710c-41,-72 -16,-163 55,-204 72,-41 163,-16 204,55l410 710zm-1563 511c0,83 -67,150 -150,150 -83,0 -150,-67 -150,-150l0 -820c0,-83 67,-150 150,-150 83,0 150,67 150,150l0 820zm-1610 -339c-41,72 -133,96 -204,54 -72,-41 -96,-133 -54,-204l410 -710c41,-72 133,-96 204,-54 72,41 96,133 54,204l-410 710zm-1225 -1098c-72,41 -163,16 -204,-55 -41,-72 -16,-163 55,-204l710 -410c72,-41 163,-16 204,55 41,72 16,163 -55,204l-710 410zm-511 -1563c-83,0 -150,-67 -150,-150 0,-83 67,-150 150,-150l820 0c83,0 150,67 150,150 0,83 -67,150 -150,150l-820 0zm339 -1610c-72,-41 -96,-133 -54,-204 41,-72 133,-96 204,-54l710 410c72,41 96,133 54,204 -41,72 -133,96 -204,54l-710 -410zm1098 -1225c-41,-72 -16,-163 55,-204 72,-41 163,-16 204,55l410 710c41,72 16,163 -55,204 -72,41 -163,16 -204,-55l-410 -710zm1563 -511c0,-83 67,-150 150,-150 83,0 150,67 150,150l0 820c0,83 -67,150 -150,150 -83,0 -150,-67 -150,-150l0 -820zm173 -808c1099,0 2094,446 2815,1166 720,720 1166,1716 1166,2815 0,1099 -446,2094 -1166,2815 -720,720 -1716,1166 -2815,1166 -1099,0 -2094,-446 -2815,-1166 -720,-720 -1166,-1716 -1166,-2815 0,-1099 446,-2094 1166,-2815 720,-720 1716,-1166 2815,-1166zm2461 1519c-630,-630 -1500,-1019 -2461,-1019 -961,0 -1831,390 -2461,1019 -630,630 -1019,1500 -1019,2461 0,961 390,1831 1019,2461 630,630 1500,1019 2461,1019 961,0 1831,-390 2461,-1019 630,-630 1019,-1500 1019,-2461 0,-961 -390,-1831 -1019,-2461zm-2415 2415c-12,-12 -28,-19 -46,-19 -18,0 -34,7 -46,19 -12,12 -19,28 -19,46 0,18 7,34 19,46 12,12 28,19 46,19 18,0 34,-7 46,-19 12,-12 19,-28 19,-46 0,-18 -7,-34 -19,-46zm508 -68c8,37 12,75 12,114 0,156 -63,297 -166,400 -102,102 -244,166 -400,166 -156,0 -297,-63 -400,-166 -102,-102 -166,-244 -166,-400 0,-156 63,-297 166,-400 89,-89 207,-148 339,-162l1808 -1547c95,-85 242,-85 337,4 100,94 105,252 11,353l-1541 1638zm21862 -22818c-169,311 -144,643 -120,963 35,465 68,911 -274,1325 181,-15 351,-136 483,-324 162,-232 262,-560 262,-927 0,-368 -100,-695 -262,-927 -28,-40 -57,-77 -88,-110zm-941 1980c266,-276 240,-615 214,-971 -29,-385 -59,-784 135,-1196 -134,47 -258,152 -359,297 -162,232 -262,560 -262,927 0,368 100,695 262,927 3,5 7,10 11,15zm509 -2804c405,0 764,224 1017,587 231,331 374,783 374,1275 0,492 -143,944 -374,1275 -253,363 -612,587 -1017,587 -405,0 -764,-224 -1017,-587 -231,-331 -374,-783 -374,-1275 0,-492 143,-944 374,-1275 253,-363 612,-587 1017,-587zm-167 -2041c955,0 1814,-108 2431,-282 465,-131 766,-269 812,-386l5 -40c-15,-122 -325,-268 -818,-407 -617,-174 -1476,-282 -2431,-282 -955,0 -1814,108 -2431,282 -493,139 -802,285 -818,407l5 40c46,117 347,255 812,386 617,174 1476,282 2431,282zm2595 304c-669,189 -1587,306 -2595,306 -1008,0 -1926,-117 -2595,-306 -202,-57 -384,-123 -542,-196l924 6800c5,37 8,66 12,98 13,118 30,282 52,302 114,106 380,205 746,281 388,81 873,129 1404,129 487,0 934,-40 1303,-109 361,-67 640,-158 797,-262 75,-49 86,-167 99,-298 5,-50 10,-102 16,-150l923 -6791c-159,74 -341,139 -542,196zm1263 -1002c0,46 -6,92 -17,136l-1025 7542c-6,46 -10,86 -14,126 -28,285 -52,539 -368,748 -223,148 -581,271 -1023,353 -409,76 -894,120 -1412,120 -569,0 -1097,-53 -1528,-143 -473,-99 -841,-249 -1037,-431 -188,-175 -219,-471 -242,-683 -4,-34 -7,-66 -9,-82l-1026 -7550c-11,-44 -17,-90 -17,-136 0,-430 483,-782 1263,-1002 669,-189 1587,-306 2595,-306 1008,0 1926,117 2595,306 781,220 1263,572 1263,1002zm-47778 6697l421 0c47,0 85,45 85,100l0 510c0,55 -38,100 -85,100l-421 0c-47,0 -85,-45 -85,-100l0 -510c0,-55 38,-100 85,-100zm336 200l-251 0 0 310 251 0 0 -310zm-1107 -197l421 0c47,0 85,45 85,100l0 510c0,55 -38,100 -85,100l-421 0c-47,0 -85,-45 -85,-100l0 -510c0,-55 38,-100 85,-100zm336 200l-251 0 0 310 251 0 0 -310zm-1107 -197l421 0c47,0 85,45 85,100l0 510c0,55 -38,100 -85,100l-421 0c-47,0 -85,-45 -85,-100l0 -510c0,-55 38,-100 85,-100zm336 200l-251 0 0 310 251 0 0 -310zm-1107 -197l421 0c47,0 85,45 85,100l0 510c0,55 -38,100 -85,100l-421 0c-47,0 -85,-45 -85,-100l0 -510c0,-55 38,-100 85,-100zm336 200l-251 0 0 310 251 0 0 -310zm-1107 -197l421 0c47,0 85,45 85,100l0 510c0,54 -36,97 -80,100l-17 2c-139,14 -278,28 -424,-4 -41,-9 -69,-51 -69,-98l0 0 0 -510c0,-55 38,-100 85,-100zm336 200l-251 0 0 323c82,9 166,3 251,-5l0 -318zm-1107 -197l421 0c47,0 85,45 85,100l0 510c0,55 -38,100 -85,100l-421 0c-47,0 -85,-45 -85,-100l0 -510c0,-55 38,-100 85,-100zm336 200l-251 0 0 310 251 0 0 -310zm1783 -2943l0 277 2491 0 0 -277 -2491 0zm-170 277l0 -277 -1907 0 0 277 1907 0zm-1992 -477l4737 0c47,0 85,45 85,100l0 477c0,55 -38,100 -85,100l-4737 0c-47,0 -85,-45 -85,-100l0 -477c0,-55 38,-100 85,-100zm6233 2784c123,0 234,59 314,154 80,95 130,226 130,371 0,145 -50,276 -130,371 -80,95 -191,154 -314,154 -123,0 -234,-59 -314,-154 -80,-95 -130,-226 -130,-371 0,-145 50,-276 130,-371 80,-95 191,-154 314,-154zm194 295c-50,-59 -118,-95 -194,-95 -76,0 -144,36 -194,95 -50,59 -80,140 -80,229 0,89 31,170 80,229 50,59 118,95 194,95 76,0 144,-36 194,-95 50,-59 80,-140 80,-229 0,-89 -31,-170 -80,-229zm-189 -3238c123,0 234,59 314,154 80,95 130,226 130,371 0,145 -50,276 -130,371 -80,95 -191,154 -314,154 -123,0 -234,-59 -314,-154 -80,-95 -130,-226 -130,-371 0,-145 50,-276 130,-371 80,-95 191,-154 314,-154zm194 295c-50,-59 -118,-95 -194,-95 -76,0 -144,36 -194,95 -50,59 -80,140 -80,229 0,89 31,170 80,229 50,59 118,95 194,95 76,0 144,-36 194,-95 50,-59 80,-140 80,-229 0,-89 -31,-170 -80,-229zm-202 -3119c123,0 234,59 314,154 80,95 130,226 130,371 0,145 -50,276 -130,371 -80,95 -191,154 -314,154 -123,0 -234,-59 -314,-154 -80,-95 -130,-226 -130,-371 0,-145 50,-276 130,-371 80,-95 191,-154 314,-154zm194 295c-50,-59 -118,-95 -194,-95 -76,0 -144,36 -194,95 -50,59 -80,140 -80,229 0,89 31,170 80,229 50,59 118,95 194,95 76,0 144,-36 194,-95 50,-59 80,-140 80,-229 0,-89 -31,-170 -80,-229zm-3213 -7c0,-42 28,-75 64,-75 35,0 64,34 64,75l0 335c0,42 -28,75 -64,75 -35,0 -64,-34 -64,-75l0 -335zm-576 -21c0,-42 28,-75 64,-75 35,0 64,34 64,75l0 383c0,42 -28,75 -64,75 -35,0 -64,-34 -64,-75l0 -383zm-576 -21c0,-42 29,-75 64,-75 35,0 64,34 64,75l0 431c0,42 -29,75 -64,75 -35,0 -64,-34 -64,-75l0 -431zm-576 -21c0,-42 29,-75 64,-75 35,0 64,34 64,75l0 479c0,42 -29,75 -64,75 -35,0 -64,-34 -64,-75l0 -479zm-576 -21c0,-42 28,-75 64,-75 35,0 64,34 64,75l0 527c0,42 -28,75 -64,75 -35,0 -64,-34 -64,-75l0 -527zm-576 -21c0,-42 28,-75 64,-75 35,0 64,34 64,75l0 575c0,42 -28,75 -64,75 -35,0 -64,-34 -64,-75l0 -575zm-576 -21c0,-42 29,-75 64,-75 35,0 64,34 64,75l0 623c0,42 -28,75 -64,75 -35,0 -64,-34 -64,-75l0 -623zm5620 8069c-59,0 -106,-56 -106,-125 0,-69 47,-125 106,-125l1785 0c59,0 106,56 106,125 0,69 -47,125 -106,125l-1785 0zm-6218 -17c-59,0 -106,-56 -106,-125 0,-69 47,-125 106,-125l1785 0c59,0 106,56 106,125 0,69 -47,125 -106,125l-1785 0zm4014 -958l3614 0c237,0 401,-31 499,-95 64,-42 94,-106 94,-195l0 -1312c0,-89 -30,-153 -94,-195 -98,-64 -263,-95 -499,-95l-7229 0c-237,0 -401,31 -499,95 -64,42 -94,106 -94,195l0 1312c0,89 30,153 94,195 98,64 263,95 499,95l3614 0zm3614 401l-7229 0c-295,0 -512,-47 -663,-145 -185,-120 -270,-301 -270,-546l0 -1312c0,-245 86,-426 270,-546 150,-98 368,-145 663,-145l7229 0c295,0 512,47 662,145 185,120 270,301 270,546l0 1312c0,245 -86,426 -270,546 -150,98 -368,145 -662,145zm-3633 -3303l3614 0c237,0 401,-31 499,-95 64,-42 94,-106 94,-195l0 -1312c0,-89 -30,-153 -94,-195 -98,-64 -263,-95 -499,-95l-7229 0c-237,0 -401,31 -499,95 -64,42 -94,106 -94,195l0 1312c0,89 30,153 94,195 98,64 263,95 499,95l3614 0zm3614 401l-7229 0c-295,0 -512,-47 -662,-145 -185,-120 -270,-301 -270,-546l0 -1312c0,-245 86,-426 270,-546 150,-98 368,-145 662,-145l7229 0c295,0 512,47 663,145 185,120 270,301 270,546l0 1312c0,245 -86,426 -270,546 -150,98 -368,145 -663,145zm-3614 -3322l3614 0c237,0 401,-31 499,-95 64,-42 94,-106 94,-195l0 -1312c0,-89 -30,-153 -94,-195 -98,-64 -263,-95 -499,-95l-7229 0c-237,0 -401,31 -499,95 -64,42 -94,106 -94,195l0 1312c0,89 30,153 94,195 98,64 263,95 499,95l3614 0zm3614 401l-7229 0c-295,0 -512,-47 -662,-145 -185,-120 -270,-301 -270,-546l0 -1312c0,-245 86,-426 270,-546 150,-98 368,-145 662,-145l7229 0c295,0 512,47 663,145 185,120 270,301 270,546l0 1312c0,245 -86,426 -270,546 -150,98 -368,145 -663,145zm18925 -26772c138,-4 252,105 256,242 4,138 -105,252 -242,256 -811,24 -1514,175 -2033,542 -506,358 -848,934 -956,1818 -17,137 -141,234 -278,218 -137,-17 -234,-141 -218,-278 127,-1039 544,-1727 1165,-2166 608,-429 1403,-606 2307,-632zm-13 4348c-154,-25 -283,-111 -367,-228 -84,-117 -123,-266 -98,-420 25,-154 111,-283 228,-367 113,-81 255,-120 402,-100 13,1 25,3 36,6 146,29 268,112 348,224 81,113 120,255 100,402 -1,13 -3,25 -6,36 -29,146 -112,268 -224,348 -117,84 -266,123 -420,98zm-42 -460c25,34 62,59 106,67 45,7 89,-4 123,-29 34,-25 59,-62 67,-106l0 0c7,-45 -4,-89 -29,-123 -25,-34 -62,-59 -106,-67l0 0c-45,-7 -89,4 -123,29 -34,25 -59,62 -67,106 -7,45 4,89 29,123zm459 736c81,-12 157,27 198,92l124 173 123 -88 -130 -181 1 0c-49,-69 -51,-164 3,-236l175 -234c49,-65 130,-92 205,-74l210 35 25 -150 -210 -35c-88,-10 -162,-78 -175,-170l-42 -289c-12,-81 27,-157 92,-198l173 -124 -88 -123 -181 130 0 -1c-69,49 -164,51 -236,-3l-234 -175c-65,-49 -92,-130 -74,-205l35 -210 -150 -25 -35 210c-10,88 -78,162 -170,175l-289 42c-81,12 -157,-27 -198,-92l-124 -173 -123 88 130 181 -1 0c49,69 51,164 -3,236l-175 234c-49,65 -130,92 -205,74l-210 -35 -25 150 210 35c88,10 162,78 175,170l42 289c12,81 -27,157 -93,198l-173 124 88 123 181 -130 0 1c69,-49 164,-51 236,3l234 175c65,49 92,130 74,205l-35 210 150 25 35 -210c10,-88 78,-162 170,-175l289 -42zm-64 413l-23 3 -45 272c-18,109 -120,183 -229,165l-544 -90c-109,-18 -183,-120 -165,-229l50 -302 -19 -14 -225 161c-90,64 -215,44 -279,-46l-321 -448c-64,-90 -44,-215 46,-279l248 -178 -3 -23 -272 -45c-109,-18 -183,-120 -165,-229l89 -544c18,-109 120,-183 229,-165l302 50 14 -19 -161 -225c-64,-90 -44,-215 46,-279l448 -321c90,-64 215,-44 279,46l178 248 23 -3 45 -272c18,-109 120,-183 229,-165l544 90c109,18 183,120 165,229l-50 302 19 14 225 -161c90,-64 215,-44 279,46l321 448c64,90 44,215 -46,279l-248 178 3 23 272 45c109,18 183,120 165,229l-90 544c-18,109 -120,183 -229,165l-302 -50 -14 19 161 225c64,90 44,215 -46,279l-448 321c-90,64 -215,44 -279,-46l-178 -248zm3088 2637c82,-12 160,28 200,95l211 295 284 -204 -218 -304 1 0c-49,-69 -51,-164 3,-236l238 -318c50,-66 133,-93 208,-74l358 59 57 -346 -360 -59c-88,-10 -162,-78 -175,-170l-57 -393c-12,-82 28,-160 95,-200l294 -211 -204 -284 -304 218 0 -1c-69,49 -164,51 -236,-3l-318 -238c-66,-50 -93,-133 -74,-208l59 -358 -346 -57 -59 360c-10,88 -78,162 -170,175l-393 57c-82,12 -160,-28 -200,-95l-211 -295 -284 204 218 304 -1 0c49,69 51,164 -3,236l-238 318c-50,66 -133,93 -208,74l-358 -59 -57 346 360 59c88,10 162,78 175,170l56 393c12,82 -28,160 -95,200l-295 211 204 284 304 -218 0 1c69,-49 164,-51 236,3l318 238c66,50 93,133 74,208l-59 358 346 57 59 -360c10,-88 78,-162 170,-175l393 -57zm-65 413l-127 18 -69 421c-18,109 -120,183 -229,165l-739 -122c-109,-18 -183,-120 -165,-229l75 -453 -103 -77 -348 250c-90,64 -215,44 -279,-46l-437 -609c-64,-90 -44,-215 46,-279l372 -267 -18 -127 -421 -69c-109,-18 -183,-120 -165,-229l122 -739c18,-109 120,-183 229,-165l453 75 77 -103 -250 -348c-64,-90 -44,-215 46,-279l609 -437c90,-64 215,-44 279,46l267 372 127 -18 69 -421c18,-109 120,-183 229,-165l739 122c109,18 183,120 165,229l-75 453 103 77 348 -250c90,-64 215,-44 279,46l437 609c64,90 44,215 -46,279l-372 267 18 127 421 69c109,18 183,120 165,229l-122 739c-18,109 -120,183 -229,165l-453 -75 -77 103 250 348c64,90 44,215 -46,279l-609 437c-90,64 -215,44 -279,-46l-267 -372zm-534 -726c-246,-40 -452,-177 -587,-364 -134,-187 -197,-426 -157,-671 40,-246 177,-452 364,-586 187,-134 426,-197 671,-157 246,40 452,177 587,364 134,187 197,426 157,671 -40,246 -177,452 -364,587 -187,134 -426,197 -671,157zm-262 -597c75,105 189,180 326,203 137,22 270,-13 374,-88 105,-75 180,-189 203,-326 22,-137 -13,-270 -88,-374 -75,-105 -189,-180 -326,-203 -137,-22 -270,13 -374,88 -105,75 -180,189 -203,326 -22,137 13,270 88,374zm-5167 -3219c0,-777 241,-1411 700,-1854 446,-430 1089,-669 1907,-669 638,0 1225,232 1692,622 473,395 821,952 971,1593 4,16 -1,0 2,9 20,76 65,126 123,153 75,34 175,38 283,13 17,-4 11,-2 17,-4 354,-93 662,-172 973,-197 326,-26 649,6 1016,140 680,248 1259,675 1665,1216 398,530 631,1168 631,1855 0,919 -416,1750 -1087,2351 -664,594 -1580,961 -2588,961 -1164,0 -2306,-24 -3437,-47 -1064,-22 -2117,-44 -3301,-44 -878,0 -1653,-316 -2226,-828 -592,-529 -967,-1268 -1018,-2084 -178,-2882 1494,-2902 2741,-2917 518,-6 935,-11 935,-269zm1046 -1494c-358,345 -546,856 -546,1494 0,750 -637,758 -1429,767 -1023,12 -2395,28 -2249,2390 42,681 356,1299 852,1742 484,432 1142,699 1894,699 1098,0 2199,23 3311,46 1084,22 2178,45 3427,45 883,0 1681,-318 2256,-833 568,-508 919,-1208 919,-1980 0,-576 -195,-1111 -529,-1556 -348,-464 -848,-831 -1437,-1046 -291,-106 -547,-131 -807,-110 -274,22 -559,95 -887,181l-29 8c-213,50 -425,36 -601,-44 -193,-88 -339,-248 -401,-483 -5,-19 -4,-15 -6,-21 -125,-534 -414,-997 -805,-1324 -379,-317 -855,-505 -1372,-505 -683,0 -1209,188 -1561,528zm5453 22222c1547,88 2883,231 3860,406 1220,219 1947,551 1960,962 5,135 -67,258 -208,369l29 30 -7590 7334c-53,68 -92,128 -119,186 -23,48 -36,98 -41,153l-7 3089c-2,861 -550,857 -1293,852 -47,0 90,1 -144,1 -233,0 -96,-1 -144,-1 -742,5 -1291,9 -1293,-852l-7 -3089c-5,-56 -18,-105 -41,-153 -27,-57 -67,-117 -119,-186l-7590 -7334 26 -27c-135,-113 -206,-234 -206,-361 0,-423 689,-748 1854,-959 949,-172 2260,-311 3778,-399l-619 -813c-32,-37 -51,-85 -51,-137 0,-115 93,-208 208,-208l583 0 0 -1868c0,-115 93,-208 208,-208l1582 0c115,0 208,93 208,208l0 1868 583 0 0 0c44,0 88,14 126,43 91,70 109,200 39,291l-538 706c231,0 469,3 707,6 182,2 364,4 706,4 185,0 429,1 867,4 108,1 216,2 322,3l-526 -691c-32,-37 -51,-85 -51,-137 0,-115 93,-208 208,-208l583 0 0 -1868c0,-115 93,-208 208,-208l1582 0c115,0 208,93 208,208l0 1868 583 0 0 0c44,0 88,14 126,43 91,70 109,200 39,291l-596 782zm-6807 660c-1687,84 -3135,229 -4148,413 -685,124 -1136,222 -1266,278l133 128c326,106 1101,235 2183,371 1623,203 3868,329 6353,329l0 1c2549,-107 4801,-241 6416,-423 1082,-122 1841,-225 2145,-302l102 -98c-146,-61 -632,-166 -1368,-298 -1042,-187 -2514,-337 -4230,-420l-496 651c-11,16 -25,30 -42,42 -91,70 -221,52 -291,-39l-535 -702c-270,-7 -553,-10 -837,-12 -140,-1 -483,-1 -865,-1 -121,0 -417,-3 -712,-7 -416,-5 -831,-10 -1212,0l-531 697c-11,16 -25,30 -42,42 -91,70 -221,52 -291,-39l-467 -613zm11014 1570c-369,72 -795,134 -1270,188 -1625,183 -3899,318 -6476,426l-13 1c-2511,0 -4786,-128 -6434,-334 -464,-58 -882,-127 -1248,-206l6566 6345 17 21c93,118 164,224 216,333 58,123 92,245 103,380l7 3146c0,193 266,192 627,189 142,-1 12,-2 146,-2 135,0 4,1 146,2 360,2 626,4 627,-189l7 -3146c12,-135 45,-256 103,-380 51,-109 122,-215 216,-333l17 -21 6643 -6420zm-4715 -7571l415 -3 7 829 -415 3 -1296 12 -415 3 -7 -829 415 -3 1296 -12zm161 1345c114,-1 208,91 209,206 1,114 -91,208 -206,209l-1554 14c-114,1 -208,-91 -209,-206 -1,-114 91,-208 206,-209l1554 -14zm-1386 1220l0 1868c0,115 -93,208 -208,208l-371 0 1162 1525 1162 -1525 -371 0c-115,0 -208,-93 -208,-208l0 -1868 -1166 0zm-3798 -2561l415 -3 7 829 -415 3 -1296 12 -415 3 -7 -829 415 -3 1296 -12zm161 1320c114,-1 208,91 209,206 1,114 -91,208 -206,209l-1554 14c-114,1 -208,-91 -209,-206 -1,-114 91,-208 206,-209l1554 -14zm-1386 1220l0 1868c0,115 -93,208 -208,208l-371 0 1162 1525 1162 -1525 -371 0c-115,0 -208,-93 -208,-208l0 -1868 -1166 0zm11980 -1959c-2423,-2423 -5599,-3635 -8775,-3635 -3176,0 -6352,1212 -8775,3635 -2423,2423 -3635,5599 -3635,8775 0,3176 1212,6352 3635,8775 2423,2423 5599,3635 8775,3635 3176,0 6352,-1212 8775,-3635 2423,-2423 3635,-5599 3635,-8775 0,-3176 -1212,-6352 -3635,-8775zm353 -354c2521,2521 3781,5825 3781,9129 0,3304 -1260,6608 -3781,9129 -2521,2521 -5825,3781 -9129,3781 -3304,0 -6608,-1260 -9129,-3781 -2521,-2521 -3781,-5825 -3781,-9129 0,-3304 1260,-6608 3781,-9129 2521,-2521 5825,-3781 9129,-3781 3304,0 6608,1260 9129,3781zm-28388 30632l-1864 -1887 569 -559 1864 1887 -569 559zm912 -904l-1867 -1884 566 -563 1867 1884 -566 563zm911 -905l-1871 -1880 566 -563 1871 1880 -566 563zm911 -905l-1874 -1877 566 -563 1874 1877 -566 563zm912 -904l-1878 -1873 562 -566 1878 1873 -563 566zm911 -905l-1881 -1870 563 -566 1881 1870 -563 566zm911 -905l-1885 -1866 563 -566 1885 1866 -563 566zm1123 -653l-2386 -2386 -6600 6600 2386 2386 6600 -6600zm-2104 -3235l403 403 2743 -2743c-2405,-2834 -3608,-6340 -3608,-9846 0,-3899 1487,-7798 4462,-10773 2975,-2975 6874,-4462 10773,-4462 3899,0 7798,1487 10773,4462 2975,2975 4462,6874 4462,10773 0,3899 -1487,7798 -4462,10773 -2975,2975 -6874,4462 -10773,4462 -3337,0 -6674,-1090 -9432,-3269l-2781 2781 391 391c156,156 156,409 0,566l-7165 7166c-156,156 -409,156 -566,0l-2952 -2952c-156,-156 -156,-409 0,-566l7165 -7166c156,-156 409,-156 566,0zm968 968l1027 1027 2729 -2729c-247,-217 -489,-443 -724,-679 -109,-109 -215,-219 -320,-330l-2712 2712zm14450 -29069l-1296 4 0 -498 402 -1 -3 -1710 498 0 3 1708 397 -1 0 498zm-16433 15259l4 1296 -498 0 -1 -391 -1709 -1 0 -498 1708 1 -1 -407 498 0z"/></g><text x="0" y="60015" fill="#000000" font-size="5px" font-weight="bold" font-family="'Helvetica Neue', Helvetica, Arial-Unicode, Arial, Sans-serif">Created by Olena Panasovska</text><text x="0" y="60020" fill="#000000" font-size="5px" font-weight="bold" font-family="'Helvetica Neue', Helvetica, Arial-Unicode, Arial, Sans-serif">from the Noun Project</text></svg>