<?xml version="1.0" encoding="UTF-8" standalone="no"?>
<svg
   xmlns:dc="http://purl.org/dc/elements/1.1/"
   xmlns:cc="http://creativecommons.org/ns#"
   xmlns:rdf="http://www.w3.org/1999/02/22-rdf-syntax-ns#"
   xmlns:svg="http://www.w3.org/2000/svg"
   xmlns="http://www.w3.org/2000/svg"
   xmlns:sodipodi="http://sodipodi.sourceforge.net/DTD/sodipodi-0.dtd"
   xmlns:inkscape="http://www.inkscape.org/namespaces/inkscape"
   version="1.1"
   x="0px"
   y="0px"
   viewBox="0 0 640 640"
   xml:space="preserve"
   id="svg2"
   inkscape:version="0.91 r13725"
   sodipodi:docname="noun_Security_1980517_blue.svg"
   width="640"
   height="640"><metadata
     id="metadata36"><rdf:RDF><cc:Work
         rdf:about=""><dc:format>image/svg+xml</dc:format><dc:type
           rdf:resource="http://purl.org/dc/dcmitype/StillImage" /><dc:title></dc:title></cc:Work></rdf:RDF></metadata><defs
     id="defs34" /><sodipodi:namedview
     pagecolor="#ffffff"
     bordercolor="#666666"
     borderopacity="1"
     objecttolerance="10"
     gridtolerance="10"
     guidetolerance="10"
     inkscape:pageopacity="0"
     inkscape:pageshadow="2"
     inkscape:window-width="1456"
     inkscape:window-height="729"
     id="namedview32"
     showgrid="false"
     inkscape:zoom="0.36875"
     inkscape:cx="-131.79661"
     inkscape:cy="320"
     inkscape:window-x="0"
     inkscape:window-y="0"
     inkscape:window-maximized="0"
     inkscape:current-layer="svg2" /><path
     inkscape:connector-curvature="0"
     id="path6"
     d="m 361.7,212.5 c 1.2,-4.2 1.9,-8.6 1.9,-13.1 0,-26.2 -21.3,-47.6 -47.6,-47.6 -1.4,0 -2.8,0.1 -4.2,0.2 4.3,14.1 18,48.4 49.9,60.5 z" /><path
     inkscape:connector-curvature="0"
     id="path8"
     d="m 300,154.6 c -18.2,6.5 -31.2,23.8 -31.5,44.1 13.6,-3.4 23,-11 27.9,-22.8 4.3,-10.1 3.6,-19.8 3.6,-19.9 l 0.4,0 c -0.2,-0.5 -0.3,-0.9 -0.4,-1.4 z" /><path
     inkscape:connector-curvature="0"
     id="path10"
     d="m 381.9,208.1 c 10.5,0 19,-8.5 19,-19 0,-10.5 -8.5,-19 -19,-19 -4.4,0 -8.6,1.5 -11.9,4.2 3.6,7.6 5.6,16.1 5.6,25.1 0,2.5 -0.2,5 -0.5,7.4 2.1,0.9 4.5,1.3 6.8,1.3 z" /><path
     inkscape:connector-curvature="0"
     id="path12"
     d="m 308.9,176.9 c -0.4,1.2 -0.9,2.5 -1.4,3.8 -4.7,11.2 -15.1,25.1 -37.6,30.1 5.1,20.8 23.9,36.3 46.2,36.3 17.4,0 32.7,-9.4 41,-23.4 -18.6,-7.2 -34.3,-21.7 -45.7,-42.2 -1,-1.7 -1.8,-3.2 -2.5,-4.6 z" /><circle
     id="circle14"
     r="36.900002"
     cy="163"
     cx="478" /><path
     inkscape:connector-curvature="0"
     id="path16"
     d="m 261.3,280.7 c -21.9,1.5 -39.3,19.8 -39.3,42.1 l 0,88.6 120.8,0 c -0.5,-3.8 -0.8,-7.7 -0.8,-11.7 0,-20.7 7.5,-40.7 21,-56.3 12.2,-14 28.5,-23.7 46.4,-27.6 -3.2,-19.2 -19.1,-33.8 -38.7,-35.1 -13.3,16.4 -33.5,26.1 -54.7,26.1 -21.2,0 -41.4,-9.7 -54.7,-26.1 z" /><path
     inkscape:connector-curvature="0"
     id="path18"
     d="m 428,473.8 c 40.8,0 74,-33.2 74,-74 0,-40.8 -33.2,-74 -74,-74 -3.7,0 -7.5,0.3 -11.2,0.8 -17.3,2.6 -33.2,11.4 -44.8,24.7 -11.6,13.5 -18,30.7 -18,48.5 0,37.3 27.8,68.8 64.7,73.4 3.1,0.4 6.2,0.6 9.3,0.6 z m -46,-77.7 0,-24.9 c 0,-2.2 1.2,-4.2 3.1,-5.3 l 39.4,-21.6 c 1.8,-1 3.9,-1 5.7,0 l 40.6,21.6 c 2,1 3.2,3.1 3.2,5.3 l 0,24.4 c 0,25.1 -15,47.6 -38.2,57.4 l -6.2,2.7 c -0.8,0.3 -1.6,0.5 -2.4,0.5 -0.8,0 -1.6,-0.2 -2.4,-0.5 l -5.5,-2.4 C 396.7,443.3 382,420.8 382,396.1 Z"
     style="fill:#017FFD" /><path
     inkscape:connector-curvature="0"
     id="path20"
     d="m 433.7,229.3 c -16.6,1.4 -29.7,15.5 -29.7,32.4 l 0,20.7 c 9,8.1 15.3,19.1 17.3,31.7 2.2,-0.2 4.5,-0.3 6.7,-0.3 19.6,0 37.6,6.6 52.1,17.7 l 71.9,0 0,-69.7 c 0,-17 -13.1,-31 -29.7,-32.4 -10.9,13.1 -27.2,20.9 -44.3,20.9 -17.1,0 -33.4,-7.9 -44.3,-21 z" /><path
     inkscape:connector-curvature="0"
     id="path22"
     d="m 427.3,443.6 3.8,-1.6 c 0,0 0,0 0,0 18.7,-7.9 30.9,-26.1 30.9,-46.4 l 0,-20.8 -34.5,-18.4 -33.5,18.3 0,21.4 c 0,20 11.9,38.1 30.2,46.2 l 3.1,1.3 z M 417.1,412.5 406.5,400 c -2.2,-2.5 -1.9,-6.3 0.7,-8.5 2.5,-2.2 6.3,-1.9 8.5,0.7 l 6.9,8 20.3,-16.5 c 2.6,-2.1 6.3,-1.7 8.4,0.9 2.1,2.6 1.7,6.3 -0.9,8.4 l -24.8,20.2 c -1.1,0.9 -2.5,1.3 -3.8,1.3 -1.8,0.1 -3.5,-0.6 -4.7,-2 z"
     style="fill:#017FFD" /><path
     inkscape:connector-curvature="0"
     id="path24"
     d="M 109.7,229.3 C 93.1,230.8 80,244.8 80,261.8 l 0,69.7 130,0 0,-8.6 c 0,-16 7,-30.4 18,-40.3 l 0,-20.8 c 0,-17 -13.1,-31 -29.7,-32.4 -10.9,13.1 -27.2,20.9 -44.3,20.9 -17.1,0 -33.4,-7.9 -44.3,-21 z" /><circle
     id="circle26"
     r="36.900002"
     cy="163"
     cx="154" /><text
     x="251.56004"
     y="527.35944"
     font-size="5px"
     font-weight="bold"
     id="text28"
     style="font-weight:bold;font-size:21.92982483px;font-family:'Helvetica Neue', Helvetica, Arial-Unicode, Arial, Sans-serif;fill:#017FFD;">Created by Busy</text>
<text
     x="316.27872"
     y="457.71954"
     font-size="5px"
     font-weight="bold"
     id="text30"
     style="font-weight:bold;font-size:18.46346092px;font-family:'Helvetica Neue', Helvetica, Arial-Unicode, Arial, Sans-serif;fill:#017ffd"
     transform="scale(0.82623992,1.2103022)">from the Noun Project</text>
</svg>