<svg xmlns="http://www.w3.org/2000/svg" xmlns:xlink="http://www.w3.org/1999/xlink" version="1.1" x="0px" y="0px" viewBox="0 0 110 137.5" enable-background="new 0 0 110 110" xml:space="preserve"><g><path d="M32,84.682v-7.894C32,75.373,31.483,73,28.021,73H13.979C10.517,73,10,75.373,10,76.788v7.894   c0,1.415,0.517,3.789,3.979,3.789h3.616L17,90.294h8l-0.594-1.823h3.616C31.483,88.471,32,86.097,32,84.682z M30,84.682   c0,1.318-0.521,1.789-1.979,1.789H13.979C12.521,86.471,12,86,12,84.682v-7.894C12,75.473,12.521,75,13.979,75h14.042   C29.479,75,30,75.473,30,76.788V84.682z"/><path d="M27.319,76.051H14.681c-1.312,0-1.781,0.387-1.781,1.462v6.445c0,1.077,0.469,1.461,1.781,1.461h12.638   c1.312,0,1.781-0.384,1.781-1.461v-6.445C29.1,76.438,28.631,76.051,27.319,76.051z"/><path d="M100,84.682v-7.894C100,75.373,99.483,73,96.021,73H81.979C78.517,73,78,75.373,78,76.788v7.894   c0,1.415,0.517,3.789,3.979,3.789h3.616L85,90.294h8l-0.595-1.823h3.616C99.483,88.471,100,86.097,100,84.682z M98,84.682   c0,1.318-0.521,1.789-1.979,1.789H81.979C80.521,86.471,80,86,80,84.682v-7.894C80,75.473,80.521,75,81.979,75h14.043   C97.479,75,98,75.473,98,76.788V84.682z"/><path d="M95.319,76.051H82.682c-1.313,0-1.781,0.387-1.781,1.462v6.445c0,1.077,0.469,1.461,1.781,1.461h12.638   c1.312,0,1.78-0.384,1.78-1.461v-6.445C97.1,76.438,96.631,76.051,95.319,76.051z"/><path d="M66,84.682v-7.894C66,75.373,65.483,73,62.021,73H47.979C44.517,73,44,75.373,44,76.788v7.894   c0,1.415,0.517,3.789,3.979,3.789h3.616L51,90.294h8l-0.595-1.823h3.616C65.483,88.471,66,86.097,66,84.682z M64,84.682   c0,1.318-0.521,1.789-1.979,1.789H47.979C46.521,86.471,46,86,46,84.682v-7.894C46,75.473,46.521,75,47.979,75h14.043   C63.479,75,64,75.473,64,76.788V84.682z"/><path d="M61.319,76.051H48.682c-1.313,0-1.781,0.387-1.781,1.462v6.445c0,1.077,0.469,1.461,1.781,1.461h12.638   c1.312,0,1.78-0.384,1.78-1.461v-6.445C63.1,76.438,62.631,76.051,61.319,76.051z"/><polygon points="34,95.088 34,94.133 32,94.133 32,95.088 31,95.088 31,94.133 29,94.133 29,95.088 28,95.088 28,94.133 26,94.133    26,95.088 25,95.088 25,94.133 23,94.133 23,95.088 22,95.088 22,94.133 20,94.133 20,95.088 19,95.088 19,94.133 17,94.133    17,95.088 16,95.088 16,94.133 14,94.133 14,95.088 13,95.088 13,94.133 11,94.133 11,95.088 10,95.088 10,94.133 8,94.133    8,95.088 7,95.088 6,97 36,97 35,95.088  "/><polygon points="102,95.088 102,94.133 100,94.133 100,95.088 99,95.088 99,94.133 97,94.133 97,95.088 96,95.088 96,94.133    94,94.133 94,95.088 93,95.088 93,94.133 91,94.133 91,95.088 90,95.088 90,94.133 88,94.133 88,95.088 87,95.088 87,94.133    85,94.133 85,95.088 84,95.088 84,94.133 82,94.133 82,95.088 81,95.088 81,94.133 79,94.133 79,95.088 78,95.088 78,94.133    76,94.133 76,95.088 75,95.088 74,97 104,97 103,95.088  "/><polygon points="68,95.088 68,94.133 66,94.133 66,95.088 65,95.088 65,94.133 63,94.133 63,95.088 62,95.088 62,94.133 60,94.133    60,95.088 59,95.088 59,94.133 57,94.133 57,95.088 56,95.088 56,94.133 54,94.133 54,95.088 53,95.088 53,94.133 51,94.133    51,95.088 50,95.088 50,94.133 48,94.133 48,95.088 47,95.088 47,94.133 45,94.133 45,95.088 44,95.088 44,94.133 42,94.133    42,95.088 41,95.088 40,97 70,97 69,95.088  "/><path d="M12.729,91.25c-0.403,0-0.729,0.428-0.729,0.954c0,0.53,0.326,0.957,0.729,0.957h16.542c0.402,0,0.729-0.427,0.729-0.957   c0-0.526-0.327-0.954-0.729-0.954H12.729z"/><path d="M80.729,91.25c-0.402,0-0.729,0.428-0.729,0.954c0,0.53,0.326,0.957,0.729,0.957h16.543c0.401,0,0.729-0.427,0.729-0.957   c0-0.526-0.327-0.954-0.729-0.954H80.729z"/><path d="M46.729,91.25c-0.402,0-0.729,0.428-0.729,0.954c0,0.53,0.326,0.957,0.729,0.957h16.543c0.401,0,0.729-0.427,0.729-0.957   c0-0.526-0.327-0.954-0.729-0.954H46.729z"/><path d="M13.979,28.471h3.616L17,30.294h8l-0.594-1.823h3.616c3.461,0,3.979-2.374,3.979-3.789v-7.894   C32,15.374,31.483,13,28.021,13H13.979C10.517,13,10,15.374,10,16.788v7.894C10,26.097,10.517,28.471,13.979,28.471z M12,16.788   C12,15.473,12.521,15,13.979,15h14.042C29.479,15,30,15.473,30,16.788v7.894c0,1.318-0.521,1.789-1.979,1.789H13.979   C12.521,26.471,12,26,12,24.682V16.788z"/><path d="M14.681,25.419h12.638c1.312,0,1.781-0.384,1.781-1.461v-6.445c0-1.075-0.469-1.462-1.781-1.462H14.681   c-1.312,0-1.781,0.387-1.781,1.462v6.445C12.9,25.035,13.369,25.419,14.681,25.419z"/><path d="M81.979,28.471h3.616L85,30.294h8l-0.595-1.823h3.616c3.462,0,3.979-2.374,3.979-3.789v-7.894   C100,15.374,99.483,13,96.021,13H81.979C78.517,13,78,15.374,78,16.788v7.894C78,26.097,78.517,28.471,81.979,28.471z M80,16.788   C80,15.473,80.521,15,81.979,15h14.043C97.479,15,98,15.473,98,16.788v7.894c0,1.318-0.521,1.789-1.979,1.789H81.979   C80.521,26.471,80,26,80,24.682V16.788z"/><path d="M82.682,25.419h12.638c1.312,0,1.78-0.384,1.78-1.461v-6.445c0-1.075-0.469-1.462-1.78-1.462H82.682   c-1.313,0-1.781,0.387-1.781,1.462v6.445C80.9,25.035,81.369,25.419,82.682,25.419z"/><path d="M47.979,28.471h3.616L51,30.294h8l-0.595-1.823h3.616c3.462,0,3.979-2.374,3.979-3.789v-7.894   C66,15.374,65.483,13,62.021,13H47.979C44.517,13,44,15.374,44,16.788v7.894C44,26.097,44.517,28.471,47.979,28.471z M46,16.788   C46,15.473,46.521,15,47.979,15h14.043C63.479,15,64,15.473,64,16.788v7.894c0,1.318-0.521,1.789-1.979,1.789H47.979   C46.521,26.471,46,26,46,24.682V16.788z"/><path d="M48.682,25.419h12.638c1.312,0,1.78-0.384,1.78-1.461v-6.445c0-1.075-0.469-1.462-1.78-1.462H48.682   c-1.313,0-1.781,0.387-1.781,1.462v6.445C46.9,25.035,47.369,25.419,48.682,25.419z"/><polygon points="35,35.088 34,35.088 34,34.133 32,34.133 32,35.088 31,35.088 31,34.133 29,34.133 29,35.088 28,35.088 28,34.133    26,34.133 26,35.088 25,35.088 25,34.133 23,34.133 23,35.088 22,35.088 22,34.133 20,34.133 20,35.088 19,35.088 19,34.133    17,34.133 17,35.088 16,35.088 16,34.133 14,34.133 14,35.088 13,35.088 13,34.133 11,34.133 11,35.088 10,35.088 10,34.133    8,34.133 8,35.088 7,35.088 6,37 36,37  "/><polygon points="103,35.088 102,35.088 102,34.133 100,34.133 100,35.088 99,35.088 99,34.133 97,34.133 97,35.088 96,35.088    96,34.133 94,34.133 94,35.088 93,35.088 93,34.133 91,34.133 91,35.088 90,35.088 90,34.133 88,34.133 88,35.088 87,35.088    87,34.133 85,34.133 85,35.088 84,35.088 84,34.133 82,34.133 82,35.088 81,35.088 81,34.133 79,34.133 79,35.088 78,35.088    78,34.133 76,34.133 76,35.088 75,35.088 74,37 104,37  "/><polygon points="69,35.088 68,35.088 68,34.133 66,34.133 66,35.088 65,35.088 65,34.133 63,34.133 63,35.088 62,35.088 62,34.133    60,34.133 60,35.088 59,35.088 59,34.133 57,34.133 57,35.088 56,35.088 56,34.133 54,34.133 54,35.088 53,35.088 53,34.133    51,34.133 51,35.088 50,35.088 50,34.133 48,34.133 48,35.088 47,35.088 47,34.133 45,34.133 45,35.088 44,35.088 44,34.133    42,34.133 42,35.088 41,35.088 40,37 70,37  "/><path d="M12.729,31.25c-0.403,0-0.729,0.428-0.729,0.954c0,0.53,0.326,0.957,0.729,0.957h16.542c0.402,0,0.729-0.427,0.729-0.957   c0-0.526-0.327-0.954-0.729-0.954H12.729z"/><path d="M80.729,31.25c-0.402,0-0.729,0.428-0.729,0.954c0,0.53,0.326,0.957,0.729,0.957h16.543c0.401,0,0.729-0.427,0.729-0.957   c0-0.526-0.327-0.954-0.729-0.954H80.729z"/><path d="M46.729,31.25c-0.402,0-0.729,0.428-0.729,0.954c0,0.53,0.326,0.957,0.729,0.957h16.543c0.401,0,0.729-0.427,0.729-0.957   c0-0.526-0.327-0.954-0.729-0.954H46.729z"/><path d="M88,65.185c-1.161,0.414-2,1.514-2,2.815c0,1.654,1.346,3,3,3s3-1.346,3-3c0-1.302-0.839-2.401-2-2.815V61H56v-7v-5h34   v-4.335c1.161-0.403,2-1.475,2-2.743C92,40.311,90.654,39,89,39s-3,1.311-3,2.922c0,1.268,0.839,2.339,2,2.743V47H56v-2.335   c1.161-0.403,2-1.475,2-2.743C58,40.311,56.654,39,55,39s-3,1.311-3,2.922c0,1.268,0.838,2.339,2,2.743V47H22v-2.335   c1.162-0.403,2-1.475,2-2.743C24,40.311,22.654,39,21,39s-3,1.311-3,2.922c0,1.268,0.838,2.339,2,2.743V49h34v5v7H20v4.185   c-1.162,0.414-2,1.514-2,2.815c0,1.654,1.346,3,3,3s3-1.346,3-3c0-1.302-0.838-2.401-2-2.815V63h32v2.185   c-1.162,0.414-2,1.514-2,2.815c0,1.654,1.346,3,3,3s3-1.346,3-3c0-1.302-0.839-2.401-2-2.815V63h32V65.185z"/></g><text x="0" y="125" fill="#000000" font-size="5px" font-weight="bold" font-family="'Helvetica Neue', Helvetica, Arial-Unicode, Arial, Sans-serif">Created by Trevor Dsouza</text><text x="0" y="130" fill="#000000" font-size="5px" font-weight="bold" font-family="'Helvetica Neue', Helvetica, Arial-Unicode, Arial, Sans-serif">from the Noun Project</text></svg>