<svg xmlns="http://www.w3.org/2000/svg" xmlns:xlink="http://www.w3.org/1999/xlink" version="1.1" x="0px" y="0px" viewBox="0 0 64 80" style="enable-background:new 0 0 64 64;" xml:space="preserve"><g><path d="M60,23h-2.641C59.608,20.662,61,17.493,61,14c0-7.168-5.832-13-13-13S35,6.832,35,14c0,3.493,1.392,6.662,3.641,9H33V8   c0-0.277-0.113-0.527-0.294-0.708l-5.997-5.997C26.527,1.113,26.277,1,26,1H2C1.447,1,1,1.447,1,2v38c0,0.553,0.447,1,1,1h7v9   c0,1.654,1.346,3,3,3h20v4h-5c-2.757,0-5,2.243-5,5c0,0.553,0.447,1,1,1h26c0.553,0,1-0.447,1-1c0-2.757-2.243-5-5-5h-5v-4h20   c1.654,0,3-1.346,3-3V26C63,24.346,61.654,23,60,23z M48,3c6.065,0,11,4.935,11,11s-4.935,11-11,11s-11-4.935-11-11S41.935,3,48,3z    M46,35h4v10c0,1.103-0.897,2-2,2s-2-0.897-2-2V35z M46,33v-2h4v2H46z M50,29h-4v-2.17c0.654,0.102,1.318,0.17,2,0.17   s1.346-0.069,2-0.17V29z M41.104,25c0.899,0.566,1.867,1.03,2.896,1.364V27H33v-2H41.104z M27,4.414L29.586,7H27V4.414z M3,3h22v5   c0,0.553,0.447,1,1,1h5v30H3V3z M47.829,61H24.171c0.413-1.164,1.525-2,2.829-2h18C46.304,59,47.416,59.836,47.829,61z M38,57h-4   v-4h4V57z M61,50c0,0.552-0.448,1-1,1H12c-0.552,0-1-0.448-1-1v-9h2v7c0,0.553,0.447,1,1,1h28v-2H15v-6h17c0.553,0,1-0.447,1-1V29   h11v4h-2v2h2v10c0,2.206,1.794,4,4,4s4-1.794,4-4V35h2v-2h-2v-4h5v18h-3v2h4c0.553,0,1-0.447,1-1V28c0-0.553-0.447-1-1-1h-6v-0.636   c1.029-0.334,1.997-0.798,2.896-1.364H60c0.552,0,1,0.448,1,1V50z"/><path d="M17,13c-6.617,0-12,5.383-12,12s5.383,12,12,12s12-5.383,12-12S23.617,13,17,13z M17,31c-3.309,0-6-2.691-6-6s2.691-6,6-6   s6,2.691,6,6S20.309,31,17,31z M16,17.069c-1.458,0.183-2.792,0.759-3.898,1.619l-1.427-1.427c1.482-1.213,3.316-2.011,5.324-2.211   V17.069z M21.898,18.688c-1.106-0.86-2.44-1.436-3.898-1.619v-2.019c2.008,0.2,3.842,0.998,5.324,2.211L21.898,18.688z    M9.262,18.676l1.427,1.427C9.634,21.458,9,23.154,9,25s0.634,3.542,1.688,4.898l-1.427,1.427C7.85,29.599,7,27.397,7,25   S7.85,20.401,9.262,18.676z M10.676,32.738l1.427-1.427C13.458,32.366,15.154,33,17,33s3.542-0.634,4.898-1.688l1.427,1.427   C21.599,34.15,19.397,35,17,35S12.401,34.15,10.676,32.738z M24.738,31.324l-1.427-1.427C24.366,28.542,25,26.846,25,25   s-0.634-3.542-1.688-4.898l1.427-1.427C26.15,20.401,27,22.603,27,25S26.15,29.599,24.738,31.324z"/><path d="M48,7V5c-4.963,0-9,4.037-9,9h2C41,10.141,44.141,7,48,7z"/><path d="M48,23c4.963,0,9-4.037,9-9h-2c0,3.859-3.141,7-7,7V23z"/><rect x="5" y="5" width="8" height="2"/><rect x="5" y="9" width="8" height="2"/></g><text x="0" y="79" fill="#000000" font-size="5px" font-weight="bold" font-family="'Helvetica Neue', Helvetica, Arial-Unicode, Arial, Sans-serif">Created by Templet</text><text x="0" y="84" fill="#000000" font-size="5px" font-weight="bold" font-family="'Helvetica Neue', Helvetica, Arial-Unicode, Arial, Sans-serif">from the Noun Project</text></svg>