<svg xmlns="http://www.w3.org/2000/svg" xmlns:xlink="http://www.w3.org/1999/xlink" version="1.1" x="0px" y="0px" viewBox="206 206 100 125" enable-background="new 206 206 100 100" xml:space="preserve"><g><path d="M299.957,265.282c-2.816-1.49-9.527,1.651-19.951,9.344c-1.031-2.192-3.209-2.059-6.424-1.862   c-3.004,0.185-7.121,0.438-12.252-1.142c-10.229-3.147-20.478-0.687-22.592-0.112v-2.138c0-1.424-1.158-2.582-2.582-2.582h-2.58   c-1.424,0-2.583,1.158-2.583,2.582v4.312h-4.639v-5.285c0.933-0.146,1.65-0.954,1.651-1.929c0-1.077-0.877-1.954-1.955-1.954   c-1.078,0-1.955,0.877-1.955,1.954c0,0.974,0.715,1.78,1.648,1.929v5.591c0,0.021,0.002,0.042,0.006,0.063   c0.028,0.14,0.151,0.244,0.299,0.244h4.328c0.005,0,0.01-0.001,0.016-0.002h0.601v2.082h-8.982l-4.105-4.11   c0.263-0.334,0.422-0.754,0.422-1.21c0-1.078-0.877-1.955-1.955-1.955c-1.078,0-1.955,0.877-1.955,1.955   c0,1.077,0.876,1.954,1.955,1.954c0.401,0,0.774-0.121,1.084-0.329l4.211,4.217c0.057,0.058,0.135,0.09,0.216,0.09h9.109v2.865   h-4.665c-0.148-0.933-0.955-1.648-1.928-1.648c-1.078,0-1.955,0.877-1.955,1.955s0.877,1.955,1.955,1.955   c0.974,0,1.781-0.717,1.928-1.65h4.048c0.002,0,0.004,0,0.006,0h0.611v3.111h-13.713c-0.081,0-0.159,0.032-0.216,0.09l-3.393,3.396   c-0.313-0.215-0.692-0.34-1.1-0.34c-1.078,0-1.955,0.877-1.955,1.954c0,1.078,0.877,1.955,1.955,1.955s1.955-0.877,1.955-1.955   c0-0.45-0.154-0.864-0.411-1.195l3.292-3.293h13.586v1.976h-8.8c-0.168,0-0.305,0.137-0.305,0.306l0,0v6.604   c-0.932,0.148-1.646,0.955-1.646,1.928c0,1.078,0.877,1.955,1.955,1.955c1.078,0,1.955-0.877,1.955-1.955   c0-0.975-0.718-1.783-1.652-1.929v-6.298h7.878c0,0,0.001-0.001,0.002-0.001h0.615v2.683c0,1.424,1.158,2.582,2.583,2.582h2.58   c1.424,0,2.582-1.158,2.582-2.582v-1.82c2.089,0.274,13.13,1.77,17.741,3.344l0.218,0.074c2.439,0.834,5.154,1.763,8.348,1.763   c3.684-0.001,8.006-1.237,13.268-5.286c1.918-1.476,3.998-3.06,6.008-4.593c11.852-9.032,17.045-13.095,17.045-14.09   c0-0.046,0.002-0.108,0.006-0.182C301.401,267.96,301.479,266.089,299.957,265.282z M224.707,266.47   c0-0.741,0.603-1.344,1.344-1.344s1.344,0.603,1.344,1.344c0,0.741-0.604,1.345-1.344,1.345   C225.31,267.814,224.707,267.211,224.707,266.47z M216.374,272.399c-0.741,0-1.344-0.603-1.344-1.344s0.603-1.345,1.344-1.345   s1.344,0.604,1.344,1.345S217.115,272.399,216.374,272.399z M224.402,281.503c-0.741,0-1.344-0.603-1.344-1.344   s0.603-1.344,1.344-1.344c0.74,0,1.341,0.601,1.344,1.34c0,0.001,0,0.002,0,0.003s0,0.002,0,0.004   C225.744,280.902,225.142,281.503,224.402,281.503z M212.573,290.02c-0.741,0-1.344-0.604-1.344-1.345s0.603-1.344,1.344-1.344   s1.344,0.603,1.344,1.344S213.314,290.02,212.573,290.02z M223.542,295c0,0.741-0.603,1.344-1.344,1.344s-1.344-0.603-1.344-1.344   s0.603-1.345,1.344-1.345S223.542,294.259,223.542,295z M238.128,271.91c0,0.002-0.001,0.003-0.001,0.004v15.373   c0,0.001,0.001,0.002,0.001,0.003v2.165c0,1.087-0.884,1.972-1.972,1.972h-2.58c-1.087,0-1.972-0.885-1.972-1.972v-2.978   c0-0.003,0.001-0.007,0.001-0.01c0-0.004,0-0.007-0.001-0.01v-2.567c0-0.003,0.001-0.006,0.001-0.01c0-0.003,0-0.007-0.001-0.01   v-3.703c0-0.003,0.001-0.007,0.001-0.01c0-0.004,0-0.007-0.001-0.01v-3.457c0-0.003,0.001-0.006,0.001-0.01   c0-0.003,0-0.007-0.001-0.01v-2.673c0-0.003,0.001-0.007,0.001-0.01c0-0.004,0-0.007-0.001-0.01v-4.607   c0-1.087,0.885-1.972,1.972-1.972h2.58c1.087,0,1.972,0.885,1.972,1.972V271.91z M300.762,268.64   c-0.004,0.076-0.006,0.142-0.008,0.192c-0.297,1.038-9.447,8.013-16.805,13.619c-2.01,1.533-4.09,3.118-6.01,4.595   c-9.561,7.354-15.928,5.178-21.045,3.43l-0.218-0.075c-4.725-1.613-16.051-3.135-17.938-3.382v-14.875   c1.615-0.455,12.024-3.134,22.412,0.063c5.238,1.611,9.418,1.354,12.471,1.167c3.332-0.204,5.168-0.316,5.967,1.835   c0.002,0.001,0.002,0.002,0.002,0.003c0.1,0.264,0.186,0.573,0.254,0.921c0.182,0.932-0.004,1.709-0.568,2.375   c-2.494,2.94-11.391,2.676-14.74,2.577c-0.443-0.014-0.793-0.024-1.027-0.024h-4.186c-0.168,0-0.305,0.137-0.305,0.306   s0.137,0.306,0.305,0.306h4.186c0.225,0,0.57,0.01,1.01,0.022c3.428,0.103,12.539,0.373,15.223-2.792   c0.684-0.806,0.92-1.776,0.701-2.887c-0.057-0.295-0.123-0.56-0.203-0.801c12.813-9.475,17.641-10.341,19.432-9.392   C300.852,266.448,300.789,267.983,300.762,268.64z"/><path d="M247.428,265.606h33.568c0.607,0,1.104-0.495,1.104-1.104v-48.353c0-0.608-0.496-1.104-1.105-1.104h-33.566   c-0.609,0-1.104,0.496-1.104,1.104v48.353C246.324,265.111,246.82,265.606,247.428,265.606z M246.935,216.149   c0-0.272,0.222-0.493,0.494-0.493h33.566c0.273,0,0.494,0.221,0.494,0.493v48.353c0,0.272-0.221,0.494-0.492,0.494h-33.568   c-0.272,0-0.494-0.222-0.494-0.494V216.149z"/><path d="M270.045,261.412h1.598c0.609,0,1.104-0.495,1.104-1.104v-1.598c0-0.609-0.494-1.105-1.104-1.105h-1.598   c-0.609,0-1.105,0.496-1.105,1.105v1.598C268.94,260.917,269.436,261.412,270.045,261.412z M269.551,258.71   c0-0.272,0.221-0.494,0.494-0.494h1.598c0.271,0,0.494,0.222,0.494,0.494v1.598c0,0.272-0.223,0.494-0.494,0.494h-1.598   c-0.273,0-0.494-0.222-0.494-0.494V258.71z"/><path d="M275.151,261.412h1.598c0.609,0,1.105-0.495,1.105-1.104v-1.598c0-0.609-0.496-1.105-1.105-1.105h-1.598   c-0.609,0-1.104,0.496-1.104,1.105v1.598C274.047,260.917,274.541,261.412,275.151,261.412z M274.656,258.71   c0-0.272,0.223-0.494,0.494-0.494h1.598c0.273,0,0.494,0.222,0.494,0.494v1.598c0,0.272-0.221,0.494-0.494,0.494h-1.598   c-0.271,0-0.494-0.222-0.494-0.494V258.71z"/><path d="M249.712,224.846h29.171c0.609,0,1.105-0.495,1.105-1.104v-5.195c0-0.609-0.494-1.104-1.104-1.104h-29.173   c-0.609,0-1.104,0.495-1.104,1.104v5.195C248.607,224.351,249.102,224.846,249.712,224.846z M249.218,218.546   c0-0.272,0.222-0.494,0.494-0.494h29.173c0.271,0,0.494,0.222,0.494,0.494l-0.002,5.195c0,0.272-0.221,0.494-0.494,0.494h-29.171   c-0.272,0-0.494-0.222-0.494-0.494V218.546z"/><path d="M275.151,223.048h1.598c0.609,0,1.105-0.495,1.105-1.104v-1.599c0-0.609-0.496-1.104-1.105-1.104h-1.598   c-0.609,0-1.104,0.495-1.104,1.104v1.599C274.047,222.553,274.541,223.048,275.151,223.048z M274.656,220.345   c0-0.272,0.223-0.494,0.494-0.494h1.598c0.273,0,0.494,0.222,0.494,0.494v1.599c0,0.272-0.221,0.494-0.494,0.494h-1.598   c-0.271,0-0.494-0.222-0.494-0.494V220.345z"/><path d="M270.045,223.048h1.598c0.609,0,1.104-0.495,1.104-1.104v-1.599c0-0.609-0.494-1.104-1.104-1.104h-1.598   c-0.609,0-1.105,0.495-1.105,1.104v1.599C268.94,222.553,269.436,223.048,270.045,223.048z M269.551,220.345   c0-0.272,0.221-0.494,0.494-0.494h1.598c0.271,0,0.494,0.222,0.494,0.494v1.599c0,0.272-0.223,0.494-0.494,0.494h-1.598   c-0.273,0-0.494-0.222-0.494-0.494V220.345z"/><path d="M264.938,223.048h1.6c0.607,0,1.104-0.495,1.104-1.104v-1.599c0-0.609-0.496-1.104-1.104-1.104h-1.6   c-0.609,0-1.105,0.495-1.105,1.104v1.599C263.832,222.553,264.328,223.048,264.938,223.048z M264.444,220.345   c0-0.272,0.223-0.494,0.494-0.494h1.6c0.271,0,0.492,0.222,0.492,0.494v1.599c0,0.272-0.221,0.494-0.492,0.494h-1.6   c-0.271,0-0.494-0.222-0.494-0.494V220.345z"/><path d="M258.721,223.048c0.17,0,0.307-0.137,0.307-0.306v-3.197c0-0.169-0.137-0.305-0.307-0.305   c-0.168,0-0.305,0.136-0.305,0.305v3.197C258.416,222.911,258.553,223.048,258.721,223.048z"/><path d="M256.768,223.048c0.168,0,0.305-0.137,0.305-0.306v-3.197c0-0.169-0.137-0.305-0.305-0.305s-0.305,0.136-0.305,0.305v3.197   C256.463,222.911,256.6,223.048,256.768,223.048z"/><path d="M254.814,223.048c0.168,0,0.305-0.137,0.305-0.306v-3.197c0-0.169-0.137-0.305-0.305-0.305   c-0.169,0-0.305,0.136-0.305,0.305v3.197C254.509,222.911,254.645,223.048,254.814,223.048z"/><path d="M252.86,223.048c0.169,0,0.306-0.137,0.306-0.306v-3.197c0-0.169-0.137-0.305-0.306-0.305   c-0.168,0-0.305,0.136-0.305,0.305v3.197C252.555,222.911,252.692,223.048,252.86,223.048z"/><path d="M250.907,223.048c0.168,0,0.305-0.137,0.305-0.306v-3.197c0-0.169-0.137-0.305-0.305-0.305   c-0.169,0-0.306,0.136-0.306,0.305v3.197C250.601,222.911,250.738,223.048,250.907,223.048z"/><path d="M249.712,234.438h29.171c0.609,0,1.105-0.496,1.105-1.104v-5.195c0-0.609-0.494-1.104-1.104-1.104h-29.173   c-0.609,0-1.104,0.495-1.104,1.104v5.195C248.607,233.941,249.102,234.438,249.712,234.438z M249.218,228.138   c0-0.272,0.222-0.494,0.494-0.494h29.173c0.271,0,0.494,0.222,0.494,0.494l-0.002,5.195c0,0.272-0.221,0.493-0.494,0.493h-29.171   c-0.272,0-0.494-0.221-0.494-0.493V228.138z"/><path d="M270.045,232.639h1.598c0.609,0,1.104-0.495,1.104-1.104v-1.599c0-0.609-0.494-1.104-1.104-1.104h-1.598   c-0.609,0-1.105,0.495-1.105,1.104v1.599C268.94,232.144,269.436,232.639,270.045,232.639z M269.551,229.936   c0-0.272,0.221-0.494,0.494-0.494h1.598c0.271,0,0.494,0.222,0.494,0.494v1.599c0,0.272-0.223,0.494-0.494,0.494h-1.598   c-0.273,0-0.494-0.222-0.494-0.494V229.936z"/><path d="M264.938,232.639h1.6c0.607,0,1.104-0.495,1.104-1.104v-1.599c0-0.609-0.496-1.104-1.104-1.104h-1.6   c-0.609,0-1.105,0.495-1.105,1.104v1.599C263.832,232.144,264.328,232.639,264.938,232.639z M264.444,229.936   c0-0.272,0.223-0.494,0.494-0.494h1.6c0.271,0,0.492,0.222,0.492,0.494v1.599c0,0.272-0.221,0.494-0.492,0.494h-1.6   c-0.271,0-0.494-0.222-0.494-0.494V229.936z"/><path d="M275.151,232.639h1.598c0.609,0,1.105-0.495,1.105-1.104v-1.599c0-0.609-0.496-1.104-1.105-1.104h-1.598   c-0.609,0-1.104,0.495-1.104,1.104v1.599C274.047,232.144,274.541,232.639,275.151,232.639z M274.656,229.936   c0-0.272,0.223-0.494,0.494-0.494h1.598c0.273,0,0.494,0.222,0.494,0.494v1.599c0,0.272-0.221,0.494-0.494,0.494h-1.598   c-0.271,0-0.494-0.222-0.494-0.494V229.936z"/><path d="M258.721,232.639c0.17,0,0.307-0.137,0.307-0.306v-3.196c0-0.169-0.137-0.306-0.307-0.306   c-0.168,0-0.305,0.137-0.305,0.306v3.196C258.416,232.502,258.553,232.639,258.721,232.639z"/><path d="M256.768,232.639c0.168,0,0.305-0.137,0.305-0.306v-3.196c0-0.169-0.137-0.306-0.305-0.306s-0.305,0.137-0.305,0.306v3.196   C256.463,232.502,256.6,232.639,256.768,232.639z"/><path d="M254.814,232.639c0.168,0,0.305-0.137,0.305-0.306v-3.196c0-0.169-0.137-0.306-0.305-0.306   c-0.169,0-0.305,0.137-0.305,0.306v3.196C254.509,232.502,254.645,232.639,254.814,232.639z"/><path d="M252.86,232.639c0.169,0,0.306-0.137,0.306-0.306v-3.196c0-0.169-0.137-0.306-0.306-0.306   c-0.168,0-0.305,0.137-0.305,0.306v3.196C252.555,232.502,252.692,232.639,252.86,232.639z"/><path d="M250.907,232.639c0.168,0,0.305-0.137,0.305-0.306v-3.196c0-0.169-0.137-0.306-0.305-0.306   c-0.169,0-0.306,0.137-0.306,0.306v3.196C250.601,232.502,250.738,232.639,250.907,232.639z"/><path d="M249.712,244.028h29.171c0.609,0,1.105-0.496,1.105-1.105v-5.194c0-0.609-0.494-1.104-1.104-1.104h-29.173   c-0.609,0-1.104,0.495-1.104,1.104v5.194C248.607,243.532,249.102,244.028,249.712,244.028z M249.218,237.729   c0-0.272,0.222-0.494,0.494-0.494h29.173c0.271,0,0.494,0.222,0.494,0.494l-0.002,5.194c0,0.272-0.221,0.494-0.494,0.494h-29.171   c-0.272,0-0.494-0.222-0.494-0.494V237.729z"/><path d="M270.045,242.229h1.598c0.609,0,1.104-0.495,1.104-1.104v-1.599c0-0.608-0.494-1.104-1.104-1.104h-1.598   c-0.609,0-1.105,0.495-1.105,1.104v1.599C268.94,241.734,269.436,242.229,270.045,242.229z M269.551,239.526   c0-0.271,0.221-0.493,0.494-0.493h1.598c0.271,0,0.494,0.222,0.494,0.493v1.599c0,0.272-0.223,0.494-0.494,0.494h-1.598   c-0.273,0-0.494-0.222-0.494-0.494V239.526z"/><path d="M264.938,242.229h1.6c0.607,0,1.104-0.495,1.104-1.104v-1.599c0-0.608-0.496-1.104-1.104-1.104h-1.6   c-0.609,0-1.105,0.495-1.105,1.104v1.599C263.832,241.734,264.328,242.229,264.938,242.229z M264.444,239.526   c0-0.271,0.223-0.493,0.494-0.493h1.6c0.271,0,0.492,0.222,0.492,0.493v1.599c0,0.272-0.221,0.494-0.492,0.494h-1.6   c-0.271,0-0.494-0.222-0.494-0.494V239.526z"/><path d="M275.151,242.229h1.598c0.609,0,1.105-0.495,1.105-1.104v-1.599c0-0.608-0.496-1.104-1.105-1.104h-1.598   c-0.609,0-1.104,0.495-1.104,1.104v1.599C274.047,241.734,274.541,242.229,275.151,242.229z M274.656,239.526   c0-0.271,0.223-0.493,0.494-0.493h1.598c0.273,0,0.494,0.222,0.494,0.493v1.599c0,0.272-0.221,0.494-0.494,0.494h-1.598   c-0.271,0-0.494-0.222-0.494-0.494V239.526z"/><path d="M258.721,242.229c0.17,0,0.307-0.137,0.307-0.305v-3.197c0-0.169-0.137-0.306-0.307-0.306   c-0.168,0-0.305,0.137-0.305,0.306v3.197C258.416,242.093,258.553,242.229,258.721,242.229z"/><path d="M256.768,242.229c0.168,0,0.305-0.137,0.305-0.305v-3.197c0-0.169-0.137-0.306-0.305-0.306s-0.305,0.137-0.305,0.306v3.197   C256.463,242.093,256.6,242.229,256.768,242.229z"/><path d="M254.814,242.229c0.168,0,0.305-0.137,0.305-0.305v-3.197c0-0.169-0.137-0.306-0.305-0.306   c-0.169,0-0.305,0.137-0.305,0.306v3.197C254.509,242.093,254.645,242.229,254.814,242.229z"/><path d="M252.86,242.229c0.169,0,0.306-0.137,0.306-0.305v-3.197c0-0.169-0.137-0.306-0.306-0.306   c-0.168,0-0.305,0.137-0.305,0.306v3.197C252.555,242.093,252.692,242.229,252.86,242.229z"/><path d="M250.907,242.229c0.168,0,0.305-0.137,0.305-0.305v-3.197c0-0.169-0.137-0.306-0.305-0.306   c-0.169,0-0.306,0.137-0.306,0.306v3.197C250.601,242.093,250.738,242.229,250.907,242.229z"/><path d="M270.045,251.82h1.598c0.609,0,1.104-0.495,1.104-1.104v-1.598c0-0.609-0.494-1.104-1.104-1.104h-1.598   c-0.609,0-1.105,0.495-1.105,1.104v1.598C268.94,251.325,269.436,251.82,270.045,251.82z M269.551,249.118   c0-0.272,0.221-0.494,0.494-0.494h1.598c0.271,0,0.494,0.222,0.494,0.494v1.598c0,0.272-0.223,0.494-0.494,0.494h-1.598   c-0.273,0-0.494-0.222-0.494-0.494V249.118z"/><path d="M275.151,251.82h1.598c0.609,0,1.105-0.495,1.105-1.104v-1.598c0-0.609-0.496-1.104-1.105-1.104h-1.598   c-0.609,0-1.104,0.495-1.104,1.104v1.598C274.047,251.325,274.541,251.82,275.151,251.82z M274.656,249.118   c0-0.272,0.223-0.494,0.494-0.494h1.598c0.273,0,0.494,0.222,0.494,0.494v1.598c0,0.272-0.221,0.494-0.494,0.494h-1.598   c-0.271,0-0.494-0.222-0.494-0.494V249.118z"/><path d="M249.712,253.619h29.171c0.609,0,1.105-0.496,1.105-1.104v-5.194c0-0.609-0.494-1.105-1.104-1.105h-29.173   c-0.609,0-1.104,0.496-1.104,1.105v5.194C248.607,253.123,249.102,253.619,249.712,253.619z M249.218,247.32   c0-0.273,0.222-0.495,0.494-0.495h29.173c0.271,0,0.494,0.222,0.494,0.495l-0.002,5.194c0,0.272-0.221,0.494-0.494,0.494h-29.171   c-0.272,0-0.494-0.222-0.494-0.494V247.32z"/><path d="M264.938,251.82h1.6c0.607,0,1.104-0.495,1.104-1.104v-1.598c0-0.609-0.496-1.104-1.104-1.104h-1.6   c-0.609,0-1.105,0.495-1.105,1.104v1.598C263.832,251.325,264.328,251.82,264.938,251.82z M264.444,249.118   c0-0.272,0.223-0.494,0.494-0.494h1.6c0.271,0,0.492,0.222,0.492,0.494v1.598c0,0.272-0.221,0.494-0.492,0.494h-1.6   c-0.271,0-0.494-0.222-0.494-0.494V249.118z"/><path d="M258.721,251.821c0.17,0,0.307-0.137,0.307-0.306v-3.196c0-0.169-0.137-0.306-0.307-0.306   c-0.168,0-0.305,0.137-0.305,0.306v3.196C258.416,251.685,258.553,251.821,258.721,251.821z"/><path d="M256.768,251.821c0.168,0,0.305-0.137,0.305-0.306v-3.196c0-0.169-0.137-0.306-0.305-0.306s-0.305,0.137-0.305,0.306v3.196   C256.463,251.685,256.6,251.821,256.768,251.821z"/><path d="M254.814,251.821c0.168,0,0.305-0.137,0.305-0.306v-3.196c0-0.169-0.137-0.306-0.305-0.306   c-0.169,0-0.305,0.137-0.305,0.306v3.196C254.509,251.685,254.645,251.821,254.814,251.821z"/><path d="M252.86,251.821c0.169,0,0.306-0.137,0.306-0.306v-3.196c0-0.169-0.137-0.306-0.306-0.306   c-0.168,0-0.305,0.137-0.305,0.306v3.196C252.555,251.685,252.692,251.821,252.86,251.821z"/><path d="M250.907,251.821c0.168,0,0.305-0.137,0.305-0.306v-3.196c0-0.169-0.137-0.306-0.305-0.306   c-0.169,0-0.306,0.137-0.306,0.306v3.196C250.601,251.685,250.738,251.821,250.907,251.821z"/><path d="M249.712,263.21h29.171c0.609,0,1.105-0.495,1.105-1.104v-5.194c0-0.609-0.494-1.104-1.104-1.104h-29.173   c-0.609,0-1.104,0.495-1.104,1.104v5.194C248.607,262.715,249.102,263.21,249.712,263.21z M249.218,256.911   c0-0.272,0.222-0.494,0.494-0.494h29.173c0.271,0,0.494,0.222,0.494,0.494l-0.002,5.194c0,0.272-0.221,0.494-0.494,0.494h-29.171   c-0.272,0-0.494-0.222-0.494-0.494V256.911z"/><path d="M264.938,261.412h1.6c0.607,0,1.104-0.495,1.104-1.104v-1.598c0-0.609-0.496-1.105-1.104-1.105h-1.6   c-0.609,0-1.105,0.496-1.105,1.105v1.598C263.832,260.917,264.328,261.412,264.938,261.412z M264.444,258.71   c0-0.272,0.223-0.494,0.494-0.494h1.6c0.271,0,0.492,0.222,0.492,0.494v1.598c0,0.272-0.221,0.494-0.492,0.494h-1.6   c-0.271,0-0.494-0.222-0.494-0.494V258.71z"/><path d="M258.721,261.413c0.17,0,0.307-0.137,0.307-0.306v-3.197c0-0.168-0.137-0.305-0.307-0.305   c-0.168,0-0.305,0.137-0.305,0.305v3.197C258.416,261.276,258.553,261.413,258.721,261.413z"/><path d="M256.768,261.413c0.168,0,0.305-0.137,0.305-0.306v-3.197c0-0.168-0.137-0.305-0.305-0.305s-0.305,0.137-0.305,0.305v3.197   C256.463,261.276,256.6,261.413,256.768,261.413z"/><path d="M254.814,261.413c0.168,0,0.305-0.137,0.305-0.306v-3.197c0-0.168-0.137-0.305-0.305-0.305   c-0.169,0-0.305,0.137-0.305,0.305v3.197C254.509,261.276,254.645,261.413,254.814,261.413z"/><path d="M252.86,261.413c0.169,0,0.306-0.137,0.306-0.306v-3.197c0-0.168-0.137-0.305-0.306-0.305   c-0.168,0-0.305,0.137-0.305,0.305v3.197C252.555,261.276,252.692,261.413,252.86,261.413z"/><path d="M250.907,261.413c0.168,0,0.305-0.137,0.305-0.306v-3.197c0-0.168-0.137-0.305-0.305-0.305   c-0.169,0-0.306,0.137-0.306,0.305v3.197C250.601,261.276,250.738,261.413,250.907,261.413z"/><path d="M287.555,232.323h8.07c0.021,0,0.041-0.002,0.061-0.006c0.008-0.001,0.016-0.004,0.023-0.007   c0.012-0.003,0.021-0.006,0.033-0.01c0.01-0.004,0.018-0.01,0.027-0.015c0.008-0.004,0.018-0.008,0.025-0.014   c0.018-0.011,0.033-0.023,0.047-0.038l3.143-3.142c0.02-0.02,0.033-0.042,0.047-0.064c0.004-0.006,0.006-0.012,0.01-0.018   c0.012-0.023,0.021-0.048,0.025-0.074l0,0c0.004-0.02,0.006-0.039,0.006-0.06v-11.396c0-0.169-0.137-0.305-0.305-0.305h-11.213   c-0.168,0-0.305,0.136-0.305,0.305v14.537C287.25,232.188,287.387,232.323,287.555,232.323z M295.932,231.281v-2.099h2.1   L295.932,231.281z M287.86,217.787h10.604v10.784h-2.838c-0.168,0-0.305,0.137-0.305,0.306v2.836h-7.461V217.787z"/><path d="M289.125,219.925h8.072c0.168,0,0.305-0.137,0.305-0.305c0-0.169-0.137-0.306-0.305-0.306h-8.072   c-0.168,0-0.305,0.137-0.305,0.306C288.821,219.788,288.957,219.925,289.125,219.925z"/><path d="M289.125,221.555h8.072c0.168,0,0.305-0.137,0.305-0.306c0-0.168-0.137-0.305-0.305-0.305h-8.072   c-0.168,0-0.305,0.137-0.305,0.305C288.821,221.418,288.957,221.555,289.125,221.555z"/><path d="M289.125,223.184h8.072c0.168,0,0.305-0.136,0.305-0.305s-0.137-0.306-0.305-0.306h-8.072   c-0.168,0-0.305,0.137-0.305,0.306S288.957,223.184,289.125,223.184z"/><path d="M289.125,224.813h8.072c0.168,0,0.305-0.137,0.305-0.306s-0.137-0.305-0.305-0.305h-8.072   c-0.168,0-0.305,0.136-0.305,0.305S288.957,224.813,289.125,224.813z"/><path d="M297.502,226.138c0-0.169-0.137-0.306-0.305-0.306h-8.072c-0.168,0-0.305,0.137-0.305,0.306s0.137,0.305,0.305,0.305h8.072   C297.365,226.442,297.502,226.307,297.502,226.138z"/><path d="M299.92,255.633c0-3.493-2.842-6.336-6.336-6.336c-3.492,0-6.334,2.843-6.334,6.336s2.842,6.336,6.334,6.336   C297.078,261.969,299.92,259.126,299.92,255.633z M287.86,255.633c0-3.156,2.568-5.725,5.725-5.725s5.725,2.568,5.725,5.725   c0,3.157-2.568,5.725-5.725,5.725S287.86,258.79,287.86,255.633z"/><path d="M297.125,255.633c0-0.109-0.057-0.21-0.152-0.265l-5.262-3.038c-0.094-0.054-0.211-0.055-0.305,0   c-0.096,0.055-0.152,0.155-0.152,0.265v6.076c0,0.109,0.057,0.21,0.152,0.265c0.047,0.027,0.1,0.041,0.152,0.041   s0.105-0.014,0.152-0.041l5.262-3.038C297.069,255.843,297.125,255.742,297.125,255.633z M291.864,258.143v-5.019l4.346,2.509   L291.864,258.143z"/><path d="M299.508,234.963h-12.693c-1.033,0-1.875,0.842-1.875,1.876v8.035c0,1.034,0.842,1.875,1.875,1.875h0.523l0,0h0.002h12.168   c1.033,0,1.875-0.841,1.875-1.875v-8.035C301.383,235.805,300.541,234.963,299.508,234.963z M300.772,244.874   c0,0.697-0.566,1.265-1.264,1.265h-11.641l2.006-3.47l1.086,1.015c0.002,0.002,0.004,0.005,0.006,0.007l1.26,1.178   c0.123,0.115,0.316,0.108,0.432-0.015s0.107-0.316-0.016-0.432l-1.09-1.02l2.525-4.368l2.045,1.913   c0.002,0.001,0.004,0.003,0.006,0.004l2.158,2.021c0.123,0.115,0.316,0.108,0.432-0.015s0.109-0.316-0.014-0.432l-1.99-1.861   l1.709-2.957l2.35,2.198V244.874z M300.772,239.069l-2.213-2.07c-0.068-0.063-0.16-0.093-0.254-0.079   c-0.092,0.014-0.172,0.068-0.219,0.149l-1.83,3.167l-2.043-1.911c-0.068-0.063-0.16-0.093-0.252-0.079   c-0.094,0.014-0.174,0.068-0.221,0.149l-2.646,4.579l-1.084-1.014c-0.068-0.063-0.16-0.093-0.252-0.079   c-0.094,0.014-0.174,0.068-0.221,0.149l-2.375,4.107h-0.348c-0.697,0-1.264-0.567-1.264-1.265v-8.035   c0-0.697,0.566-1.265,1.264-1.265h12.693c0.697,0,1.264,0.567,1.264,1.265V239.069z"/><path d="M288.606,236.496c-1.094,0-1.984,0.89-1.984,1.983s0.891,1.983,1.984,1.983c1.092,0,1.982-0.89,1.982-1.983   S289.698,236.496,288.606,236.496z M288.606,239.852c-0.758,0-1.373-0.615-1.373-1.372s0.615-1.373,1.373-1.373   c0.756,0,1.371,0.616,1.371,1.373S289.362,239.852,288.606,239.852z"/></g><text x="206" y="321" fill="#000000" font-size="5px" font-weight="bold" font-family="'Helvetica Neue', Helvetica, Arial-Unicode, Arial, Sans-serif">Created by Iconika</text><text x="206" y="326" fill="#000000" font-size="5px" font-weight="bold" font-family="'Helvetica Neue', Helvetica, Arial-Unicode, Arial, Sans-serif">from the Noun Project</text></svg>