<svg xmlns="http://www.w3.org/2000/svg" xmlns:xlink="http://www.w3.org/1999/xlink" version="1.1" x="0px" y="0px" viewBox="0 0 66 82.5" enable-background="new 0 0 66 66" xml:space="preserve"><g><g><path d="M63.6,9.9l-1.5-0.3C62,9,61.8,8.5,61.5,8l0.9-1.2c0.3-0.4,0.2-0.9-0.1-1.3L60,3.3c-0.3-0.3-0.9-0.4-1.3-0.1L57.5,4    c-0.5-0.3-1-0.5-1.5-0.6l-0.3-1.5c-0.1-0.5-0.5-0.8-1-0.8l-3.2,0c-0.4,0-0.9,0.3-1,0.8l-0.3,1.5c-0.5,0.2-1,0.4-1.5,0.6l-1.2-0.9    c-0.4-0.3-0.9-0.2-1.3,0.1L44,5.4c-0.3,0.3-0.4,0.9-0.1,1.3l0.9,1.2c-0.3,0.5-0.5,1-0.7,1.5l-1.5,0.3c-0.5,0.1-0.8,0.5-0.8,1    l0,3.2c0,0.5,0.3,0.9,0.8,1l1.5,0.3c0.2,0.5,0.4,1,0.6,1.5l-0.9,1.2c-0.3,0.4-0.2,0.9,0.1,1.3l2.3,2.3c0.3,0.3,0.9,0.4,1.3,0.1    l1.2-0.9c0.5,0.3,1,0.5,1.5,0.6l0.3,1.5c0.1,0.5,0.5,0.8,0.9,0.8l1.5,0c-0.5,0.1-0.8,0.5-0.8,0.9c0,0.5,0.4,1,1,1c0.5,0,1-0.4,1-1    c0-0.5-0.3-0.8-0.8-0.9l1.3,0c0,0,0,0,0,0c0.5,0,0.9-0.3,1-0.8l0.3-1.5c0.5-0.2,1-0.4,1.5-0.6l1.2,0.9c0.4,0.3,0.9,0.2,1.3-0.1    l2.3-2.3c0.3-0.3,0.4-0.9,0.1-1.3l-0.9-1.2c0.3-0.5,0.5-1,0.6-1.5l1.5-0.2c0.5-0.1,0.8-0.5,0.8-1l0-3.2    C64.4,10.3,64.1,9.9,63.6,9.9z M53.1,16c-2,0-3.7-1.7-3.7-3.7c0-2,1.7-3.7,3.7-3.7c2,0,3.7,1.7,3.7,3.7C56.8,14.4,55.1,16,53.1,16    z"/></g><g><path d="M33.3,42.5c-2.9,0-5.4-1.9-7-4.5l-3.2,1.2c-0.1,0-0.1,0.1-0.2,0.1c-1.2,0.8-1.9,2.1-1.9,3.5v0.9h24.6v-0.9    c0-1.4-0.7-2.8-1.9-3.6c-0.1,0-0.1-0.1-0.2-0.1l-3.2-1.1C38.7,40.6,36.2,42.5,33.3,42.5z"/></g><g><path d="M26.5,32c0,3.9,3.1,8.5,6.9,8.5c3.8,0,6.9-4.7,6.9-8.5c0-3.8-3.1-6.9-6.9-6.9C29.5,25.1,26.5,28.2,26.5,32z"/></g><g><path d="M53.1,55.8c-0.5,0-1,0.4-1,1c0,0.5,0.4,1,1,1c0.5,0,1-0.4,1-1C54.1,56.3,53.6,55.8,53.1,55.8z"/></g><g><circle cx="50.5" cy="57.1" r="1"/></g><g><path d="M53.1,52.9c-0.5,0-1,0.4-1,1c0,0.5,0.4,1,1,1c0.5,0,1-0.4,1-1C54.1,53.3,53.6,52.9,53.1,52.9z"/></g><g><path d="M53.1,29.5c-0.5,0-1,0.4-1,1c0,0.5,0.4,1,1,1c0.5,0,1-0.4,1-1C54.1,29.9,53.6,29.5,53.1,29.5z"/></g><g><path d="M53.1,41.2c-0.5,0-1,0.4-1,1c0,0.5,0.4,1,1,1c0.5,0,1-0.4,1-1C54.1,41.6,53.6,41.2,53.1,41.2z"/></g><g><path d="M53.1,35.3c-0.5,0-1,0.4-1,1c0,0.5,0.4,1,1,1c0.5,0,1-0.4,1-1C54.1,35.8,53.6,35.3,53.1,35.3z"/></g><g><path d="M53.1,50c-0.5,0-1,0.4-1,1c0,0.5,0.4,1,1,1c0.5,0,1-0.4,1-1C54.1,50.4,53.6,50,53.1,50z"/></g><g><path d="M53.1,26.5c-0.5,0-1,0.4-1,1c0,0.5,0.4,1,1,1c0.5,0,1-0.4,1-1C54.1,27,53.6,26.5,53.1,26.5z"/></g><g><path d="M53.1,32.4c-0.5,0-1,0.4-1,1c0,0.5,0.4,1,1,1c0.5,0,1-0.4,1-1C54.1,32.8,53.6,32.4,53.1,32.4z"/></g><g><path d="M53.1,38.3c-0.5,0-1,0.4-1,1c0,0.5,0.4,1,1,1c0.5,0,1-0.4,1-1C54.1,38.7,53.6,38.3,53.1,38.3z"/></g><g><path d="M53.1,44.1c-0.5,0-1,0.4-1,1c0,0.5,0.4,1,1,1c0.5,0,1-0.4,1-1C54.1,44.5,53.6,44.1,53.1,44.1z"/></g><g><path d="M53.1,47.1c-0.5,0-1,0.4-1,1c0,0.5,0.4,1,1,1c0.5,0,1-0.4,1-1C54.1,47.5,53.6,47.1,53.1,47.1z"/></g><g><path d="M13.5,52.9c-0.5,0-1,0.4-1,1c0,0.5,0.4,1,1,1c0.5,0,1-0.4,1-1C14.4,53.3,14,52.9,13.5,52.9z"/></g><g><path d="M13.5,47.1c-0.5,0-1,0.4-1,1c0,0.5,0.4,1,1,1c0.5,0,1-0.4,1-1C14.4,47.5,14,47.1,13.5,47.1z"/></g><g><path d="M13.5,50c-0.5,0-1,0.4-1,1c0,0.5,0.4,1,1,1c0.5,0,1-0.4,1-1C14.4,50.4,14,50,13.5,50z"/></g><g><path d="M13.5,55.8c-0.5,0-1,0.4-1,1c0,0.5,0.4,1,1,1c0.5,0,1-0.4,1-1C14.4,56.3,14,55.8,13.5,55.8z"/></g><g><path d="M13.5,23.6c-0.5,0-1,0.4-1,1c0,0.5,0.4,1,1,1c0.5,0,1-0.4,1-1C14.4,24,14,23.6,13.5,23.6z"/></g><g><path d="M16.1,58.1c0.5,0,1-0.4,1-1s-0.4-1-1-1c-0.5,0-1,0.4-1,1S15.6,58.1,16.1,58.1z"/></g><g><path d="M13.5,26.5c-0.5,0-1,0.4-1,1c0,0.5,0.4,1,1,1c0.5,0,1-0.4,1-1C14.4,27,14,26.5,13.5,26.5z"/></g><g><path d="M13.5,32.4c-0.5,0-1,0.4-1,1c0,0.5,0.4,1,1,1c0.5,0,1-0.4,1-1C14.4,32.8,14,32.4,13.5,32.4z"/></g><g><path d="M13.5,44.1c-0.5,0-1,0.4-1,1c0,0.5,0.4,1,1,1c0.5,0,1-0.4,1-1C14.4,44.5,14,44.1,13.5,44.1z"/></g><g><path d="M13.5,35.3c-0.5,0-1,0.4-1,1c0,0.5,0.4,1,1,1c0.5,0,1-0.4,1-1C14.4,35.8,14,35.3,13.5,35.3z"/></g><g><path d="M13.5,29.5c-0.5,0-1,0.4-1,1c0,0.5,0.4,1,1,1c0.5,0,1-0.4,1-1C14.4,29.9,14,29.5,13.5,29.5z"/></g><g><path d="M13.5,38.3c-0.5,0-1,0.4-1,1c0,0.5,0.4,1,1,1c0.5,0,1-0.4,1-1C14.4,38.7,14,38.3,13.5,38.3z"/></g><g><path d="M13.5,41.2c-0.5,0-1,0.4-1,1c0,0.5,0.4,1,1,1c0.5,0,1-0.4,1-1C14.4,41.6,14,41.2,13.5,41.2z"/></g><g><path d="M32.6,21.8V2c0-0.5-0.4-1-1-1h-29c-0.5,0-1,0.4-1,1v19.8c0,0.5,0.4,1,1,1h29C32.1,22.8,32.6,22.3,32.6,21.8z M13.3,15.6    c0.4,0.4,0.4,1,0,1.4c-0.4,0.4-1,0.4-1.4,0l-4.7-4.4c-0.2-0.2-0.3-0.4-0.3-0.7c0-0.3,0.1-0.5,0.3-0.7l4.7-4.4c0.4-0.4,1-0.4,1.4,0    c0.4,0.4,0.4,1,0,1.4l-3.9,3.7L13.3,15.6z M19.9,5.2L16.2,19c-0.1,0.5-0.7,0.8-1.2,0.7c-0.5-0.1-0.8-0.7-0.7-1.2L18,4.7    c0.1-0.5,0.7-0.8,1.2-0.7C19.7,4.2,20,4.7,19.9,5.2z M26.9,12.6L22.2,17c-0.4,0.4-1,0.4-1.4,0c-0.4-0.4-0.4-1,0-1.4l3.9-3.7    l-3.9-3.7c-0.4-0.4-0.4-1,0-1.4c0.4-0.4,1-0.4,1.4,0l4.7,4.4C27.3,11.6,27.3,12.2,26.9,12.6z"/></g><g><path d="M33.3,53.4c-0.9,0-1.7,0.7-1.7,1.7c0,0.9,0.7,1.7,1.7,1.7c0.9,0,1.7-0.7,1.7-1.7C35,54.2,34.3,53.4,33.3,53.4z"/></g><g><path d="M49.7,63h-1.8l1.8-16.3c0-0.3-0.1-0.6-0.2-0.8c-0.2-0.2-0.4-0.3-0.7-0.3H18c-0.3,0-0.5,0.1-0.7,0.3    c-0.2,0.2-0.3,0.5-0.2,0.8L18.8,63h-2.5c-0.5,0-1,0.4-1,1c0,0.5,0.4,1,1,1h33.4c0.5,0,1-0.4,1-1C50.7,63.5,50.2,63,49.7,63z     M33.3,58.7c-2,0-3.6-1.6-3.6-3.6c0-2,1.6-3.6,3.6-3.6c2,0,3.6,1.6,3.6,3.6C37,57.1,35.3,58.7,33.3,58.7z"/></g></g><text x="0" y="81" fill="#000000" font-size="5px" font-weight="bold" font-family="'Helvetica Neue', Helvetica, Arial-Unicode, Arial, Sans-serif">Created by ProSymbols</text><text x="0" y="86" fill="#000000" font-size="5px" font-weight="bold" font-family="'Helvetica Neue', Helvetica, Arial-Unicode, Arial, Sans-serif">from the Noun Project</text></svg>