<?xml version="1.0" encoding="UTF-8" standalone="no"?>
<svg
   xmlns:dc="http://purl.org/dc/elements/1.1/"
   xmlns:cc="http://creativecommons.org/ns#"
   xmlns:rdf="http://www.w3.org/1999/02/22-rdf-syntax-ns#"
   xmlns:svg="http://www.w3.org/2000/svg"
   xmlns="http://www.w3.org/2000/svg"
   xmlns:sodipodi="http://sodipodi.sourceforge.net/DTD/sodipodi-0.dtd"
   xmlns:inkscape="http://www.inkscape.org/namespaces/inkscape"
   version="1.1"
   x="0px"
   y="0px"
   viewBox="0 0 125 125"
   enable-background="new 0 0 99.471 100"
   xml:space="preserve"
   id="svg2"
   inkscape:version="0.91 r13725"
   sodipodi:docname="noun_Life Stage_2979_green.svg"
   width="125"
   height="125"><metadata
     id="metadata34"><rdf:RDF><cc:Work
         rdf:about=""><dc:format>image/svg+xml</dc:format><dc:type
           rdf:resource="http://purl.org/dc/dcmitype/StillImage" /><dc:title></dc:title></cc:Work></rdf:RDF></metadata><defs
     id="defs32" /><sodipodi:namedview
     pagecolor="#ffffff"
     bordercolor="#666666"
     borderopacity="1"
     objecttolerance="10"
     gridtolerance="10"
     guidetolerance="10"
     inkscape:pageopacity="0"
     inkscape:pageshadow="2"
     inkscape:window-width="1370"
     inkscape:window-height="783"
     id="namedview30"
     showgrid="false"
     inkscape:zoom="1.888"
     inkscape:cx="-26.006025"
     inkscape:cy="62.5"
     inkscape:window-x="437"
     inkscape:window-y="146"
     inkscape:window-maximized="0"
     inkscape:current-layer="svg2" /><g
     id="g4"
     transform="translate(14,10)"><path
       d="m 74.913,89.033 c -1.077,-0.834 -2.158,-1.696 -3.254,-2.57 -0.91,-0.724 -1.823,-1.456 -2.743,-2.173 -5.508,-4.304 -11.232,-8.228 -17.605,-8.798 -0.528,-0.049 -1.06,-0.076 -1.595,-0.076 -0.539,0 -1.065,0.068 -1.594,0.116 -6.392,0.579 -12.139,4.479 -17.66,8.798 0.193,0.152 0.387,0.306 0.579,0.459 0.673,0.535 1.333,1.048 1.999,1.572 5.489,-4.256 10.843,-7.762 16.677,-7.762 5.813,0 11.153,3.487 16.624,7.726 1.106,0.852 2.218,1.735 3.333,2.631 0.886,0.703 1.772,1.413 2.664,2.11 5.986,4.682 12.231,8.934 19.278,8.934 2.729,0 5.336,-0.65 7.854,-1.707 l 0,-3.479 c -2.556,1.229 -5.154,2 -7.854,2 -5.839,0 -11.199,-3.515 -16.703,-7.781 z"
       id="path6"
       inkscape:connector-curvature="0" /><path
       d="m 91.652,75.416 c -7.051,0 -13.312,4.251 -19.313,8.938 0.184,0.146 0.368,0.291 0.551,0.437 0.681,0.546 1.354,1.062 2.026,1.599 1.99,-1.541 3.968,-2.979 5.95,-4.189 l 0,8.561 c 1.063,0.695 2.126,1.34 3.188,1.883 l 0,-12.159 c 1.966,-0.918 3.961,-1.547 6.003,-1.766 l 0,15.854 c 0.49,0.059 0.981,0.112 1.478,0.112 0.571,0 1.144,-0.055 1.711,-0.131 l 0,-15.856 c 2.122,0.229 4.187,0.902 6.225,1.878 l 0,-3.474 c -2.509,-1.044 -5.104,-1.687 -7.819,-1.687 z"
       id="path8"
       inkscape:connector-curvature="0"
       style="fill:#72F6B2" /><path
       d="M 24.463,89.068 C 18.983,93.316 13.631,96.814 7.809,96.814 5.125,96.814 2.544,96 0,94.7 l 0,3.513 C 2.504,99.318 5.092,100 7.807,100 c 7.027,0 13.259,-4.229 19.232,-8.896 -0.211,-0.168 -0.426,-0.334 -0.637,-0.506 -0.65,-0.522 -1.291,-1.016 -1.939,-1.53 z"
       id="path10"
       inkscape:connector-curvature="0" /><path
       d="m 66.335,89.088 c -1.955,1.51 -3.891,2.911 -5.838,4.109 l 0,-8.424 c -1.066,-0.701 -2.13,-1.342 -3.188,-1.893 l 0,11.833 c 0,0.065 0.027,0.12 0.036,0.183 -1.978,0.932 -3.982,1.571 -6.035,1.797 l 0,-15.836 c -0.558,-0.076 -1.11,-0.129 -1.667,-0.129 -0.511,0 -1.017,0.056 -1.521,0.117 l 0,15.877 c -2.062,-0.218 -4.073,-0.844 -6.053,-1.771 0.011,-0.08 0.047,-0.152 0.047,-0.236 l 0,-11.908 c -1.062,0.541 -2.125,1.187 -3.188,1.885 l 0,8.547 C 35.866,91.364 32.83,88.951 29.715,86.465 22.91,81.033 15.874,75.417 7.776,75.417 c -2.701,0 -5.278,0.601 -7.774,1.572 l 0,3.438 c 2.023,-0.898 4.073,-1.525 6.181,-1.736 l 0,15.893 -0.003,0 c 0.527,0.068 1.059,0.12 1.59,0.12 0.535,0 1.065,-0.052 1.598,-0.12 l 0,-15.885 c 2.057,0.222 4.062,0.852 6.042,1.783 -0.011,0.072 -0.043,0.142 -0.043,0.222 l 0,11.894 c 1.059,-0.551 2.122,-1.19 3.188,-1.891 l 0,-8.506 c 3.046,1.871 6.07,4.275 9.172,6.752 6.807,5.431 13.846,11.047 21.948,11.047 7.021,0 13.257,-4.219 19.237,-8.878 -0.219,-0.175 -0.439,-0.351 -0.659,-0.524 -0.647,-0.513 -1.281,-1.004 -1.918,-1.51 z"
       id="path12"
       inkscape:connector-curvature="0"
       style="fill:#72F6B2" /><path
       d="m 84.187,13.561 c 3.075,0 5.572,-2.497 5.572,-5.573 0,-3.072 -2.497,-5.573 -5.572,-5.573 -3.076,0 -5.569,2.5 -5.569,5.573 0,3.075 2.493,5.573 5.569,5.573 z"
       id="path14"
       inkscape:connector-curvature="0" /><path
       d="m 72.121,38.5 c 1.773,0 3.209,-1.437 3.209,-3.209 l 0,-15.041 1.26,0 0,19.334 0,2.666 0,24.667 c 0,1.772 1.437,3.209 3.209,3.209 1.771,0 3.209,-1.437 3.209,-3.209 l 0,-24.667 2.362,0 0,24.667 c 0,1.772 1.437,3.209 3.209,3.209 1.771,0 3.209,-1.437 3.209,-3.209 l 0,-24.667 0,-2.666 0,-19.334 1.26,0 0,15.041 c 0,1.772 1.437,3.209 3.209,3.209 1.772,0 3.209,-1.437 3.209,-3.209 l 0,-13.704 c 0,-3.274 -1.659,-6.212 -5.211,-6.212 l -2.467,0 -15.198,0 -2.467,0 c -3.879,0 -5.211,3.375 -5.211,6.212 l 0,13.704 c 0,1.772 1.437,3.209 3.209,3.209 z"
       id="path16"
       inkscape:connector-curvature="0" /><path
       d="m 43.228,24.839 c 2.462,0 4.46,-2 4.46,-4.462 0,-2.459 -1.998,-4.462 -4.46,-4.462 -2.463,0 -4.459,2.001 -4.459,4.462 0,2.462 1.996,4.462 4.459,4.462 z"
       id="path18"
       inkscape:connector-curvature="0"
       style="fill:#72F6B2" /><path
       d="m 33.567,44.806 c 1.42,0 2.569,-1.15 2.569,-2.569 l 0,-12.043 1.009,0 0,15.479 0,2.134 0,19.749 c 0,1.419 1.15,2.569 2.569,2.569 1.418,0 2.569,-1.15 2.569,-2.569 l 0,-19.748 1.892,0 0,19.749 c 0,1.419 1.15,2.569 2.569,2.569 1.419,0 2.569,-1.15 2.569,-2.569 l 0,-19.749 0,-2.134 0,-15.48 1.008,0 0,12.042 c 0,1.419 1.15,2.569 2.57,2.569 1.418,0 2.568,-1.15 2.568,-2.569 l 0,-10.971 c 0,-2.622 -1.328,-4.974 -4.172,-4.974 l -1.975,0 -12.167,0 -1.975,0 c -3.105,0 -4.172,2.702 -4.172,4.974 l 0,10.972 c 0,1.418 1.151,2.569 2.569,2.569 z"
       id="path20"
       inkscape:connector-curvature="0"
       style="fill:#72F6B2" /><path
       d="m 7.896,40.884 c 1.59,0 2.88,-1.291 2.88,-2.881 0,-1.588 -1.29,-2.881 -2.88,-2.881 -1.59,0 -2.879,1.292 -2.879,2.881 0,1.59 1.289,2.881 2.879,2.881 z"
       id="path22"
       inkscape:connector-curvature="0" /><path
       d="m 1.659,53.776 c 0.917,0 1.658,-0.742 1.658,-1.658 l 0,-7.775 0.651,0 0,9.994 0,1.378 0,12.752 c 0,0.917 0.743,1.659 1.659,1.659 0.916,0 1.659,-0.742 1.659,-1.659 l 0,-10.359 1.221,0 0,10.358 c 0,0.917 0.742,1.659 1.659,1.659 0.917,0 1.659,-0.742 1.659,-1.659 l 0,-12.751 0,-1.378 0,-9.994 0.651,0 0,7.775 c 0,0.916 0.743,1.658 1.659,1.658 0.916,0 1.659,-0.742 1.659,-1.658 l 0,-7.085 c 0,-1.692 -0.857,-3.211 -2.694,-3.211 l -1.275,0 -7.856,0 -1.275,0 C 0.688,41.822 0,43.567 0,45.033 l 0,7.085 c 0,0.916 0.743,1.658 1.659,1.658 z"
       id="path24"
       inkscape:connector-curvature="0" /></g><text
     x="36"
     y="117"
     font-size="5px"
     font-weight="bold"
     id="text26"
     style="font-weight:bold;font-size:5px;font-family:'Helvetica Neue', Helvetica, Arial-Unicode, Arial, Sans-serif;fill:#72F6B2;">Created by Jeff Gerlach</text>
<text
     x="38"
     y="122"
     font-size="5px"
     font-weight="bold"
     id="text28"
     style="font-weight:bold;font-size:5px;font-family:'Helvetica Neue', Helvetica, Arial-Unicode, Arial, Sans-serif;fill:#72F6B2;">from the Noun Project</text>
</svg>