<?xml version="1.0" encoding="UTF-8" standalone="no"?>
<svg
   xmlns:dc="http://purl.org/dc/elements/1.1/"
   xmlns:cc="http://creativecommons.org/ns#"
   xmlns:rdf="http://www.w3.org/1999/02/22-rdf-syntax-ns#"
   xmlns:svg="http://www.w3.org/2000/svg"
   xmlns="http://www.w3.org/2000/svg"
   xmlns:sodipodi="http://sodipodi.sourceforge.net/DTD/sodipodi-0.dtd"
   xmlns:inkscape="http://www.inkscape.org/namespaces/inkscape"
   version="1.1"
   x="0px"
   y="0px"
   viewBox="0 0 125 125"
   enable-background="new 0 0 100 100"
   xml:space="preserve"
   id="svg2"
   inkscape:version="0.91 r13725"
   sodipodi:docname="noun_Task_Schedule_327705_blue.svg"
   width="125"
   height="125"><metadata
     id="metadata44"><rdf:RDF><cc:Work
         rdf:about=""><dc:format>image/svg+xml</dc:format><dc:type
           rdf:resource="http://purl.org/dc/dcmitype/StillImage" /><dc:title></dc:title></cc:Work></rdf:RDF></metadata><defs
     id="defs42" /><sodipodi:namedview
     pagecolor="#ffffff"
     bordercolor="#666666"
     borderopacity="1"
     objecttolerance="10"
     gridtolerance="10"
     guidetolerance="10"
     inkscape:pageopacity="0"
     inkscape:pageshadow="2"
     inkscape:window-width="1133"
     inkscape:window-height="845"
     id="namedview40"
     showgrid="false"
     inkscape:zoom="1.888"
     inkscape:cx="44.619759"
     inkscape:cy="88.983051"
     inkscape:window-x="0"
     inkscape:window-y="0"
     inkscape:window-maximized="0"
     inkscape:current-layer="svg2" /><path
     inkscape:connector-curvature="0"
     id="path6"
     d="m 77.104,52.353 -3.34,0 C 72.967,47.519 68.772,43.82 63.715,43.82 c -5.055,0 -9.25,3.699 -10.049,8.533 l -9.806,0 0,3.123 9.777,0 c 0.711,4.932 4.953,8.736 10.078,8.736 5.127,0 9.369,-3.805 10.08,-8.736 l 3.309,0 0,5.928 6.678,-7.488 -6.678,-7.488 0,5.925 z m -13.388,8.736 c -3.898,0 -7.072,-3.174 -7.072,-7.072 0,-3.9 3.174,-7.074 7.072,-7.074 3.9,0 7.074,3.174 7.074,7.074 0,3.898 -3.174,7.072 -7.074,7.072 z"
     style="fill:#017FFD" /><path
     inkscape:connector-curvature="0"
     id="path8"
     d="m 106.298,45.659 -18.674,0 c -1.373,0 -2.488,1.115 -2.488,2.486 l 0,11.537 c 0,1.373 1.115,2.486 2.488,2.486 l 18.674,0 c 1.371,0 2.488,-1.113 2.488,-2.486 l 0,-11.536 c 0,-1.372 -1.117,-2.487 -2.488,-2.487 z m -0.635,13.387 -17.404,0 0,-10.264 17.404,0 0,10.264 z" /><path
     inkscape:connector-curvature="0"
     id="path10"
     d="m 40.257,23.124 -18.676,0 c -1.371,0 -2.488,1.115 -2.488,2.488 l 0,11.535 c 0,1.371 1.117,2.488 2.488,2.488 l 18.676,0 c 1.371,0 2.486,-1.117 2.486,-2.488 l 0,-11.535 c 0,-1.373 -1.115,-2.488 -2.486,-2.488 z m -0.637,13.387 -17.402,0 0,-10.264 17.402,0 0,10.264 z" /><path
     inkscape:connector-curvature="0"
     id="path12"
     d="m 40.257,45.659 -18.676,0 c -1.371,0 -2.488,1.117 -2.488,2.488 l 0,11.535 c 0,1.373 1.117,2.486 2.488,2.486 l 18.676,0 c 1.371,0 2.486,-1.113 2.486,-2.486 l 0,-11.535 c 0,-1.371 -1.115,-2.488 -2.486,-2.488 z m -0.637,13.387 -17.402,0 0,-10.264 17.402,0 0,10.264 z" /><path
     inkscape:connector-curvature="0"
     id="path14"
     d="m 40.257,68.194 -18.676,0 c -1.371,0 -2.488,1.115 -2.488,2.486 l 0,11.535 c 0,1.373 1.117,2.488 2.488,2.488 l 18.676,0 c 1.371,0 2.486,-1.115 2.486,-2.488 l 0,-11.534 c 0,-1.371 -1.115,-2.487 -2.486,-2.487 z m -0.637,13.387 -17.402,0 0,-10.264 17.402,0 0,10.264 z" /><path
     inkscape:connector-curvature="0"
     id="path16"
     d="m 93.378,56.253 c 0,0 0,0.002 0.002,0.002 l 0.697,0.939 c 0.002,0 0.002,0 0.002,0.002 l 0.033,0.043 c 0.174,0.232 0.504,0.381 0.738,0.205 l 0.992,-0.639 0,0 5.803,-4.426 c 0.234,-0.176 0.27,-0.625 0.076,-0.885 l -0.701,-0.938 c -0.191,-0.26 -0.539,-0.328 -0.771,-0.152 l -5.381,4.008 -1.766,-2.369 c -0.174,-0.234 -0.506,-0.281 -0.74,-0.107 l -0.992,0.738 c -0.234,0.174 -0.281,0.508 -0.107,0.742 l 2.115,2.837 z"
     style="fill:#017FFD" /><path
     inkscape:connector-curvature="0"
     id="path18"
     d="m 63.95,53.286 c -0.008,-0.018 -0.016,-0.037 -0.025,-0.055 -0.002,-0.006 0.006,-0.006 0.002,-0.01 l -0.582,-5.398 0,0 -1.133,5.182 c -0.289,0.316 -0.373,0.793 -0.164,1.199 0.172,0.336 0.498,0.537 0.848,0.568 l 5.297,2.203 -0.002,-0.002 -4.241,-3.687 z"
     style="fill:#017FFD" /><rect
     id="rect20"
     height="2.678"
     width="3.1229999"
     y="23.794001"
     x="62.154999"
     style="fill:#017FFD" /><rect
     id="rect22"
     height="2.6760001"
     width="3.1229999"
     y="28.927"
     x="62.154999"
     style="fill:#017FFD" /><rect
     id="rect24"
     height="2.678"
     width="3.1229999"
     y="34.057999"
     x="62.154999"
     style="fill:#017FFD" /><rect
     id="rect26"
     height="2.6760001"
     width="3.1229999"
     y="39.188"
     x="62.154999"
     style="fill:#017FFD" /><rect
     id="rect28"
     height="2.678"
     width="3.1229999"
     y="66.186996"
     x="62.154999"
     style="fill:#017FFD" /><rect
     id="rect30"
     height="2.678"
     width="3.1229999"
     y="71.317001"
     x="62.154999"
     style="fill:#017FFD" /><rect
     id="rect32"
     height="2.6760001"
     width="3.1229999"
     y="76.449997"
     x="62.154999"
     style="fill:#017FFD" /><rect
     id="rect34"
     height="2.678"
     width="3.1229999"
     y="81.581001"
     x="62.154999"
     style="fill:#017FFD" /><text
     x="28.601694"
     y="94.872879"
     font-size="5px"
     font-weight="bold"
     id="text36"
     style="font-weight:bold;font-size:5px;font-family:'Helvetica Neue', Helvetica, Arial-Unicode, Arial, Sans-serif;fill:#017FFD;">Created by www.yugudesign.com</text>
<text
     x="40.254238"
     y="100.40254"
     font-size="5px"
     font-weight="bold"
     id="text38"
     style="font-weight:bold;font-size:5px;font-family:'Helvetica Neue', Helvetica, Arial-Unicode, Arial, Sans-serif;fill:#017FFD;">from the Noun Project</text>
</svg>