<?xml version="1.0" encoding="UTF-8" standalone="no"?>
<svg
   xmlns:dc="http://purl.org/dc/elements/1.1/"
   xmlns:cc="http://creativecommons.org/ns#"
   xmlns:rdf="http://www.w3.org/1999/02/22-rdf-syntax-ns#"
   xmlns:svg="http://www.w3.org/2000/svg"
   xmlns="http://www.w3.org/2000/svg"
   xmlns:sodipodi="http://sodipodi.sourceforge.net/DTD/sodipodi-0.dtd"
   xmlns:inkscape="http://www.inkscape.org/namespaces/inkscape"
   version="1.1"
   x="0px"
   y="0px"
   viewBox="0 0 125 125"
   xml:space="preserve"
   id="svg2"
   inkscape:version="0.91 r13725"
   sodipodi:docname="noun_app_settings_1327221.svg"
   width="125"
   height="125"><metadata
     id="metadata72"><rdf:RDF><cc:Work
         rdf:about=""><dc:format>image/svg+xml</dc:format><dc:type
           rdf:resource="http://purl.org/dc/dcmitype/StillImage" /><dc:title></dc:title></cc:Work></rdf:RDF></metadata><defs
     id="defs70" /><sodipodi:namedview
     pagecolor="#ffffff"
     bordercolor="#666666"
     borderopacity="1"
     objecttolerance="10"
     gridtolerance="10"
     guidetolerance="10"
     inkscape:pageopacity="0"
     inkscape:pageshadow="2"
     inkscape:window-width="1317"
     inkscape:window-height="774"
     id="namedview68"
     showgrid="false"
     inkscape:zoom="2.7764706"
     inkscape:cx="-17.504237"
     inkscape:cy="42.5"
     inkscape:window-x="0"
     inkscape:window-y="0"
     inkscape:window-maximized="0"
     inkscape:current-layer="svg2" /><style
     type="text/css"
     id="style4">
	.st0{fill:#010101;}
</style><g
     id="g8"
     transform="translate(31.694915,15.508475)"><path
       style="fill:#010101"
       inkscape:connector-curvature="0"
       id="path10"
       d="M 66,1 2,1 C 1.4,1 1,1.4 1,2 l 0,64 c 0,0.6 0.4,1 1,1 l 64,0 c 0.6,0 1,-0.4 1,-1 L 67,2 C 67,1.4 66.6,1 66,1 Z M 65,3 65,14.4 3,14.4 3,3 65,3 Z M 3,65 3,16.4 65,16.4 65,65 3,65 Z"
       class="st0" /></g><g
     id="g12"
     transform="translate(31.694915,15.508475)"><path
       style="fill:#010101"
       inkscape:connector-curvature="0"
       id="path14"
       d="m 8,12.3 c 1.9,0 3.5,-1.6 3.5,-3.5 C 11.5,6.9 9.9,5.3 8,5.3 6.1,5.3 4.5,6.9 4.5,8.8 c 0,1.9 1.6,3.5 3.5,3.5 z m 0,-5 C 8.8,7.3 9.5,8 9.5,8.8 9.5,9.6 8.8,10.3 8,10.3 7.2,10.3 6.5,9.6 6.5,8.8 6.6,8 7.2,7.3 8,7.3 Z"
       class="st0" /></g><g
     id="g16"
     transform="translate(31.694915,15.508475)"><path
       style="fill:#010101"
       inkscape:connector-curvature="0"
       id="path18"
       d="m 16,12.3 c 1.9,0 3.5,-1.6 3.5,-3.5 0,-1.9 -1.6,-3.5 -3.5,-3.5 -1.9,0 -3.5,1.6 -3.5,3.5 0,1.9 1.6,3.5 3.5,3.5 z m 0,-5 c 0.8,0 1.5,0.7 1.5,1.5 0,0.8 -0.7,1.5 -1.5,1.5 -0.8,0 -1.5,-0.7 -1.5,-1.5 0,-0.8 0.7,-1.5 1.5,-1.5 z"
       class="st0" /></g><g
     id="g20"
     transform="translate(31.694915,15.508475)"><path
       style="fill:#010101"
       inkscape:connector-curvature="0"
       id="path22"
       d="m 23.9,12.3 c 1.9,0 3.5,-1.6 3.5,-3.5 0,-1.9 -1.6,-3.5 -3.5,-3.5 -1.9,0 -3.5,1.6 -3.5,3.5 0,1.9 1.6,3.5 3.5,3.5 z m 0,-5 c 0.8,0 1.5,0.7 1.5,1.5 0,0.8 -0.7,1.5 -1.5,1.5 -0.8,0 -1.5,-0.7 -1.5,-1.5 0.1,-0.8 0.7,-1.5 1.5,-1.5 z"
       class="st0" /></g><g
     id="g24"
     transform="translate(31.694915,15.508475)"><path
       style="fill:#010101"
       inkscape:connector-curvature="0"
       id="path26"
       d="m 29.7,12.3 32.3,0 c 0.6,0 1,-0.4 1,-1 l 0,-5 c 0,-0.6 -0.4,-1 -1,-1 l -32.3,0 c -0.6,0 -1,0.4 -1,1 l 0,4.9 c 0,0.6 0.4,1.1 1,1.1 z m 1,-5 30.3,0 0,2.9 -30.3,0 0,-2.9 z"
       class="st0" /></g><g
     id="g28"
     transform="translate(31.694915,15.508475)"
     style="fill:#017FFD"><path
       style="fill:#017FFD"
       inkscape:connector-curvature="0"
       id="path30"
       d="m 8.9,35.4 0,-3.4 c 0,-0.6 -0.4,-1 -1,-1 -0.6,0 -1,0.4 -1,1 l 0,3.4 c -1.6,0.4 -2.8,1.9 -2.8,3.7 0,1.8 1.2,3.2 2.8,3.7 l 0,19.4 c 0,0.6 0.4,1 1,1 0.6,0 1,-0.4 1,-1 l 0,-19.5 c 1.6,-0.4 2.8,-1.9 2.8,-3.7 0,-1.8 -1.1,-3.2 -2.8,-3.6 z m -1,5.5 c -1,0 -1.8,-0.8 -1.8,-1.8 0,-1 0.8,-1.8 1.8,-1.8 1,0 1.9,0.7 1.9,1.7 0,1.1 -0.8,1.9 -1.9,1.9 z"
       class="st0" /></g><g
     id="g32"
     transform="translate(31.694915,15.508475)"
     style="fill:#017FFD"><path
       style="fill:#017FFD"
       inkscape:connector-curvature="0"
       id="path34"
       d="m 18.6,50 0,-13.3 c 0,-0.6 -0.4,-1 -1,-1 -0.6,0 -1,0.4 -1,1 l 0,13.3 c -1.6,0.4 -2.8,1.9 -2.8,3.7 0,1.8 1.2,3.2 2.8,3.7 l 0,4.8 c 0,0.6 0.4,1 1,1 0.6,0 1,-0.4 1,-1 l 0,-4.8 c 1.6,-0.4 2.8,-1.9 2.8,-3.7 0,-1.8 -1.2,-3.3 -2.8,-3.7 z m -1,5.5 c -1,0 -1.8,-0.8 -1.8,-1.8 0,-1 0.8,-1.8 1.8,-1.8 1,0 1.8,0.8 1.8,1.8 0,0.9 -0.8,1.8 -1.8,1.8 z"
       class="st0" /></g><g
     id="g36"
     transform="translate(31.694915,15.508475)"
     style="fill:#017FFD"><path
       style="fill:#017FFD"
       inkscape:connector-curvature="0"
       id="path38"
       d="m 28.3,41 0,-1.5 c 0,-0.6 -0.4,-1 -1,-1 -0.6,0 -1,0.4 -1,1 l 0,1.5 c -1.6,0.4 -2.8,1.9 -2.8,3.7 0,1.8 1.2,3.2 2.8,3.7 l 0,13.7 c 0,0.6 0.4,1 1,1 0.6,0 1,-0.4 1,-1 l 0,-13.7 c 1.6,-0.4 2.8,-1.9 2.8,-3.7 0,-1.8 -1.2,-3.2 -2.8,-3.7 z m -1,5.5 c -1,0 -1.8,-0.8 -1.8,-1.8 0,-1 0.8,-1.8 1.8,-1.8 1,0 1.8,0.8 1.8,1.8 0,1 -0.8,1.8 -1.8,1.8 z"
       class="st0" /></g><g
     id="g40"
     transform="translate(31.694915,15.508475)"
     style="fill:#017FFD"><path
       style="fill:#017FFD"
       inkscape:connector-curvature="0"
       id="path42"
       d="m 36.3,53.1 0,-13.6 c 0,-0.6 -0.4,-1 -1,-1 -0.6,0 -1,0.4 -1,1 l 0,13.6 c -1.6,0.4 -2.8,1.9 -2.8,3.7 0,1.8 1.2,3.2 2.8,3.7 l 0,1.6 c 0,0.6 0.4,1 1,1 0.6,0 1,-0.4 1,-1 l 0,-1.6 c 1.6,-0.4 2.8,-1.9 2.8,-3.7 C 39.2,55 38,53.6 36.3,53.1 Z m -1,5.5 c -1,0 -1.8,-0.8 -1.8,-1.8 0,-1 0.8,-1.8 1.8,-1.8 1,0 1.8,0.8 1.8,1.8 0.1,1 -0.7,1.8 -1.8,1.8 z"
       class="st0" /></g><g
     id="g44"
     transform="translate(31.694915,15.508475)"
     style="fill:#017FFD"><path
       style="fill:#017FFD"
       inkscape:connector-curvature="0"
       id="path46"
       d="m 62.1,29.6 -2.3,-0.3 c -0.2,-0.9 -0.6,-1.8 -1.1,-2.6 l 1.4,-1.8 c 0.3,-0.4 0.3,-1 -0.1,-1.4 L 58.1,21.6 C 57.7,21.2 57.2,21.2 56.8,21.5 L 55,22.8 C 54.2,22.3 53.3,22 52.4,21.7 l -0.3,-2.3 c -0.1,-0.5 -0.5,-0.9 -1,-0.9 l -2.8,0 c -0.5,0 -0.9,0.4 -1,0.9 L 47,21.8 c -0.9,0.2 -1.8,0.6 -2.6,1.1 l -1.8,-1.4 c -0.4,-0.3 -1,-0.3 -1.3,0.1 l -2,2 c -0.4,0.4 -0.4,0.9 -0.1,1.3 l 1.4,1.8 c -0.5,0.8 -0.8,1.7 -1.1,2.6 l -2.3,0.3 c -0.5,0.1 -0.9,0.5 -0.9,1 l 0,2.8 c 0,0.5 0.4,0.9 0.9,1 l 2.3,0.3 c 0.2,0.9 0.6,1.8 1.1,2.6 l -1.4,1.8 c -0.3,0.4 -0.3,1 0.1,1.3 l 2,2 c 0.4,0.4 0.9,0.4 1.3,0.1 l 1.8,-1.4 c 0.8,0.5 1.7,0.8 2.6,1.1 l 0.3,2.3 c 0.1,0.5 0.5,0.9 1,0.9 l 2.8,0 c 0.5,0 0.9,-0.4 1,-0.9 l 0.3,-2.3 C 53.3,42 54.2,41.6 55,41.1 l 1.8,1.4 c 0.2,0.1 0.4,0.2 0.6,0.2 0.3,0 0.6,-0.1 0.7,-0.3 L 60,40.5 c 0.4,-0.4 0.4,-0.9 0.1,-1.3 l -1.4,-1.8 c 0.5,-0.8 0.8,-1.7 1.1,-2.6 l 2.3,-0.3 C 62.6,34.4 63,34 63,33.5 l 0,-2.8 c 0,-0.6 -0.4,-1.1 -0.9,-1.1 z m -1.1,2.9 -2.1,0.3 c -0.4,0.1 -0.8,0.4 -0.8,0.8 -0.2,1.2 -0.7,2.2 -1.3,3.2 -0.2,0.4 -0.2,0.8 0,1.2 l 1.3,1.7 -0.7,0.7 -1.7,-1.3 c -0.3,-0.3 -0.8,-0.3 -1.2,0 -1,0.7 -2,1.1 -3.2,1.3 -0.4,0.1 -0.7,0.4 -0.8,0.9 l -0.3,2.1 -1,0 -0.3,-2.1 c -0.1,-0.4 -0.4,-0.8 -0.8,-0.9 -1.2,-0.2 -2.2,-0.7 -3.2,-1.3 -0.4,-0.2 -0.8,-0.2 -1.2,0 l -1.7,1.3 -0.7,-0.7 1.3,-1.6 c 0.3,-0.3 0.3,-0.9 0,-1.2 -0.6,-1 -1.1,-2 -1.3,-3.2 -0.1,-0.4 -0.4,-0.7 -0.8,-0.8 l -2.1,-0.3 0,-1 2.1,-0.3 c 0.4,-0.1 0.8,-0.4 0.8,-0.8 0.2,-1.2 0.7,-2.2 1.3,-3.2 0.2,-0.4 0.2,-0.8 0,-1.2 l -1.3,-1.7 0.7,-0.7 1.6,1.2 c 0.3,0.3 0.9,0.3 1.2,0 1,-0.6 2,-1.1 3.2,-1.3 0.4,-0.1 0.7,-0.4 0.8,-0.9 l 0.3,-2.1 1,0 0.3,2.1 c 0.1,0.4 0.4,0.8 0.8,0.9 1.2,0.2 2.2,0.7 3.2,1.3 0.4,0.2 0.8,0.2 1.2,0 l 1.7,-1.3 0.7,0.7 -1.2,1.7 c -0.3,0.3 -0.3,0.8 0,1.2 0.7,1 1.1,2 1.3,3.2 0.1,0.4 0.4,0.7 0.8,0.8 l 2.1,0.3 0,1 z"
       class="st0" /></g><g
     id="g48"
     transform="translate(31.694915,15.508475)"
     style="fill:#017FFD"><path
       style="fill:#017FFD"
       inkscape:connector-curvature="0"
       id="path50"
       d="m 49.7,25.1 c -3.8,0 -6.9,3.1 -6.9,6.9 0,3.8 3.1,6.9 6.9,6.9 3.8,0 6.9,-3.1 6.9,-6.9 0,-3.8 -3.1,-6.9 -6.9,-6.9 z m 0,11.7 c -2.7,0 -4.9,-2.2 -4.9,-4.9 0,-2.7 2.2,-4.9 4.9,-4.9 2.7,0 4.9,2.2 4.9,4.9 0,2.7 -2.2,4.9 -4.9,4.9 z"
       class="st0" /></g><g
     id="g52"
     transform="translate(31.694915,15.508475)"
     style="fill:#017FFD"><path
       style="fill:#017FFD"
       inkscape:connector-curvature="0"
       id="path54"
       d="m 61.1,48.5 -16.9,0 c -0.6,0 -1,0.4 -1,1 0,0.6 0.4,1 1,1 l 16.9,0 c 0.6,0 1,-0.4 1,-1 0,-0.6 -0.4,-1 -1,-1 z"
       class="st0" /></g><g
     id="g56"
     transform="translate(31.694915,15.508475)"
     style="fill:#017FFD"><path
       style="fill:#017FFD"
       inkscape:connector-curvature="0"
       id="path58"
       d="m 61.1,54.4 -16.9,0 c -0.6,0 -1,0.4 -1,1 0,0.6 0.4,1 1,1 l 16.9,0 c 0.6,0 1,-0.4 1,-1 0,-0.5 -0.4,-1 -1,-1 z"
       class="st0" /></g><g
     id="g60"
     transform="translate(31.694915,15.508475)"
     style="fill:#017FFD"><path
       style="fill:#017FFD"
       inkscape:connector-curvature="0"
       id="path62"
       d="m 61.1,60.4 -16.9,0 c -0.6,0 -1,0.4 -1,1 0,0.6 0.4,1 1,1 l 16.9,0 c 0.6,0 1,-0.4 1,-1 0,-0.5 -0.4,-1 -1,-1 z"
       class="st0" /></g><text
     x="44.369926"
     y="91.454674"
     font-size="5px"
     font-weight="bold"
     id="text64"
     style="font-weight:bold;font-size:3.1820755px;font-family:'Helvetica Neue', Helvetica, Arial-Unicode, Arial, Sans-serif;fill:#017FFD;">Created by Vectors Market</text>
<text
     x="47.349751"
     y="95.553619"
     font-size="5px"
     font-weight="bold"
     id="text66"
     style="font-weight:bold;font-size:3.1820755px;font-family:'Helvetica Neue', Helvetica, Arial-Unicode, Arial, Sans-serif;fill:#017FFD;">from the Noun Project</text>
</svg>