<?xml version="1.0" encoding="UTF-8" standalone="no"?>
<svg
   xmlns:dc="http://purl.org/dc/elements/1.1/"
   xmlns:cc="http://creativecommons.org/ns#"
   xmlns:rdf="http://www.w3.org/1999/02/22-rdf-syntax-ns#"
   xmlns:svg="http://www.w3.org/2000/svg"
   xmlns="http://www.w3.org/2000/svg"
   xmlns:sodipodi="http://sodipodi.sourceforge.net/DTD/sodipodi-0.dtd"
   xmlns:inkscape="http://www.inkscape.org/namespaces/inkscape"
   version="1.1"
   x="0px"
   y="0px"
   viewBox="0 0 100 100"
   enable-background="new 0 0 66 66"
   xml:space="preserve"
   id="svg2"
   inkscape:version="0.91 r13725"
   sodipodi:docname="noun_web_developer_1873915_blue.svg"
   width="100"
   height="100"><metadata
     id="metadata138"><rdf:RDF><cc:Work
         rdf:about=""><dc:format>image/svg+xml</dc:format><dc:type
           rdf:resource="http://purl.org/dc/dcmitype/StillImage" /><dc:title></dc:title></cc:Work></rdf:RDF></metadata><defs
     id="defs136" /><sodipodi:namedview
     pagecolor="#ffffff"
     bordercolor="#666666"
     borderopacity="1"
     objecttolerance="10"
     gridtolerance="10"
     guidetolerance="10"
     inkscape:pageopacity="0"
     inkscape:pageshadow="2"
     inkscape:window-width="1301"
     inkscape:window-height="848"
     id="namedview134"
     showgrid="false"
     inkscape:zoom="2.8606061"
     inkscape:cx="0.90889831"
     inkscape:cy="44.745763"
     inkscape:window-x="0"
     inkscape:window-y="0"
     inkscape:window-maximized="0"
     inkscape:current-layer="svg2" /><g
     id="g6"
     transform="translate(18.177966,10.508475)"
     style="fill:#017FFD"><path
       inkscape:connector-curvature="0"
       id="path8"
       d="M 63.6,9.9 62.1,9.6 C 62,9 61.8,8.5 61.5,8 L 62.4,6.8 C 62.7,6.4 62.6,5.9 62.3,5.5 L 60,3.3 C 59.7,3 59.1,2.9 58.7,3.2 L 57.5,4 C 57,3.7 56.5,3.5 56,3.4 L 55.7,1.9 C 55.6,1.4 55.2,1.1 54.7,1.1 l -3.2,0 c -0.4,0 -0.9,0.3 -1,0.8 L 50.2,3.4 C 49.7,3.6 49.2,3.8 48.7,4 L 47.5,3.1 C 47.1,2.8 46.6,2.9 46.2,3.2 L 44,5.4 c -0.3,0.3 -0.4,0.9 -0.1,1.3 l 0.9,1.2 c -0.3,0.5 -0.5,1 -0.7,1.5 l -1.5,0.3 c -0.5,0.1 -0.8,0.5 -0.8,1 l 0,3.2 c 0,0.5 0.3,0.9 0.8,1 l 1.5,0.3 c 0.2,0.5 0.4,1 0.6,1.5 l -0.9,1.2 c -0.3,0.4 -0.2,0.9 0.1,1.3 l 2.3,2.3 c 0.3,0.3 0.9,0.4 1.3,0.1 l 1.2,-0.9 c 0.5,0.3 1,0.5 1.5,0.6 l 0.3,1.5 c 0.1,0.5 0.5,0.8 0.9,0.8 l 1.5,0 c -0.5,0.1 -0.8,0.5 -0.8,0.9 0,0.5 0.4,1 1,1 0.5,0 1,-0.4 1,-1 0,-0.5 -0.3,-0.8 -0.8,-0.9 l 1.3,0 c 0,0 0,0 0,0 0.5,0 0.9,-0.3 1,-0.8 l 0.3,-1.5 c 0.5,-0.2 1,-0.4 1.5,-0.6 l 1.2,0.9 c 0.4,0.3 0.9,0.2 1.3,-0.1 l 2.3,-2.3 c 0.3,-0.3 0.4,-0.9 0.1,-1.3 l -0.9,-1.2 c 0.3,-0.5 0.5,-1 0.6,-1.5 L 63.5,15 c 0.5,-0.1 0.8,-0.5 0.8,-1 l 0,-3.2 C 64.4,10.3 64.1,9.9 63.6,9.9 Z M 53.1,16 c -2,0 -3.7,-1.7 -3.7,-3.7 0,-2 1.7,-3.7 3.7,-3.7 2,0 3.7,1.7 3.7,3.7 0,2.1 -1.7,3.7 -3.7,3.7 z"
       style="fill:#017FFD" /></g><g
     id="g10"
     transform="translate(18.177966,10.508475)"><path
       inkscape:connector-curvature="0"
       id="path12"
       d="m 33.3,42.5 c -2.9,0 -5.4,-1.9 -7,-4.5 l -3.2,1.2 c -0.1,0 -0.1,0.1 -0.2,0.1 -1.2,0.8 -1.9,2.1 -1.9,3.5 l 0,0.9 24.6,0 0,-0.9 c 0,-1.4 -0.7,-2.8 -1.9,-3.6 -0.1,0 -0.1,-0.1 -0.2,-0.1 L 40.3,38 c -1.6,2.6 -4.1,4.5 -7,4.5 z" /></g><g
     id="g14"
     transform="translate(18.177966,10.508475)"><path
       inkscape:connector-curvature="0"
       id="path16"
       d="m 26.5,32 c 0,3.9 3.1,8.5 6.9,8.5 3.8,0 6.9,-4.7 6.9,-8.5 0,-3.8 -3.1,-6.9 -6.9,-6.9 -3.9,0 -6.9,3.1 -6.9,6.9 z" /></g><g
     id="g18"
     transform="translate(18.177966,10.508475)"
     style="fill:#017FFD"><path
       inkscape:connector-curvature="0"
       id="path20"
       d="m 53.1,55.8 c -0.5,0 -1,0.4 -1,1 0,0.5 0.4,1 1,1 0.5,0 1,-0.4 1,-1 0,-0.5 -0.5,-1 -1,-1 z"
       style="fill:#017FFD" /></g><g
     id="g22"
     transform="translate(18.177966,10.508475)"
     style="fill:#017FFD"><circle
       id="circle24"
       r="1"
       cy="57.099998"
       cx="50.5"
       style="fill:#017FFD" /></g><g
     id="g26"
     transform="translate(18.177966,10.508475)"
     style="fill:#017FFD"><path
       inkscape:connector-curvature="0"
       id="path28"
       d="m 53.1,52.9 c -0.5,0 -1,0.4 -1,1 0,0.5 0.4,1 1,1 0.5,0 1,-0.4 1,-1 0,-0.6 -0.5,-1 -1,-1 z"
       style="fill:#017FFD" /></g><g
     id="g30"
     transform="translate(18.177966,10.508475)"
     style="fill:#017FFD"><path
       inkscape:connector-curvature="0"
       id="path32"
       d="m 53.1,29.5 c -0.5,0 -1,0.4 -1,1 0,0.5 0.4,1 1,1 0.5,0 1,-0.4 1,-1 0,-0.6 -0.5,-1 -1,-1 z"
       style="fill:#017FFD" /></g><g
     id="g34"
     transform="translate(18.177966,10.508475)"
     style="fill:#017FFD"><path
       inkscape:connector-curvature="0"
       id="path36"
       d="m 53.1,41.2 c -0.5,0 -1,0.4 -1,1 0,0.5 0.4,1 1,1 0.5,0 1,-0.4 1,-1 0,-0.6 -0.5,-1 -1,-1 z"
       style="fill:#017FFD" /></g><g
     id="g38"
     transform="translate(18.177966,10.508475)"
     style="fill:#017FFD"><path
       inkscape:connector-curvature="0"
       id="path40"
       d="m 53.1,35.3 c -0.5,0 -1,0.4 -1,1 0,0.5 0.4,1 1,1 0.5,0 1,-0.4 1,-1 0,-0.5 -0.5,-1 -1,-1 z"
       style="fill:#017FFD" /></g><g
     id="g42"
     transform="translate(18.177966,10.508475)"
     style="fill:#017FFD"><path
       inkscape:connector-curvature="0"
       id="path44"
       d="m 53.1,50 c -0.5,0 -1,0.4 -1,1 0,0.5 0.4,1 1,1 0.5,0 1,-0.4 1,-1 0,-0.6 -0.5,-1 -1,-1 z"
       style="fill:#017FFD" /></g><g
     id="g46"
     transform="translate(18.177966,10.508475)"
     style="fill:#017FFD"><path
       inkscape:connector-curvature="0"
       id="path48"
       d="m 53.1,26.5 c -0.5,0 -1,0.4 -1,1 0,0.5 0.4,1 1,1 0.5,0 1,-0.4 1,-1 0,-0.5 -0.5,-1 -1,-1 z"
       style="fill:#017FFD" /></g><g
     id="g50"
     transform="translate(18.177966,10.508475)"
     style="fill:#017FFD"><path
       inkscape:connector-curvature="0"
       id="path52"
       d="m 53.1,32.4 c -0.5,0 -1,0.4 -1,1 0,0.5 0.4,1 1,1 0.5,0 1,-0.4 1,-1 0,-0.6 -0.5,-1 -1,-1 z"
       style="fill:#017FFD" /></g><g
     id="g54"
     transform="translate(18.177966,10.508475)"
     style="fill:#017FFD"><path
       inkscape:connector-curvature="0"
       id="path56"
       d="m 53.1,38.3 c -0.5,0 -1,0.4 -1,1 0,0.5 0.4,1 1,1 0.5,0 1,-0.4 1,-1 0,-0.6 -0.5,-1 -1,-1 z"
       style="fill:#017FFD" /></g><g
     id="g58"
     transform="translate(18.177966,10.508475)"
     style="fill:#017FFD"><path
       inkscape:connector-curvature="0"
       id="path60"
       d="m 53.1,44.1 c -0.5,0 -1,0.4 -1,1 0,0.5 0.4,1 1,1 0.5,0 1,-0.4 1,-1 0,-0.6 -0.5,-1 -1,-1 z"
       style="fill:#017FFD" /></g><g
     id="g62"
     transform="translate(18.177966,10.508475)"
     style="fill:#017FFD"><path
       inkscape:connector-curvature="0"
       id="path64"
       d="m 53.1,47.1 c -0.5,0 -1,0.4 -1,1 0,0.5 0.4,1 1,1 0.5,0 1,-0.4 1,-1 0,-0.6 -0.5,-1 -1,-1 z"
       style="fill:#017FFD" /></g><g
     id="g66"
     transform="translate(18.177966,10.508475)"
     style="fill:#017FFD"><path
       inkscape:connector-curvature="0"
       id="path68"
       d="m 13.5,52.9 c -0.5,0 -1,0.4 -1,1 0,0.5 0.4,1 1,1 0.5,0 1,-0.4 1,-1 -0.1,-0.6 -0.5,-1 -1,-1 z"
       style="fill:#017FFD" /></g><g
     id="g70"
     transform="translate(18.177966,10.508475)"
     style="fill:#017FFD"><path
       inkscape:connector-curvature="0"
       id="path72"
       d="m 13.5,47.1 c -0.5,0 -1,0.4 -1,1 0,0.5 0.4,1 1,1 0.5,0 1,-0.4 1,-1 -0.1,-0.6 -0.5,-1 -1,-1 z"
       style="fill:#017FFD" /></g><g
     id="g74"
     transform="translate(18.177966,10.508475)"
     style="fill:#017FFD"><path
       inkscape:connector-curvature="0"
       id="path76"
       d="m 13.5,50 c -0.5,0 -1,0.4 -1,1 0,0.5 0.4,1 1,1 0.5,0 1,-0.4 1,-1 -0.1,-0.6 -0.5,-1 -1,-1 z"
       style="fill:#017FFD" /></g><g
     id="g78"
     transform="translate(18.177966,10.508475)"
     style="fill:#017FFD"><path
       inkscape:connector-curvature="0"
       id="path80"
       d="m 13.5,55.8 c -0.5,0 -1,0.4 -1,1 0,0.5 0.4,1 1,1 0.5,0 1,-0.4 1,-1 -0.1,-0.5 -0.5,-1 -1,-1 z"
       style="fill:#017FFD" /></g><g
     id="g82"
     transform="translate(18.177966,10.508475)"
     style="fill:#017FFD"><path
       inkscape:connector-curvature="0"
       id="path84"
       d="m 13.5,23.6 c -0.5,0 -1,0.4 -1,1 0,0.5 0.4,1 1,1 0.5,0 1,-0.4 1,-1 -0.1,-0.6 -0.5,-1 -1,-1 z"
       style="fill:#017FFD" /></g><g
     id="g86"
     transform="translate(18.177966,10.508475)"
     style="fill:#017FFD"><path
       inkscape:connector-curvature="0"
       id="path88"
       d="m 16.1,58.1 c 0.5,0 1,-0.4 1,-1 0,-0.6 -0.4,-1 -1,-1 -0.5,0 -1,0.4 -1,1 0,0.6 0.5,1 1,1 z"
       style="fill:#017FFD" /></g><g
     id="g90"
     transform="translate(18.177966,10.508475)"
     style="fill:#017FFD"><path
       inkscape:connector-curvature="0"
       id="path92"
       d="m 13.5,26.5 c -0.5,0 -1,0.4 -1,1 0,0.5 0.4,1 1,1 0.5,0 1,-0.4 1,-1 -0.1,-0.5 -0.5,-1 -1,-1 z"
       style="fill:#017FFD" /></g><g
     id="g94"
     transform="translate(18.177966,10.508475)"
     style="fill:#017FFD"><path
       inkscape:connector-curvature="0"
       id="path96"
       d="m 13.5,32.4 c -0.5,0 -1,0.4 -1,1 0,0.5 0.4,1 1,1 0.5,0 1,-0.4 1,-1 -0.1,-0.6 -0.5,-1 -1,-1 z"
       style="fill:#017FFD" /></g><g
     id="g98"
     transform="translate(18.177966,10.508475)"
     style="fill:#017FFD"><path
       inkscape:connector-curvature="0"
       id="path100"
       d="m 13.5,44.1 c -0.5,0 -1,0.4 -1,1 0,0.5 0.4,1 1,1 0.5,0 1,-0.4 1,-1 -0.1,-0.6 -0.5,-1 -1,-1 z"
       style="fill:#017FFD" /></g><g
     id="g102"
     transform="translate(18.177966,10.508475)"
     style="fill:#017FFD"><path
       inkscape:connector-curvature="0"
       id="path104"
       d="m 13.5,35.3 c -0.5,0 -1,0.4 -1,1 0,0.5 0.4,1 1,1 0.5,0 1,-0.4 1,-1 -0.1,-0.5 -0.5,-1 -1,-1 z"
       style="fill:#017FFD" /></g><g
     id="g106"
     transform="translate(18.177966,10.508475)"
     style="fill:#017FFD"><path
       inkscape:connector-curvature="0"
       id="path108"
       d="m 13.5,29.5 c -0.5,0 -1,0.4 -1,1 0,0.5 0.4,1 1,1 0.5,0 1,-0.4 1,-1 -0.1,-0.6 -0.5,-1 -1,-1 z"
       style="fill:#017FFD" /></g><g
     id="g110"
     transform="translate(18.177966,10.508475)"
     style="fill:#017FFD"><path
       inkscape:connector-curvature="0"
       id="path112"
       d="m 13.5,38.3 c -0.5,0 -1,0.4 -1,1 0,0.5 0.4,1 1,1 0.5,0 1,-0.4 1,-1 -0.1,-0.6 -0.5,-1 -1,-1 z"
       style="fill:#017FFD" /></g><g
     id="g114"
     transform="translate(18.177966,10.508475)"
     style="fill:#017FFD"><path
       inkscape:connector-curvature="0"
       id="path116"
       d="m 13.5,41.2 c -0.5,0 -1,0.4 -1,1 0,0.5 0.4,1 1,1 0.5,0 1,-0.4 1,-1 -0.1,-0.6 -0.5,-1 -1,-1 z"
       style="fill:#017FFD" /></g><g
     id="g118"
     transform="translate(18.177966,10.508475)"
     style="fill:#017FFD"><path
       inkscape:connector-curvature="0"
       id="path120"
       d="M 32.6,21.8 32.6,2 c 0,-0.5 -0.4,-1 -1,-1 l -29,0 c -0.5,0 -1,0.4 -1,1 l 0,19.8 c 0,0.5 0.4,1 1,1 l 29,0 c 0.5,0 1,-0.5 1,-1 z M 13.3,15.6 c 0.4,0.4 0.4,1 0,1.4 -0.4,0.4 -1,0.4 -1.4,0 L 7.2,12.6 C 7,12.4 6.9,12.2 6.9,11.9 6.9,11.6 7,11.4 7.2,11.2 l 4.7,-4.4 c 0.4,-0.4 1,-0.4 1.4,0 0.4,0.4 0.4,1 0,1.4 l -3.9,3.7 3.9,3.7 z M 19.9,5.2 16.2,19 C 16.1,19.5 15.5,19.8 15,19.7 14.5,19.6 14.2,19 14.3,18.5 L 18,4.7 C 18.1,4.2 18.7,3.9 19.2,4 19.7,4.2 20,4.7 19.9,5.2 Z m 7,7.4 -4.7,4.4 c -0.4,0.4 -1,0.4 -1.4,0 -0.4,-0.4 -0.4,-1 0,-1.4 l 3.9,-3.7 -3.9,-3.7 c -0.4,-0.4 -0.4,-1 0,-1.4 0.4,-0.4 1,-0.4 1.4,0 l 4.7,4.4 c 0.4,0.4 0.4,1 0,1.4 z"
       style="fill:#017FFD" /></g><g
     id="g122"
     transform="translate(18.177966,10.508475)"
     style="fill:#000000;fill-opacity:1.0"><path
       inkscape:connector-curvature="0"
       id="path124"
       d="m 33.3,53.4 c -0.9,0 -1.7,0.7 -1.7,1.7 0,0.9 0.7,1.7 1.7,1.7 0.9,0 1.7,-0.7 1.7,-1.7 0,-0.9 -0.7,-1.7 -1.7,-1.7 z"
       style="fill:#000000;fill-opacity:1.0" /></g><g
     id="g126"
     transform="translate(18.177966,10.508475)"
     style="fill:#000000;fill-opacity:1.0"><path
       inkscape:connector-curvature="0"
       id="path128"
       d="m 49.7,63 -1.8,0 1.8,-16.3 c 0,-0.3 -0.1,-0.6 -0.2,-0.8 -0.2,-0.2 -0.4,-0.3 -0.7,-0.3 l -30.8,0 c -0.3,0 -0.5,0.1 -0.7,0.3 -0.2,0.2 -0.3,0.5 -0.2,0.8 l 1.7,16.3 -2.5,0 c -0.5,0 -1,0.4 -1,1 0,0.5 0.4,1 1,1 l 33.4,0 c 0.5,0 1,-0.4 1,-1 0,-0.5 -0.5,-1 -1,-1 z M 33.3,58.7 c -2,0 -3.6,-1.6 -3.6,-3.6 0,-2 1.6,-3.6 3.6,-3.6 2,0 3.6,1.6 3.6,3.6 0.1,2 -1.6,3.6 -3.6,3.6 z"
       style="fill:#000000;fill-opacity:1.0" /></g><text
     x="31.526495"
     y="81.289146"
     font-size="5px"
     font-weight="bold"
     id="text130"
     style="font-weight:bold;font-size:3.2991724px;font-family:'Helvetica Neue', Helvetica, Arial-Unicode, Arial, Sans-serif;fill:#017FFD;">Created by ProSymbols</text>
<text
     x="32.910469"
     y="85.280296"
     font-size="5px"
     font-weight="bold"
     id="text132"
     style="font-weight:bold;font-size:3.2991724px;font-family:'Helvetica Neue', Helvetica, Arial-Unicode, Arial, Sans-serif;fill:#017FFD;">from the Noun Project</text>
</svg>