<?xml version="1.0" encoding="UTF-8" standalone="no"?>
<svg
   xmlns:dc="http://purl.org/dc/elements/1.1/"
   xmlns:cc="http://creativecommons.org/ns#"
   xmlns:rdf="http://www.w3.org/1999/02/22-rdf-syntax-ns#"
   xmlns:svg="http://www.w3.org/2000/svg"
   xmlns="http://www.w3.org/2000/svg"
   xmlns:sodipodi="http://sodipodi.sourceforge.net/DTD/sodipodi-0.dtd"
   xmlns:inkscape="http://www.inkscape.org/namespaces/inkscape"
   version="1.1"
   x="0px"
   y="0px"
   viewBox="0 0 100 100"
   enable-background="new 0 0 64 64"
   xml:space="preserve"
   id="svg2"
   inkscape:version="0.91 r13725"
   sodipodi:docname="noun_Workflow_1110086_blue.svg"
   width="100"
   height="100"><metadata
     id="metadata38"><rdf:RDF><cc:Work
         rdf:about=""><dc:format>image/svg+xml</dc:format><dc:type
           rdf:resource="http://purl.org/dc/dcmitype/StillImage" /><dc:title></dc:title></cc:Work></rdf:RDF></metadata><defs
     id="defs36" /><sodipodi:namedview
     pagecolor="#ffffff"
     bordercolor="#666666"
     borderopacity="1"
     objecttolerance="10"
     gridtolerance="10"
     guidetolerance="10"
     inkscape:pageopacity="0"
     inkscape:pageshadow="2"
     inkscape:window-width="1488"
     inkscape:window-height="850"
     id="namedview34"
     showgrid="false"
     inkscape:zoom="4.17193"
     inkscape:cx="2.8464476"
     inkscape:cy="34.439993"
     inkscape:window-x="0"
     inkscape:window-y="0"
     inkscape:window-maximized="0"
     inkscape:current-layer="svg2" /><polygon
     id="polygon6"
     points="17.773,45.657 30.855,45.657 30.855,51.134 33.145,51.134 33.145,45.657 46.227,45.657 46.227,51.134 48.516,51.134 48.516,45.657 48.516,43.366 46.227,43.366 33.145,43.366 33.145,37.889 30.855,37.889 30.855,43.366 17.773,43.366 15.484,43.366 15.484,45.657 15.484,51.134 17.773,51.134 "
     transform="translate(15.356446,11.772177)"
     style="fill:#017FFD" /><path
     d="m 64.103446,16.364177 -9.163,0 0,2.291 8.017,0 0,9.994 -2.849,0 0.596,-1.452 c 0.022,-0.054 0.008,-0.116 -0.034,-0.155 -0.043,-0.04 -0.105,-0.049 -0.158,-0.024 l -5.332,2.635 c -0.054,0.026 -0.088,0.08 -0.088,0.14 0,0.059 0.034,0.114 0.088,0.14 l 5.332,2.635 c 0.053,0.026 0.115,0.016 0.158,-0.024 0.042,-0.04 0.056,-0.101 0.034,-0.156 l -0.596,-1.451 3.994,0 c 0.633,0 1.145,-0.512 1.145,-1.145 l 0,-12.283 c 0.001,-0.632 -0.511,-1.145 -1.144,-1.145 z"
     id="path10"
     inkscape:connector-curvature="0"
     style="fill:#017FFD" /><path
     d="m 39.771446,30.940177 0,-2.291 -9.162,0 c -0.633,0 -1.145,0.512 -1.145,1.145 l 0,12.284 c 0,0.633 0.512,1.145 1.145,1.145 l 3.994,0 -0.596,1.452 c -0.022,0.054 -0.009,0.116 0.034,0.155 0.042,0.04 0.105,0.049 0.158,0.024 l 5.332,-2.635 c 0.054,-0.026 0.088,-0.08 0.088,-0.14 0,-0.06 -0.034,-0.114 -0.088,-0.14 l -5.332,-2.635 c -0.053,-0.026 -0.115,-0.016 -0.158,0.024 -0.043,0.039 -0.056,0.101 -0.034,0.155 l 0.596,1.452 -2.849,0 0,-9.994 8.017,0 z"
     id="path12"
     inkscape:connector-curvature="0"
     style="fill:#017FFD" /><g
     id="g14"
     transform="translate(15.356446,11.772177)"><path
       inkscape:connector-curvature="0"
       id="path16"
       d="m 36.292,0.75 -8.585,0 c -0.384,0 -0.695,0.311 -0.695,0.695 l 0,8.586 c 0,0.383 0.311,0.694 0.695,0.694 l 8.585,0 c 0.384,0 0.695,-0.311 0.695,-0.694 l 0,-8.586 c 0,-0.384 -0.311,-0.695 -0.695,-0.695 z m -1.596,7.684 -5.393,0 0,-5.393 5.393,0 0,5.393 z" /><path
       inkscape:connector-curvature="0"
       id="path18"
       d="m 36.292,12.989 -8.585,0 c -0.384,0 -0.695,0.311 -0.695,0.694 l 0,8.586 c 0,0.384 0.311,0.695 0.695,0.695 l 8.585,0 c 0.384,0 0.695,-0.311 0.695,-0.695 l 0,-8.586 c 0,-0.383 -0.311,-0.694 -0.695,-0.694 z m -1.596,7.683 -5.393,0 0,-5.393 5.393,0 0,5.393 z" /><path
       inkscape:connector-curvature="0"
       id="path20"
       d="m 36.292,25.226 -8.585,0 c -0.384,0 -0.695,0.311 -0.695,0.694 l 0,8.586 c 0,0.383 0.311,0.694 0.695,0.694 l 8.585,0 c 0.384,0 0.695,-0.311 0.695,-0.694 l 0,-8.586 c 0,-0.383 -0.311,-0.694 -0.695,-0.694 z m -1.596,7.684 -5.393,0 0,-5.393 5.393,0 0,5.393 z" /></g><g
     id="g22"
     transform="translate(15.356446,11.772177)"><path
       inkscape:connector-curvature="0"
       id="path24"
       d="m 20.921,53.276 -8.585,0 c -0.384,0 -0.695,0.311 -0.695,0.694 l 0,8.586 c 0,0.383 0.311,0.694 0.695,0.694 l 8.585,0 c 0.384,0 0.695,-0.311 0.695,-0.694 l 0,-8.586 c 0,-0.383 -0.311,-0.694 -0.695,-0.694 z m -1.596,7.683 -5.393,0 0,-5.393 5.393,0 0,5.393 z" /><path
       inkscape:connector-curvature="0"
       id="path26"
       d="m 36.292,53.276 -8.585,0 c -0.384,0 -0.695,0.311 -0.695,0.694 l 0,8.586 c 0,0.383 0.311,0.694 0.695,0.694 l 8.585,0 c 0.384,0 0.695,-0.311 0.695,-0.694 l 0,-8.586 c 0,-0.383 -0.311,-0.694 -0.695,-0.694 z m -1.596,7.683 -5.393,0 0,-5.393 5.393,0 0,5.393 z" /><path
       inkscape:connector-curvature="0"
       id="path28"
       d="m 51.664,53.276 -8.585,0 c -0.384,0 -0.695,0.311 -0.695,0.694 l 0,8.586 c 0,0.383 0.311,0.694 0.695,0.694 l 8.585,0 c 0.384,0 0.695,-0.311 0.695,-0.694 l 0,-8.586 c 0,-0.383 -0.311,-0.694 -0.695,-0.694 z m -1.596,7.683 -5.393,0 0,-5.393 5.393,0 0,5.393 z" /></g><text
     x="33.382763"
     y="80.97094"
     font-size="5px"
     font-weight="bold"
     id="text30"
     style="font-weight:bold;font-size:2.44189191px;font-family:'Helvetica Neue', Helvetica, Arial-Unicode, Arial, Sans-serif;fill:#017FFD;">Created by Arafat Uddin</text>
<text
     x="34.707176"
     y="83.743935"
     font-size="5px"
     font-weight="bold"
     id="text32"
     style="font-weight:bold;font-size:2.44189191px;font-family:'Helvetica Neue', Helvetica, Arial-Unicode, Arial, Sans-serif;fill:#017FFD;">from the Noun Project</text>
</svg>