<?xml version="1.0" encoding="UTF-8" standalone="no"?>
<svg
   xmlns:i="http://ns.adobe.com/AdobeIllustrator/10.0/"
   xmlns:dc="http://purl.org/dc/elements/1.1/"
   xmlns:cc="http://creativecommons.org/ns#"
   xmlns:rdf="http://www.w3.org/1999/02/22-rdf-syntax-ns#"
   xmlns:svg="http://www.w3.org/2000/svg"
   xmlns="http://www.w3.org/2000/svg"
   xmlns:sodipodi="http://sodipodi.sourceforge.net/DTD/sodipodi-0.dtd"
   xmlns:inkscape="http://www.inkscape.org/namespaces/inkscape"
   version="1.1"
   x="0px"
   y="0px"
   viewBox="0 0 125 125"
   xml:space="preserve"
   id="svg2"
   inkscape:version="0.91 r13725"
   sodipodi:docname="noun_Share_2020990_blue.svg"
   width="125"
   height="125"><metadata
     id="metadata24"><rdf:RDF><cc:Work
         rdf:about=""><dc:format>image/svg+xml</dc:format><dc:type
           rdf:resource="http://purl.org/dc/dcmitype/StillImage" /><dc:title></dc:title></cc:Work></rdf:RDF></metadata><defs
     id="defs22" /><sodipodi:namedview
     pagecolor="#ffffff"
     bordercolor="#666666"
     borderopacity="1"
     objecttolerance="10"
     gridtolerance="10"
     guidetolerance="10"
     inkscape:pageopacity="0"
     inkscape:pageshadow="2"
     inkscape:window-width="1640"
     inkscape:window-height="831"
     id="namedview20"
     showgrid="false"
     inkscape:zoom="2.6700352"
     inkscape:cx="-29.9922"
     inkscape:cy="31.62831"
     inkscape:window-x="0"
     inkscape:window-y="0"
     inkscape:window-maximized="0"
     inkscape:current-layer="g6" /><g
     id="g6"
     i:extraneous="self"
     transform="translate(16,4)"><path
       d="m 73.3,37.7 -1.8,-0.5 0,-5.2 c 0,-0.9 -0.8,-1.7 -1.7,-1.7 l -7,0 c -2.1,-3.4 -3.6,-5.7 -6.5,-5.7 l -12.6,0 c -2.9,0 -4.4,2.2 -6.5,5.7 l -6.9,0 c -1,0 -1.7,0.8 -1.7,1.7 l 0,5.2 -1.9,0.5 c -2.2,0.6 -3.5,2.8 -2.9,5 0.5,2.1 2.7,3.4 4.8,3 l 0,18.7 c 0,0.9 0.8,1.7 1.7,1.7 l 9.4,0 -3.3,26.2 c -0.3,2.6 1.5,4.9 4.1,5.3 0.2,0 0.4,0 0.6,0 2.4,0 4.4,-1.7 4.7,-4.1 l 3.4,-27.5 1.7,0 3.4,27.4 c 0.3,2.4 2.3,4.1 4.7,4.1 0.2,0 0.4,0 0.6,0 2.6,-0.3 4.4,-2.7 4.1,-5.3 L 60.4,66 l 9.4,0 c 1,0 1.7,-0.8 1.7,-1.7 l 0,-18.7 c 0.3,0.1 0.5,0.1 0.8,0.1 1.8,0 3.5,-1.2 4,-3.1 0.5,-2.1 -0.8,-4.4 -3,-4.9 z m -5.3,24.9 -36,0 0,-28.9 36,0 0,28.9 z"
       id="path10"
       inkscape:connector-curvature="0" /><circle
       cx="50"
       cy="12.3"
       r="9.8000002"
       id="circle12" /><path
       d="m 43.6,51.7 c 1,0 1.8,-0.4 2.5,-1 l 5.5,2.9 c 0,0.2 0,0.4 0,0.6 0,2 1.6,3.6 3.6,3.6 2,0 3.6,-1.6 3.6,-3.6 0,-2 -1.6,-3.6 -3.6,-3.6 -1,0 -1.8,0.4 -2.5,1 l -5.5,-2.9 c 0,-0.2 0,-0.4 0,-0.6 0,-0.2 0,-0.4 0,-0.6 l 5.5,-2.9 c 0.6,0.6 1.5,1 2.5,1 2,0 3.6,-1.6 3.6,-3.6 0,-2 -1.6,-3.6 -3.6,-3.6 -2,0 -3.6,1.6 -3.6,3.6 0,0.2 0,0.4 0,0.6 l -5.6,3 c -0.6,-0.6 -1.5,-1 -2.5,-1 -2,0 -3.6,1.6 -3.6,3.6 0.1,1.9 1.7,3.5 3.7,3.5 z"
       id="path14"
       inkscape:connector-curvature="0"
       style="fill:#017FFD" /></g><text
     x="44.059624"
     y="110.85303"
     font-size="5px"
     font-weight="bold"
     id="text16"
     style="font-weight:bold;font-size:3.43096232px;font-family:'Helvetica Neue', Helvetica, Arial-Unicode, Arial, Sans-serif;fill:#017FFD;">Created by Adrien Coquet</text>
<text
     x="46.804394"
     y="114.284"
     font-size="5px"
     font-weight="bold"
     id="text18"
     style="font-weight:bold;font-size:3.43096232px;font-family:'Helvetica Neue', Helvetica, Arial-Unicode, Arial, Sans-serif;fill:#017FFD;">from the Noun Project</text>
</svg>