<svg xmlns="http://www.w3.org/2000/svg" xmlns:xlink="http://www.w3.org/1999/xlink" version="1.1" x="0px" y="0px" viewBox="0 0 100 125" enable-background="new 0 0 100 100" xml:space="preserve"><path d="M92.1,5L80,7.2c-0.1-0.6-0.4-1.2-0.9-1.7c-0.6-0.5-1.3-0.7-2-0.5l-22,4l-3.3-3.3c-0.6-0.6-1.5-0.9-2.3-0.7l-42.5,10  C5.8,15.3,5,16.3,5,17.5v65c0,1.2,0.9,2.2,2.1,2.5l55,10c0.1,0,0.3,0,0.4,0c0.6,0,1.1-0.2,1.6-0.6c0.5-0.4,0.8-1,0.9-1.7L77.1,95  c0.1,0,0.3,0,0.4,0c0.6,0,1.1-0.2,1.6-0.6c0.5-0.4,0.8-1,0.9-1.7L92.1,95c0.1,0,0.3,0,0.4,0c0.6,0,1.1-0.2,1.6-0.6  c0.6-0.5,0.9-1.2,0.9-1.9v-85c0-0.7-0.3-1.4-0.9-1.9C93.5,5.1,92.8,4.9,92.1,5z M50,11l9,9h-9V11z M60,89.5l-50-9.1V19.5l35-8.2  v11.3c0,1.4,1.1,2.5,2.5,2.5H60V89.5z M75,89.5l-10-1.8V20c0-0.7-0.3-1.3-0.7-1.8l-4.9-4.9L75,10.5V89.5z M90,89.5l-10-1.8V12.3  l10-1.8V89.5z"/><path d="M45,50c0-8.3-6.7-15-15-15s-15,6.7-15,15s6.7,15,15,15c3.2,0,6.2-1,8.7-2.8l12.1,12.1c0.5,0.5,1.1,0.7,1.8,0.7  s1.3-0.2,1.8-0.7c1-1,1-2.6,0-3.5L42.2,58.7C44,56.2,45,53.2,45,50z M30,60c-5.5,0-10-4.5-10-10s4.5-10,10-10s10,4.5,10,10  S35.5,60,30,60z"/><text x="0" y="115" fill="#000000" font-size="5px" font-weight="bold" font-family="'Helvetica Neue', Helvetica, Arial-Unicode, Arial, Sans-serif">Created by Arthur Shlain</text><text x="0" y="120" fill="#000000" font-size="5px" font-weight="bold" font-family="'Helvetica Neue', Helvetica, Arial-Unicode, Arial, Sans-serif">from the Noun Project</text></svg>