<?xml version="1.0" encoding="UTF-8" standalone="no"?>
<svg
   xmlns:dc="http://purl.org/dc/elements/1.1/"
   xmlns:cc="http://creativecommons.org/ns#"
   xmlns:rdf="http://www.w3.org/1999/02/22-rdf-syntax-ns#"
   xmlns:svg="http://www.w3.org/2000/svg"
   xmlns="http://www.w3.org/2000/svg"
   xmlns:sodipodi="http://sodipodi.sourceforge.net/DTD/sodipodi-0.dtd"
   xmlns:inkscape="http://www.inkscape.org/namespaces/inkscape"
   version="1.1"
   x="0px"
   y="0px"
   viewBox="0 0 82.5 82.5"
   enable-background="new 0 0 66 66"
   xml:space="preserve"
   id="svg2"
   inkscape:version="0.91 r13725"
   sodipodi:docname="noun_RELATIONAL DATABASE_1875885_blue.svg"
   width="82.5"
   height="82.5"><metadata
     id="metadata50"><rdf:RDF><cc:Work
         rdf:about=""><dc:format>image/svg+xml</dc:format><dc:type
           rdf:resource="http://purl.org/dc/dcmitype/StillImage" /><dc:title /></cc:Work></rdf:RDF></metadata><defs
     id="defs48" /><sodipodi:namedview
     pagecolor="#ffffff"
     bordercolor="#666666"
     borderopacity="1"
     objecttolerance="10"
     gridtolerance="10"
     guidetolerance="10"
     inkscape:pageopacity="0"
     inkscape:pageshadow="2"
     inkscape:window-width="1705"
     inkscape:window-height="903"
     id="namedview46"
     showgrid="false"
     inkscape:zoom="2.8606061"
     inkscape:cx="-29.713983"
     inkscape:cy="44.745763"
     inkscape:window-x="0"
     inkscape:window-y="0"
     inkscape:window-maximized="0"
     inkscape:current-layer="svg2" /><g
     id="g6"
     transform="translate(6,6)"><path
       inkscape:connector-curvature="0"
       id="path8"
       d="M 64.9,4 C 64.9,2.9 64.2,1.9 63.3,1.4 62.9,1.1 62.4,1 61.9,1 l 0,0 -46.4,0 0,0 c -1.6,0 -3,1.3 -3,3 l 0,28 C 6,32.1 1.1,34.5 1.1,37.6 l 0,21.8 c 0,3.2 5.1,5.6 11.9,5.6 6.8,0 11.9,-2.4 11.9,-5.6 l 0,-6.1 36.9,0 c 1.6,0 3,-1.3 3,-3 l 0,-41.1 c 0,0 0,0 0,0 l 0,-5.2 z m -3,-1 c 0.2,0 0.3,0.1 0.5,0.1 0.3,0.2 0.5,0.5 0.5,0.9 l 0,4.2 -48.3,0 0,-4.2 c 0,-0.5 0.4,-1 1,-1 L 61.9,3 Z M 23,44.9 c 0,1.5 -3.8,3.6 -9.9,3.6 -6.1,0 -9.9,-2.1 -9.9,-3.6 l 0,-4 c 2.1,1.5 5.7,2.4 9.9,2.4 4.2,0 7.8,-0.9 9.9,-2.4 l 0,4 z M 3.1,48 c 2.1,1.5 5.7,2.4 9.9,2.4 4.2,0 7.8,-0.9 9.9,-2.4 l 0,4.6 c 0,0 0,0 0,0 0,1.5 -3.8,3.6 -9.9,3.6 -6.1,0 -9.9,-2.1 -9.9,-3.6 L 3.1,48 Z M 25,37.6 c 0,-3 -4.4,-5.2 -10.4,-5.6 l 0,-21.8 23.2,0 0,41.1 -12.8,0 0,-13.7 z M 13,34 c 6.1,0 9.9,2.1 9.9,3.6 0,0 0,0 0,0 l 0,0 c 0,1.5 -3.8,3.6 -9.9,3.6 C 6.9,41.2 3.1,39.1 3.1,37.6 3.1,36.1 6.9,34 13,34 Z m 0,29 C 6.9,63 3.1,60.9 3.1,59.4 l 0,-3.5 c 2.1,1.5 5.7,2.4 9.9,2.4 4.2,0 7.8,-0.9 9.9,-2.4 l 0,3.5 C 23,60.9 19.2,63 13,63 Z m 48.9,-11.7 -22.2,0 0,-41.1 23.2,0 0,40.1 c 0,0.6 -0.5,1 -1,1 z" /></g><g
     id="g10"
     transform="translate(6,6)"
     style="fill:#000000;fill-opacity:1.0"><path
       inkscape:connector-curvature="0"
       id="path12"
       d="m 36.6,6.6 22.7,0 c 0.6,0 1,-0.4 1,-1 0,-0.6 -0.4,-1 -1,-1 l -22.7,0 c -0.6,0 -1,0.4 -1,1 0,0.6 0.5,1 1,1 z"
       style="fill:#000000;fill-opacity:1.0" /></g><g
     id="g14"
     transform="translate(6,6)"
     style="fill:#000000;fill-opacity:1.0"><path
       inkscape:connector-curvature="0"
       id="path16"
       d="m 18.2,6.6 1.2,0 c 0.6,0 1,-0.4 1,-1 0,-0.6 -0.4,-1 -1,-1 l -1.2,0 c -0.6,0 -1,0.4 -1,1 0,0.6 0.4,1 1,1 z"
       style="fill:#000000;fill-opacity:1.0" /></g><g
     id="g18"
     transform="translate(6,6)"
     style="fill:#000000;fill-opacity:1.0"><path
       inkscape:connector-curvature="0"
       id="path20"
       d="m 22.9,6.6 1.2,0 c 0.6,0 1,-0.4 1,-1 0,-0.6 -0.4,-1 -1,-1 l -1.2,0 c -0.6,0 -1,0.4 -1,1 0,0.6 0.4,1 1,1 z"
       style="fill:#000000;fill-opacity:1.0" /></g><g
     id="g22"
     transform="translate(6,6)"
     style="fill:#000000;fill-opacity:1.0"><path
       inkscape:connector-curvature="0"
       id="path24"
       d="m 27.6,6.6 1.2,0 c 0.6,0 1,-0.4 1,-1 0,-0.6 -0.4,-1 -1,-1 l -1.2,0 c -0.6,0 -1,0.4 -1,1 0,0.6 0.5,1 1,1 z"
       style="fill:#000000;fill-opacity:1.0" /></g><g
     id="g26"
     transform="translate(6,6)"
     style="fill:#017FFD"><path
       inkscape:connector-curvature="0"
       id="path28"
       d="m 59.2,14.5 -4.6,0 c -0.6,0 -1,0.4 -1,1 l 0,2 -2.6,0 c -0.6,0 -1,0.4 -1,1 l 0,11.3 -1.6,0 0,-2 c 0,-0.6 -0.4,-1 -1,-1 l -4.6,0 c -0.6,0 -1,0.4 -1,1 l 0,6 c 0,0.6 0.4,1 1,1 l 4.6,0 c 0.6,0 1,-0.4 1,-1 l 0,-2 1.6,0 0,11.3 c 0,0.6 0.4,1 1,1 l 2.6,0 0,2 c 0,0.6 0.4,1 1,1 l 4.6,0 c 0.6,0 1,-0.4 1,-1 l 0,-6 c 0,-0.6 -0.4,-1 -1,-1 l -4.6,0 c -0.6,0 -1,0.4 -1,1 l 0,2 -1.6,0 0,-10.3 1.6,0 0,2 c 0,0.6 0.4,1 1,1 l 4.6,0 c 0.6,0 1,-0.4 1,-1 l 0,-6 c 0,-0.6 -0.4,-1 -1,-1 l -4.6,0 c -0.6,0 -1,0.4 -1,1 l 0,2 -1.6,0 0,-10.4 1.6,0 0,2 c 0,0.6 0.4,1 1,1 l 4.6,0 c 0.6,0 1,-0.4 1,-1 l 0,-6 c 0,-0.5 -0.4,-0.9 -1,-0.9 z m -12.9,18.3 -2.6,0 0,-4 2.6,0 0,4 z m 9.3,8.3 2.6,0 0,4 -2.6,0 0,-4 z m 0,-12.3 2.6,0 0,4 -2.6,0 0,-4 z m 2.6,-8.4 -2.6,0 0,-4 2.6,0 0,4 z"
       style="fill:#017FFD" /></g><g
     id="g30"
     transform="translate(6,6)"
     style="fill:#017FFD"><path
       inkscape:connector-curvature="0"
       id="path32"
       d="m 17.9,16.5 16.5,0 c 0.6,0 1,-0.4 1,-1 0,-0.6 -0.4,-1 -1,-1 l -16.5,0 c -0.6,0 -1,0.4 -1,1 0,0.5 0.5,1 1,1 z"
       style="fill:#017FFD" /></g><g
     id="g34"
     transform="translate(6,6)"
     style="fill:#017FFD"><path
       inkscape:connector-curvature="0"
       id="path36"
       d="m 34.4,21 -16.5,0 c -0.6,0 -1,0.4 -1,1 0,0.6 0.4,1 1,1 l 16.5,0 c 0.6,0 1,-0.4 1,-1 0,-0.6 -0.5,-1 -1,-1 z"
       style="fill:#017FFD" /></g><g
     id="g38"
     transform="translate(6,6)"
     style="fill:#017FFD"><path
       inkscape:connector-curvature="0"
       id="path40"
       d="m 34.4,27.5 -16.5,0 c -0.6,0 -1,0.4 -1,1 0,0.6 0.4,1 1,1 l 16.5,0 c 0.6,0 1,-0.4 1,-1 0,-0.6 -0.5,-1 -1,-1 z"
       style="fill:#017FFD" /></g><text
     x="28.079498"
     y="75.470711"
     font-size="5px"
     font-weight="bold"
     id="text42"
     style="font-weight:bold;font-size:2.90794969px;font-family:'Helvetica Neue', Helvetica, Arial-Unicode, Arial, Sans-serif;fill:#017ffd">Created by ProSymbols</text>
<text
     x="29.242678"
     y="78.378662"
     font-size="5px"
     font-weight="bold"
     id="text44"
     style="font-weight:bold;font-size:2.90794969px;font-family:'Helvetica Neue', Helvetica, Arial-Unicode, Arial, Sans-serif;fill:#017ffd">from the Noun Project</text>
</svg>