<svg xmlns="http://www.w3.org/2000/svg" xmlns:xlink="http://www.w3.org/1999/xlink" version="1.1" x="0px" y="0px" viewBox="0 0 200 250" enable-background="new 0 0 200 200" xml:space="preserve"><g><g><g><polygon fill="#000000" points="200,199.585 80.302,199.585 80.302,192.782 193.197,192.782 193.197,33.455 166.631,6.884      80.302,6.884 80.302,0.081 169.448,0.081 200,30.636    "/><polygon fill="#000000" points="196.596,35.44 164.639,35.44 164.639,3.482 171.441,3.482 171.441,28.637 196.596,28.637    "/></g><g><g><path fill="#000000" d="M115.395,179.056h-21.92v-21.92h21.92V179.056z M100.277,172.253h8.314v-8.314h-8.314V172.253z"/><rect x="123.331" y="157.136" fill="#000000" width="30.235" height="6.803"/><rect x="123.331" y="172.253" fill="#000000" width="60.47" height="6.803"/></g><g><path fill="#000000" d="M115.395,148.821h-21.92v-21.92h21.92V148.821z M100.277,142.019h8.314v-8.314h-8.314V142.019z"/><rect x="123.331" y="126.901" fill="#000000" width="30.235" height="6.803"/><rect x="123.331" y="142.019" fill="#000000" width="60.47" height="6.803"/></g><g><rect x="123.331" y="96.667" fill="#000000" width="30.235" height="6.803"/><rect x="123.331" y="111.784" fill="#000000" width="60.47" height="6.803"/><polygon fill="#000000" points="102.377,118.383 92.195,108.196 97.004,103.387 102.377,108.761 111.865,99.273       116.675,104.086     "/></g><g><rect x="123.331" y="66.432" fill="#000000" width="30.235" height="6.803"/><rect x="123.331" y="81.549" fill="#000000" width="60.47" height="6.803"/><polygon fill="#000000" points="102.377,88.148 92.195,77.962 97.004,73.152 102.377,78.526 111.865,69.039 116.675,73.852           "/></g><g><rect x="123.331" y="36.196" fill="#000000" width="30.235" height="6.803"/><rect x="123.331" y="51.314" fill="#000000" width="60.47" height="6.803"/><polygon fill="#000000" points="102.377,57.914 92.195,47.727 97.004,42.917 102.377,48.291 111.865,38.805 116.675,43.616           "/></g></g><g><rect x="93.097" y="21.079" fill="#000000" width="7.561" height="6.803"/><rect x="108.216" y="21.079" fill="#000000" width="7.557" height="6.803"/><rect x="123.331" y="21.079" fill="#000000" width="7.559" height="6.803"/></g></g><g><path fill="#000000" d="M41.852,46.714c-12.869,0-23.339-10.47-23.339-23.339c0-12.869,10.47-23.338,23.339-23.338    c12.869,0,23.339,10.47,23.339,23.338C65.19,36.245,54.721,46.714,41.852,46.714z M41.852,6.84    c-9.118,0-16.536,7.418-16.536,16.536c0,9.119,7.418,16.536,16.536,16.536s16.536-7.417,16.536-16.536    C58.388,14.258,50.969,6.84,41.852,6.84z"/><rect x="38.45" y="140.152" fill="#000000" width="6.803" height="59.811"/><rect x="17.088" y="117.367" fill="#000000" width="6.803" height="82.596"/><rect x="59.812" y="117.367" fill="#000000" width="6.803" height="82.596"/><path fill="#000000" d="M83.703,132.16h-20.49v-6.804H76.9V78.916c0-4.795-1.869-9.307-5.26-12.699    c-3.393-3.393-7.902-5.261-12.699-5.261h-2.076L41.852,75.972L26.837,60.955h-2.076c-4.796,0-9.306,1.869-12.699,5.261    c-3.391,3.393-5.26,7.904-5.26,12.699v46.441H20.49v6.804H0V78.916c0-6.612,2.576-12.832,7.253-17.509    c4.677-4.679,10.895-7.255,17.509-7.255h4.893l12.197,12.197l12.197-12.197h4.893c6.614,0,12.832,2.576,17.509,7.255    c4.677,4.677,7.253,10.896,7.253,17.509V132.16z"/><g><rect x="38.45" y="81.765" fill="#000000" width="6.803" height="7.559"/><rect x="38.45" y="96.882" fill="#000000" width="6.803" height="7.559"/></g></g></g><text x="0" y="215" fill="#000000" font-size="5px" font-weight="bold" font-family="'Helvetica Neue', Helvetica, Arial-Unicode, Arial, Sans-serif">Created by Maxim Basinski</text><text x="0" y="220" fill="#000000" font-size="5px" font-weight="bold" font-family="'Helvetica Neue', Helvetica, Arial-Unicode, Arial, Sans-serif">from the Noun Project</text></svg>