<svg xmlns="http://www.w3.org/2000/svg" xmlns:xlink="http://www.w3.org/1999/xlink" version="1.1" x="0px" y="0px" viewBox="0 0 100 125" enable-background="new 0 0 100 100" xml:space="preserve"><path d="M88.019,59.576l-0.037-11.612c-0.002-0.551-0.449-0.997-1-0.997h-8.358v-2.284c0-0.368-0.202-0.706-0.525-0.88  c-0.323-0.175-0.718-0.158-1.024,0.045l-4.985,3.284c-0.241,0.159-0.392,0.413-0.433,0.694V34.265c0-1.104-0.896-2-2-2H53.44  c0.043-0.044,0.086-0.089,0.121-0.142l3.284-4.985c0.202-0.307,0.22-0.701,0.046-1.024c-0.175-0.324-0.513-0.526-0.881-0.526h-2.284  v-6.613c3.339-0.487,5.914-3.362,5.914-6.834c0-3.813-3.102-6.914-6.914-6.914s-6.914,3.102-6.914,6.914  c0,3.472,2.575,6.347,5.914,6.834v6.613h-2.284c-0.368,0-0.706,0.202-0.881,0.526c-0.174,0.324-0.156,0.717,0.046,1.024l3.284,4.985  c0.035,0.053,0.078,0.097,0.121,0.142H36.409c-1.104,0-2,0.896-2,2V46.4c-0.074-0.083-0.158-0.159-0.259-0.214l-5.979-3.284  c-0.31-0.17-0.687-0.166-0.99,0.016c-0.305,0.18-0.491,0.507-0.491,0.861v2.229h-6.88c-0.487-3.339-3.361-5.915-6.833-5.915  c-3.813,0-6.914,3.102-6.914,6.915s3.102,6.915,6.914,6.915c3.472,0,6.346-2.575,6.833-5.915h6.88v2.339  c0,0.354,0.184,0.684,0.491,0.861c0.429,0.247,0.84,0.098,0.99,0.016l5.979-3.284c0.101-0.056,0.184-0.131,0.259-0.214v3.462  l-3.166,5.458c-0.3,0.519-0.334,1.134-0.132,1.687c-0.162-0.058-0.337-0.078-0.511-0.047l-5.642,0.998  c-0.367,0.065-0.668,0.329-0.78,0.685c-0.111,0.355-0.017,0.744,0.247,1.007l1.604,1.603l-6.818,6.162  c-0.209,0.189-0.329,0.459-0.329,0.742v3.383c-3.339,0.487-5.914,3.362-5.914,6.834c0,3.813,3.102,6.915,6.914,6.915  s6.915-3.102,6.915-6.915c0-3.472-2.576-6.347-5.915-6.834v-2.939l6.564-5.932l1.625,1.625c0.19,0.19,0.446,0.293,0.707,0.293  c0.101,0,0.202-0.015,0.301-0.046c0.355-0.112,0.619-0.413,0.684-0.78l0.997-5.642c0.013-0.073,0.015-0.146,0.012-0.219  c0.343,0.262,0.758,0.424,1.204,0.424h19.005c-0.026,0.03-0.066,0.043-0.089,0.077l-3.284,4.985  c-0.202,0.307-0.22,0.701-0.046,1.024c0.175,0.324,0.513,0.526,0.881,0.526h2.284v14.765c-3.339,0.487-5.914,3.362-5.914,6.834  c0,3.813,3.102,6.914,6.914,6.914s6.914-3.102,6.914-6.914c0-3.472-2.575-6.347-5.914-6.834V66.26h2.284  c0.368,0,0.706-0.202,0.881-0.526c0.174-0.324,0.156-0.717-0.046-1.024l-3.284-4.985c-0.022-0.034-0.062-0.047-0.089-0.077h19.619  c0.007,0.001,0.015,0,0.02,0c1.105,0,2-0.896,2-2c0-0.46-0.155-0.884-0.416-1.222l-3.038-5.24v-3.079  c0.04,0.281,0.191,0.536,0.433,0.694l4.985,3.284c0.166,0.11,0.697,0.248,1.024,0.045c0.312-0.193,0.525-0.513,0.525-0.88v-2.284  h7.361l0.034,10.611c-3.337,0.489-5.91,3.363-5.91,6.833c0,3.813,3.102,6.915,6.914,6.915s6.914-3.102,6.914-6.915  C93.938,62.937,91.36,60.061,88.019,59.576z M49.812,12.141c0-1.607,1.308-2.914,2.914-2.914s2.914,1.307,2.914,2.914  s-1.308,2.915-2.914,2.915S49.812,13.748,49.812,12.141z M51.298,27.588h2.855l-1.428,2.167L51.298,27.588z M12.977,49.921  c-1.606,0-2.914-1.308-2.914-2.915s1.308-2.915,2.914-2.915s2.914,1.308,2.914,2.915S14.583,49.921,12.977,49.921z M28.689,48.656  v-3.188l2.902,1.594L28.689,48.656z M22.796,79.697c0,1.607-1.308,2.915-2.915,2.915c-1.606,0-2.914-1.308-2.914-2.915  s1.308-2.915,2.914-2.915C21.488,76.783,22.796,78.09,22.796,79.697z M29.126,62.846l-1.93-1.929l2.344-0.415L29.126,62.846z   M55.64,87.859c0,1.607-1.308,2.914-2.914,2.914s-2.914-1.307-2.914-2.914s1.308-2.915,2.914-2.915S55.64,86.252,55.64,87.859z   M54.153,64.26h-2.855l1.428-2.167L54.153,64.26z M67.656,36.265v14.459H38.409V36.265H67.656z M36.445,55.648l1.694-2.92  c0.001-0.001,0.001-0.002,0.001-0.003h29.784c0.001,0.001,0.001,0.002,0.001,0.003l1.693,2.921H36.445z M76.624,49.394l-2.168-1.428  l2.168-1.428V49.394z M87.023,69.325c-1.606,0-2.914-1.308-2.914-2.915s1.308-2.915,2.914-2.915s2.914,1.308,2.914,2.915  S88.63,69.325,87.023,69.325z M47.336,48.694h4.25c0.276,0,0.5-0.224,0.5-0.5v-7.833c0-0.276-0.224-0.5-0.5-0.5h-4.25  c-0.276,0-0.5,0.224-0.5,0.5v7.833C46.836,48.471,47.06,48.694,47.336,48.694z M47.836,40.861h3.25v6.833h-3.25V40.861z   M61.621,48.694h4.25c0.276,0,0.5-0.224,0.5-0.5v-6.833c0-0.276-0.224-0.5-0.5-0.5h-4.25c-0.276,0-0.5,0.224-0.5,0.5v6.833  C61.121,48.471,61.345,48.694,61.621,48.694z M62.121,41.861h3.25v5.833h-3.25V41.861z M40.194,48.694h4.25  c0.276,0,0.5-0.224,0.5-0.5v-3.833c0-0.276-0.224-0.5-0.5-0.5h-4.25c-0.276,0-0.5,0.224-0.5,0.5v3.833  C39.694,48.471,39.918,48.694,40.194,48.694z M40.694,44.861h3.25v2.833h-3.25V44.861z M54.479,48.694h4.25  c0.276,0,0.5-0.224,0.5-0.5v-2.833c0-0.276-0.224-0.5-0.5-0.5h-4.25c-0.276,0-0.5,0.224-0.5,0.5v2.833  C53.979,48.471,54.202,48.694,54.479,48.694z M54.979,45.861h3.25v1.833h-3.25V45.861z"/><text x="0" y="115" fill="#000000" font-size="5px" font-weight="bold" font-family="'Helvetica Neue', Helvetica, Arial-Unicode, Arial, Sans-serif">Created by H Alberto Gongora</text><text x="0" y="120" fill="#000000" font-size="5px" font-weight="bold" font-family="'Helvetica Neue', Helvetica, Arial-Unicode, Arial, Sans-serif">from the Noun Project</text></svg>