<svg xmlns="http://www.w3.org/2000/svg" xmlns:xlink="http://www.w3.org/1999/xlink" version="1.1" x="0px" y="0px" viewBox="0 0 64 80" enable-background="new 0 0 64 64" xml:space="preserve"><g><polygon points="46.227,43.366 33.145,43.366 33.145,37.889 30.855,37.889 30.855,43.366 17.773,43.366 15.484,43.366    15.484,45.657 15.484,51.134 17.773,51.134 17.773,45.657 30.855,45.657 30.855,51.134 33.145,51.134 33.145,45.657 46.227,45.657    46.227,51.134 48.516,51.134 48.516,45.657 48.516,43.366  "/><g><path d="M48.747,4.592h-9.163v2.291h8.017v9.994h-2.849l0.596-1.452c0.022-0.054,0.008-0.116-0.034-0.155    c-0.043-0.04-0.105-0.049-0.158-0.024l-5.332,2.635c-0.054,0.026-0.088,0.08-0.088,0.14c0,0.059,0.034,0.114,0.088,0.14    l5.332,2.635c0.053,0.026,0.115,0.016,0.158-0.024c0.042-0.04,0.056-0.101,0.034-0.156l-0.596-1.451h3.994    c0.633,0,1.145-0.512,1.145-1.145V5.737C49.892,5.105,49.38,4.592,48.747,4.592z"/><path d="M24.415,19.168v-2.291h-9.162c-0.633,0-1.145,0.512-1.145,1.145v12.284c0,0.633,0.512,1.145,1.145,1.145h3.994    l-0.596,1.452c-0.022,0.054-0.009,0.116,0.034,0.155c0.042,0.04,0.105,0.049,0.158,0.024l5.332-2.635    c0.054-0.026,0.088-0.08,0.088-0.14c0-0.06-0.034-0.114-0.088-0.14l-5.332-2.635c-0.053-0.026-0.115-0.016-0.158,0.024    c-0.043,0.039-0.056,0.101-0.034,0.155l0.596,1.452h-2.849v-9.994H24.415z"/></g><g><path d="M36.292,0.75h-8.585c-0.384,0-0.695,0.311-0.695,0.695v8.586c0,0.383,0.311,0.694,0.695,0.694h8.585    c0.384,0,0.695-0.311,0.695-0.694V1.445C36.987,1.061,36.676,0.75,36.292,0.75z M34.696,8.434h-5.393V3.041h5.393V8.434z"/><path d="M36.292,12.989h-8.585c-0.384,0-0.695,0.311-0.695,0.694v8.586c0,0.384,0.311,0.695,0.695,0.695h8.585    c0.384,0,0.695-0.311,0.695-0.695v-8.586C36.987,13.3,36.676,12.989,36.292,12.989z M34.696,20.672h-5.393v-5.393h5.393V20.672z"/><path d="M36.292,25.226h-8.585c-0.384,0-0.695,0.311-0.695,0.694v8.586c0,0.383,0.311,0.694,0.695,0.694h8.585    c0.384,0,0.695-0.311,0.695-0.694V25.92C36.987,25.537,36.676,25.226,36.292,25.226z M34.696,32.91h-5.393v-5.393h5.393V32.91z"/></g><g><path d="M20.921,53.276h-8.585c-0.384,0-0.695,0.311-0.695,0.694v8.586c0,0.383,0.311,0.694,0.695,0.694h8.585    c0.384,0,0.695-0.311,0.695-0.694V53.97C21.616,53.587,21.305,53.276,20.921,53.276z M19.325,60.959h-5.393v-5.393h5.393V60.959z"/><path d="M36.292,53.276h-8.585c-0.384,0-0.695,0.311-0.695,0.694v8.586c0,0.383,0.311,0.694,0.695,0.694h8.585    c0.384,0,0.695-0.311,0.695-0.694V53.97C36.987,53.587,36.676,53.276,36.292,53.276z M34.696,60.959h-5.393v-5.393h5.393V60.959z"/><path d="M51.664,53.276h-8.585c-0.384,0-0.695,0.311-0.695,0.694v8.586c0,0.383,0.311,0.694,0.695,0.694h8.585    c0.384,0,0.695-0.311,0.695-0.694V53.97C52.359,53.587,52.048,53.276,51.664,53.276z M50.068,60.959h-5.393v-5.393h5.393V60.959z"/></g></g><text x="0" y="79" fill="#000000" font-size="5px" font-weight="bold" font-family="'Helvetica Neue', Helvetica, Arial-Unicode, Arial, Sans-serif">Created by Arafat Uddin</text><text x="0" y="84" fill="#000000" font-size="5px" font-weight="bold" font-family="'Helvetica Neue', Helvetica, Arial-Unicode, Arial, Sans-serif">from the Noun Project</text></svg>