<?xml version="1.0" encoding="UTF-8" standalone="no"?>
<svg
   xmlns:dc="http://purl.org/dc/elements/1.1/"
   xmlns:cc="http://creativecommons.org/ns#"
   xmlns:rdf="http://www.w3.org/1999/02/22-rdf-syntax-ns#"
   xmlns:svg="http://www.w3.org/2000/svg"
   xmlns="http://www.w3.org/2000/svg"
   xmlns:sodipodi="http://sodipodi.sourceforge.net/DTD/sodipodi-0.dtd"
   xmlns:inkscape="http://www.inkscape.org/namespaces/inkscape"
   version="1.1"
   x="0px"
   y="0px"
   viewBox="0 0 300 300"
   enable-background="new 0 0 200 200"
   xml:space="preserve"
   id="svg2"
   inkscape:version="0.91 r13725"
   sodipodi:docname="noun_professional_skills_1248512_blue.svg"
   width="300"
   height="300"><metadata
     id="metadata90"><rdf:RDF><cc:Work
         rdf:about=""><dc:format>image/svg+xml</dc:format><dc:type
           rdf:resource="http://purl.org/dc/dcmitype/StillImage" /><dc:title></dc:title></cc:Work></rdf:RDF></metadata><defs
     id="defs88" /><sodipodi:namedview
     pagecolor="#ffffff"
     bordercolor="#666666"
     borderopacity="1"
     objecttolerance="10"
     gridtolerance="10"
     guidetolerance="10"
     inkscape:pageopacity="0"
     inkscape:pageshadow="2"
     inkscape:window-width="1739"
     inkscape:window-height="948"
     id="namedview86"
     showgrid="false"
     inkscape:zoom="0.944"
     inkscape:cx="-276.05932"
     inkscape:cy="135.59322"
     inkscape:window-x="0"
     inkscape:window-y="0"
     inkscape:window-maximized="0"
     inkscape:current-layer="g6" /><g
     id="g6"
     transform="translate(26,62)"><g
       id="g8"
       transform="translate(25.423729,-18.008475)"><polygon
         style="fill:#000000"
         id="polygon10"
         points="200,30.636 200,199.585 80.302,199.585 80.302,192.782 193.197,192.782 193.197,33.455 166.631,6.884 80.302,6.884 80.302,0.081 169.448,0.081 " /><polygon
         style="fill:#000000"
         id="polygon12"
         points="196.596,28.637 196.596,35.44 164.639,35.44 164.639,3.482 171.441,3.482 171.441,28.637 " /></g><g
       id="g14"
       style="fill:#017ffd"
       transform="translate(25.423729,-18.008475)"><g
         id="g16"
         style="fill:#017ffd"><path
           style="fill:#017ffd"
           inkscape:connector-curvature="0"
           id="path18"
           d="m 115.395,179.056 -21.92,0 0,-21.92 21.92,0 0,21.92 z m -15.118,-6.803 8.314,0 0,-8.314 -8.314,0 0,8.314 z" /><rect
           style="fill:#017ffd"
           id="rect20"
           height="6.803"
           width="30.235001"
           y="157.136"
           x="123.331" /><rect
           style="fill:#017ffd"
           id="rect22"
           height="6.803"
           width="60.470001"
           y="172.25301"
           x="123.331" /></g><g
         id="g24"
         style="fill:#017ffd"><path
           style="fill:#017ffd"
           inkscape:connector-curvature="0"
           id="path26"
           d="m 115.395,148.821 -21.92,0 0,-21.92 21.92,0 0,21.92 z m -15.118,-6.802 8.314,0 0,-8.314 -8.314,0 0,8.314 z" /><rect
           style="fill:#017ffd"
           id="rect28"
           height="6.803"
           width="30.235001"
           y="126.901"
           x="123.331" /><rect
           style="fill:#017ffd"
           id="rect30"
           height="6.803"
           width="60.470001"
           y="142.019"
           x="123.331" /></g><g
         id="g32"
         style="fill:#017ffd"><rect
           style="fill:#017ffd"
           id="rect34"
           height="6.803"
           width="30.235001"
           y="96.667"
           x="123.331" /><rect
           style="fill:#017ffd"
           id="rect36"
           height="6.803"
           width="60.470001"
           y="111.784"
           x="123.331" /><polygon
           style="fill:#017ffd"
           id="polygon38"
           points="116.675,104.086 102.377,118.383 92.195,108.196 97.004,103.387 102.377,108.761 111.865,99.273 " /></g><g
         id="g40"
         style="fill:#017ffd"><rect
           style="fill:#017ffd"
           id="rect42"
           height="6.803"
           width="30.235001"
           y="66.431999"
           x="123.331" /><rect
           style="fill:#017ffd"
           id="rect44"
           height="6.803"
           width="60.470001"
           y="81.549004"
           x="123.331" /><polygon
           style="fill:#017ffd"
           id="polygon46"
           points="116.675,73.852 102.377,88.148 92.195,77.962 97.004,73.152 102.377,78.526 111.865,69.039 " /></g><g
         id="g48"
         style="fill:#017ffd"><rect
           style="fill:#017ffd"
           id="rect50"
           height="6.803"
           width="30.235001"
           y="36.195999"
           x="123.331" /><rect
           style="fill:#017ffd"
           id="rect52"
           height="6.803"
           width="60.470001"
           y="51.313999"
           x="123.331" /><polygon
           style="fill:#017ffd"
           id="polygon54"
           points="116.675,43.616 102.377,57.914 92.195,47.727 97.004,42.917 102.377,48.291 111.865,38.805 " /></g></g><g
       id="g56"
       style="fill:#017ffd"
       transform="translate(25.423729,-18.008475)"><rect
         style="fill:#017ffd"
         id="rect58"
         height="6.803"
         width="7.5609999"
         y="21.079"
         x="93.097" /><rect
         style="fill:#017ffd"
         id="rect60"
         height="6.803"
         width="7.5570002"
         y="21.079"
         x="108.216" /><rect
         style="fill:#017ffd"
         id="rect62"
         height="6.803"
         width="7.559"
         y="21.079"
         x="123.331" /></g></g><g
     id="g64"
     transform="translate(51.423729,43.991525)"><path
       style="fill:#000000"
       inkscape:connector-curvature="0"
       id="path66"
       d="m 41.852,46.714 c -12.869,0 -23.339,-10.47 -23.339,-23.339 0,-12.869 10.47,-23.338 23.339,-23.338 12.869,0 23.339,10.47 23.339,23.338 -0.001,12.87 -10.47,23.339 -23.339,23.339 z m 0,-39.874 c -9.118,0 -16.536,7.418 -16.536,16.536 0,9.119 7.418,16.536 16.536,16.536 9.118,0 16.536,-7.417 16.536,-16.536 0,-9.118 -7.419,-16.536 -16.536,-16.536 z" /><rect
       style="fill:#000000"
       id="rect68"
       height="59.811001"
       width="6.803"
       y="140.15199"
       x="38.450001" /><rect
       style="fill:#000000"
       id="rect70"
       height="82.596001"
       width="6.803"
       y="117.367"
       x="17.087999" /><rect
       style="fill:#000000"
       id="rect72"
       height="82.596001"
       width="6.803"
       y="117.367"
       x="59.812" /><path
       style="fill:#000000"
       inkscape:connector-curvature="0"
       id="path74"
       d="m 83.703,132.16 -20.49,0 0,-6.804 13.687,0 0,-46.44 c 0,-4.795 -1.869,-9.307 -5.26,-12.699 -3.393,-3.393 -7.902,-5.261 -12.699,-5.261 l -2.076,0 -15.013,15.016 -15.015,-15.017 -2.076,0 c -4.796,0 -9.306,1.869 -12.699,5.261 -3.391,3.393 -5.26,7.904 -5.26,12.699 l 0,46.441 13.688,0 0,6.804 -20.49,0 0,-53.244 C 0,72.304 2.576,66.084 7.253,61.407 11.93,56.728 18.148,54.152 24.762,54.152 l 4.893,0 12.197,12.197 12.197,-12.197 4.893,0 c 6.614,0 12.832,2.576 17.509,7.255 4.677,4.677 7.253,10.896 7.253,17.509 l 0,53.244 z" /><g
       id="g76"><rect
         style="fill:#000000"
         id="rect78"
         height="7.559"
         width="6.803"
         y="81.764999"
         x="38.450001" /><rect
         style="fill:#000000"
         id="rect80"
         height="7.559"
         width="6.803"
         y="96.882004"
         x="38.450001" /></g></g><text
     x="92.737282"
     y="257.83954"
     font-size="5px"
     font-weight="bold"
     id="text82"
     style="font-weight:bold;font-size:10.46025085px;font-family:'Helvetica Neue', Helvetica, Arial-Unicode, Arial, Sans-serif;fill:#017ffd">Created by Maxim Basinski</text>
<text
     x="100.73728"
     y="268.2998"
     font-size="5px"
     font-weight="bold"
     id="text84"
     style="font-weight:bold;font-size:10.46025085px;font-family:'Helvetica Neue', Helvetica, Arial-Unicode, Arial, Sans-serif;fill:#017ffd">from the Noun Project</text>
</svg>