<?xml version="1.0" encoding="UTF-8" standalone="no"?>
<svg
   xmlns:dc="http://purl.org/dc/elements/1.1/"
   xmlns:cc="http://creativecommons.org/ns#"
   xmlns:rdf="http://www.w3.org/1999/02/22-rdf-syntax-ns#"
   xmlns:svg="http://www.w3.org/2000/svg"
   xmlns="http://www.w3.org/2000/svg"
   xmlns:sodipodi="http://sodipodi.sourceforge.net/DTD/sodipodi-0.dtd"
   xmlns:inkscape="http://www.inkscape.org/namespaces/inkscape"
   version="1.1"
   x="0px"
   y="0px"
   viewBox="0 0 150 150"
   enable-background="new 0 0 110 110"
   xml:space="preserve"
   id="svg2"
   inkscape:version="0.91 r13725"
   sodipodi:docname="noun_Cluster_Computing_1390758_blue.svg"
   width="150"
   height="150"><metadata
     id="metadata64"><rdf:RDF><cc:Work
         rdf:about=""><dc:format>image/svg+xml</dc:format><dc:type
           rdf:resource="http://purl.org/dc/dcmitype/StillImage" /><dc:title></dc:title></cc:Work></rdf:RDF></metadata><defs
     id="defs62" /><sodipodi:namedview
     pagecolor="#ffffff"
     bordercolor="#666666"
     borderopacity="1"
     objecttolerance="10"
     gridtolerance="10"
     guidetolerance="10"
     inkscape:pageopacity="0"
     inkscape:pageshadow="2"
     inkscape:window-width="946"
     inkscape:window-height="608"
     id="namedview60"
     showgrid="false"
     inkscape:zoom="1.7163636"
     inkscape:cx="54.115975"
     inkscape:cy="74.576271"
     inkscape:window-x="703"
     inkscape:window-y="197"
     inkscape:window-maximized="0"
     inkscape:current-layer="svg2" /><path
     inkscape:connector-curvature="0"
     id="path6"
     d="m 57.635593,96.016746 0,-7.894 c 0,-1.415 -0.517,-3.788 -3.979,-3.788 l -14.042,0 c -3.462,0 -3.979,2.373 -3.979,3.788 l 0,7.894 c 0,1.415 0.517,3.789 3.979,3.789 l 3.616,0 -0.595,1.823004 8,0 -0.594,-1.823004 3.616,0 c 3.461,0 3.978,-2.374 3.978,-3.789 z m -2,0 c 0,1.318 -0.521,1.789 -1.979,1.789 l -14.042,0 c -1.458,0 -1.979,-0.471 -1.979,-1.789 l 0,-7.894 c 0,-1.315 0.521,-1.788 1.979,-1.788 l 14.042,0 c 1.458,0 1.979,0.473 1.979,1.788 l 0,7.894 z" /><path
     inkscape:connector-curvature="0"
     id="path8"
     d="m 52.954593,87.385746 -12.638,0 c -1.312,0 -1.781,0.387 -1.781,1.462 l 0,6.445 c 0,1.077 0.469,1.461 1.781,1.461 l 12.638,0 c 1.312,0 1.781,-0.384 1.781,-1.461 l 0,-6.445 c 0,-1.075 -0.469,-1.462 -1.781,-1.462 z"
     style="fill:#017FFD" /><path
     inkscape:connector-curvature="0"
     id="path10"
     d="m 125.63559,96.016746 0,-7.894 c 0,-1.415 -0.517,-3.788 -3.979,-3.788 l -14.042,0 c -3.462,0 -3.979,2.373 -3.979,3.788 l 0,7.894 c 0,1.415 0.517,3.789 3.979,3.789 l 3.616,0 -0.595,1.823004 8,0 -0.595,-1.823004 3.616,0 c 3.462,0 3.979,-2.374 3.979,-3.789 z m -2,0 c 0,1.318 -0.521,1.789 -1.979,1.789 l -14.042,0 c -1.458,0 -1.979,-0.471 -1.979,-1.789 l 0,-7.894 c 0,-1.315 0.521,-1.788 1.979,-1.788 l 14.043,0 c 1.457,0 1.978,0.473 1.978,1.788 l 0,7.894 z" /><path
     inkscape:connector-curvature="0"
     id="path12"
     d="m 120.95459,87.385746 -12.637,0 c -1.313,0 -1.781,0.387 -1.781,1.462 l 0,6.445 c 0,1.077 0.469,1.461 1.781,1.461 l 12.638,0 c 1.312,0 1.78,-0.384 1.78,-1.461 l 0,-6.445 c 0,-1.075 -0.469,-1.462 -1.781,-1.462 z"
     style="fill:#017FFD" /><path
     inkscape:connector-curvature="0"
     id="path14"
     d="m 91.635593,96.016746 0,-7.894 c 0,-1.415 -0.517,-3.788 -3.979,-3.788 l -14.042,0 c -3.462,0 -3.979,2.373 -3.979,3.788 l 0,7.894 c 0,1.415 0.517,3.789 3.979,3.789 l 3.616,0 -0.595,1.823004 8,0 -0.595,-1.823004 3.616,0 c 3.462,0 3.979,-2.374 3.979,-3.789 z m -2,0 c 0,1.318 -0.521,1.789 -1.979,1.789 l -14.042,0 c -1.458,0 -1.979,-0.471 -1.979,-1.789 l 0,-7.894 c 0,-1.315 0.521,-1.788 1.979,-1.788 l 14.043,0 c 1.457,0 1.978,0.473 1.978,1.788 l 0,7.894 z" /><path
     inkscape:connector-curvature="0"
     id="path16"
     d="m 86.954593,87.385746 -12.637,0 c -1.313,0 -1.781,0.387 -1.781,1.462 l 0,6.445 c 0,1.077 0.469,1.461 1.781,1.461 l 12.638,0 c 1.312,0 1.78,-0.384 1.78,-1.461 l 0,-6.445 c 0,-1.075 -0.469,-1.462 -1.781,-1.462 z"
     style="fill:#017FFD" /><polygon
     id="polygon18"
     points="28,94.133 26,94.133 26,95.088 25,95.088 25,94.133 23,94.133 23,95.088 22,95.088 22,94.133 20,94.133 20,95.088 19,95.088 19,94.133 17,94.133 17,95.088 16,95.088 16,94.133 14,94.133 14,95.088 13,95.088 13,94.133 11,94.133 11,95.088 10,95.088 10,94.133 8,94.133 8,95.088 7,95.088 6,97 36,97 35,95.088 34,95.088 34,94.133 32,94.133 32,95.088 31,95.088 31,94.133 29,94.133 29,95.088 28,95.088 "
     transform="translate(25.635593,11.334746)" /><polygon
     id="polygon20"
     points="96,94.133 94,94.133 94,95.088 93,95.088 93,94.133 91,94.133 91,95.088 90,95.088 90,94.133 88,94.133 88,95.088 87,95.088 87,94.133 85,94.133 85,95.088 84,95.088 84,94.133 82,94.133 82,95.088 81,95.088 81,94.133 79,94.133 79,95.088 78,95.088 78,94.133 76,94.133 76,95.088 75,95.088 74,97 104,97 103,95.088 102,95.088 102,94.133 100,94.133 100,95.088 99,95.088 99,94.133 97,94.133 97,95.088 96,95.088 "
     transform="translate(25.635593,11.334746)" /><polygon
     id="polygon22"
     points="62,94.133 60,94.133 60,95.088 59,95.088 59,94.133 57,94.133 57,95.088 56,95.088 56,94.133 54,94.133 54,95.088 53,95.088 53,94.133 51,94.133 51,95.088 50,95.088 50,94.133 48,94.133 48,95.088 47,95.088 47,94.133 45,94.133 45,95.088 44,95.088 44,94.133 42,94.133 42,95.088 41,95.088 40,97 70,97 69,95.088 68,95.088 68,94.133 66,94.133 66,95.088 65,95.088 65,94.133 63,94.133 63,95.088 62,95.088 "
     transform="translate(25.635593,11.334746)" /><path
     inkscape:connector-curvature="0"
     id="path24"
     d="m 38.364593,102.58475 c -0.403,0 -0.729,0.428 -0.729,0.954 0,0.53 0.326,0.957 0.729,0.957 l 16.542,0 c 0.402,0 0.729,-0.427 0.729,-0.957 0,-0.526 -0.327,-0.954 -0.729,-0.954 l -16.542,0 z" /><path
     inkscape:connector-curvature="0"
     id="path26"
     d="m 106.36459,102.58475 c -0.402,0 -0.729,0.428 -0.729,0.954 0,0.53 0.326,0.957 0.729,0.957 l 16.543,0 c 0.401,0 0.729,-0.427 0.729,-0.957 0,-0.526 -0.327,-0.954 -0.729,-0.954 l -16.543,0 z" /><path
     inkscape:connector-curvature="0"
     id="path28"
     d="m 72.364593,102.58475 c -0.402,0 -0.729,0.428 -0.729,0.954 0,0.53 0.326,0.957 0.729,0.957 l 16.543,0 c 0.401,0 0.729,-0.427 0.729,-0.957 0,-0.526 -0.327,-0.954 -0.729,-0.954 l -16.543,0 z" /><path
     inkscape:connector-curvature="0"
     id="path30"
     d="m 39.614593,39.805746 3.616,0 -0.595,1.823 8,0 -0.594,-1.823 3.616,0 c 3.461,0 3.979,-2.374 3.979,-3.789 l 0,-7.894 c -10e-4,-1.414 -0.518,-3.788 -3.98,-3.788 l -14.042,0 c -3.462,0 -3.979,2.374 -3.979,3.788 l 0,7.894 c 0,1.415 0.517,3.789 3.979,3.789 z m -1.979,-11.683 c 0,-1.315 0.521,-1.788 1.979,-1.788 l 14.042,0 c 1.458,0 1.979,0.473 1.979,1.788 l 0,7.894 c 0,1.318 -0.521,1.789 -1.979,1.789 l -14.042,0 c -1.458,0 -1.979,-0.471 -1.979,-1.789 l 0,-7.894 z" /><path
     inkscape:connector-curvature="0"
     id="path32"
     d="m 40.316593,36.753746 12.638,0 c 1.312,0 1.781,-0.384 1.781,-1.461 l 0,-6.445 c 0,-1.075 -0.469,-1.462 -1.781,-1.462 l -12.638,0 c -1.312,0 -1.781,0.387 -1.781,1.462 l 0,6.445 c 0,1.077 0.469,1.461 1.781,1.461 z"
     style="fill:#017FFD" /><path
     inkscape:connector-curvature="0"
     id="path34"
     d="m 107.61459,39.805746 3.616,0 -0.595,1.823 8,0 -0.595,-1.823 3.616,0 c 3.462,0 3.979,-2.374 3.979,-3.789 l 0,-7.894 c 0,-1.414 -0.517,-3.788 -3.979,-3.788 l -14.042,0 c -3.462,0 -3.979,2.374 -3.979,3.788 l 0,7.894 c 0,1.415 0.517,3.789 3.979,3.789 z m -1.979,-11.683 c 0,-1.315 0.521,-1.788 1.979,-1.788 l 14.043,0 c 1.457,0 1.978,0.473 1.978,1.788 l 0,7.894 c 0,1.318 -0.521,1.789 -1.979,1.789 l -14.042,0 c -1.458,0 -1.979,-0.471 -1.979,-1.789 l 0,-7.894 z" /><path
     inkscape:connector-curvature="0"
     id="path36"
     d="m 108.31759,36.753746 12.638,0 c 1.312,0 1.78,-0.384 1.78,-1.461 l 0,-6.445 c 0,-1.075 -0.469,-1.462 -1.78,-1.462 l -12.638,0 c -1.313,0 -1.781,0.387 -1.781,1.462 l 0,6.445 c -0.001,1.077 0.468,1.461 1.781,1.461 z"
     style="fill:#017FFD" /><path
     inkscape:connector-curvature="0"
     id="path38"
     d="m 73.614593,39.805746 3.616,0 -0.595,1.823 8,0 -0.595,-1.823 3.616,0 c 3.462,0 3.979,-2.374 3.979,-3.789 l 0,-7.894 c 0,-1.414 -0.517,-3.788 -3.979,-3.788 l -14.042,0 c -3.462,0 -3.979,2.374 -3.979,3.788 l 0,7.894 c 0,1.415 0.517,3.789 3.979,3.789 z m -1.979,-11.683 c 0,-1.315 0.521,-1.788 1.979,-1.788 l 14.043,0 c 1.457,0 1.978,0.473 1.978,1.788 l 0,7.894 c 0,1.318 -0.521,1.789 -1.979,1.789 l -14.042,0 c -1.458,0 -1.979,-0.471 -1.979,-1.789 l 0,-7.894 z" /><path
     inkscape:connector-curvature="0"
     id="path40"
     d="m 74.317593,36.753746 12.638,0 c 1.312,0 1.78,-0.384 1.78,-1.461 l 0,-6.445 c 0,-1.075 -0.469,-1.462 -1.78,-1.462 l -12.638,0 c -1.313,0 -1.781,0.387 -1.781,1.462 l 0,6.445 c -10e-4,1.077 0.468,1.461 1.781,1.461 z"
     style="fill:#017FFD" /><polygon
     id="polygon42"
     points="28,35.088 28,34.133 26,34.133 26,35.088 25,35.088 25,34.133 23,34.133 23,35.088 22,35.088 22,34.133 20,34.133 20,35.088 19,35.088 19,34.133 17,34.133 17,35.088 16,35.088 16,34.133 14,34.133 14,35.088 13,35.088 13,34.133 11,34.133 11,35.088 10,35.088 10,34.133 8,34.133 8,35.088 7,35.088 6,37 36,37 35,35.088 34,35.088 34,34.133 32,34.133 32,35.088 31,35.088 31,34.133 29,34.133 29,35.088 "
     transform="translate(25.635593,11.334746)" /><polygon
     id="polygon44"
     points="96,35.088 96,34.133 94,34.133 94,35.088 93,35.088 93,34.133 91,34.133 91,35.088 90,35.088 90,34.133 88,34.133 88,35.088 87,35.088 87,34.133 85,34.133 85,35.088 84,35.088 84,34.133 82,34.133 82,35.088 81,35.088 81,34.133 79,34.133 79,35.088 78,35.088 78,34.133 76,34.133 76,35.088 75,35.088 74,37 104,37 103,35.088 102,35.088 102,34.133 100,34.133 100,35.088 99,35.088 99,34.133 97,34.133 97,35.088 "
     transform="translate(25.635593,11.334746)" /><polygon
     id="polygon46"
     points="62,35.088 62,34.133 60,34.133 60,35.088 59,35.088 59,34.133 57,34.133 57,35.088 56,35.088 56,34.133 54,34.133 54,35.088 53,35.088 53,34.133 51,34.133 51,35.088 50,35.088 50,34.133 48,34.133 48,35.088 47,35.088 47,34.133 45,34.133 45,35.088 44,35.088 44,34.133 42,34.133 42,35.088 41,35.088 40,37 70,37 69,35.088 68,35.088 68,34.133 66,34.133 66,35.088 65,35.088 65,34.133 63,34.133 63,35.088 "
     transform="translate(25.635593,11.334746)" /><path
     inkscape:connector-curvature="0"
     id="path48"
     d="m 38.364593,42.584746 c -0.403,0 -0.729,0.428 -0.729,0.954 0,0.53 0.326,0.957 0.729,0.957 l 16.542,0 c 0.402,0 0.729,-0.427 0.729,-0.957 0,-0.526 -0.327,-0.954 -0.729,-0.954 l -16.542,0 z" /><path
     inkscape:connector-curvature="0"
     id="path50"
     d="m 106.36459,42.584746 c -0.402,0 -0.729,0.428 -0.729,0.954 0,0.53 0.326,0.957 0.729,0.957 l 16.543,0 c 0.401,0 0.729,-0.427 0.729,-0.957 0,-0.526 -0.327,-0.954 -0.729,-0.954 l -16.543,0 z" /><path
     inkscape:connector-curvature="0"
     id="path52"
     d="m 72.364593,42.584746 c -0.402,0 -0.729,0.428 -0.729,0.954 0,0.53 0.326,0.957 0.729,0.957 l 16.543,0 c 0.401,0 0.729,-0.427 0.729,-0.957 0,-0.526 -0.327,-0.954 -0.729,-0.954 l -16.543,0 z" /><path
     inkscape:connector-curvature="0"
     id="path54"
     d="m 113.63559,76.519746 c -1.161,0.414 -2,1.514 -2,2.815 0,1.654 1.346,3 3,3 1.654,0 3,-1.346 3,-3 0,-1.302 -0.839,-2.401 -2,-2.815 l 0,-4.185 -33.999997,0 0,-7 0,-5 33.999997,0 0,-4.335 c 1.161,-0.403 2,-1.475 2,-2.743 0,-1.611 -1.346,-2.922 -3,-2.922 -1.654,0 -3,1.311 -3,2.922 0,1.268 0.839,2.339 2,2.743 l 0,2.335 -31.999997,0 0,-2.335 c 1.161,-0.403 2,-1.475 2,-2.743 0,-1.611 -1.346,-2.922 -3,-2.922 -1.654,0 -3,1.311 -3,2.922 0,1.268 0.838,2.339 2,2.743 l 0,2.335 -32,0 0,-2.335 c 1.162,-0.403 2,-1.475 2,-2.743 0,-1.611 -1.346,-2.922 -3,-2.922 -1.654,0 -3,1.311 -3,2.922 0,1.268 0.838,2.339 2,2.743 l 0,4.335 34,0 0,5 0,7 -34,0 0,4.185 c -1.162,0.414 -2,1.514 -2,2.815 0,1.654 1.346,3 3,3 1.654,0 3,-1.346 3,-3 0,-1.302 -0.838,-2.401 -2,-2.815 l 0,-2.185 32,0 0,2.185 c -1.162,0.414 -2,1.514 -2,2.815 0,1.654 1.346,3 3,3 1.654,0 3,-1.346 3,-3 0,-1.302 -0.839,-2.401 -2,-2.815 l 0,-2.185 31.999997,0 0,2.185 z"
     style="fill:#017FFD" /><text
     x="50.10593"
     y="118.85593"
     font-size="5px"
     font-weight="bold"
     id="text56"
     style="font-weight:bold;font-size:5px;font-family:'Helvetica Neue', Helvetica, Arial-Unicode, Arial, Sans-serif;fill:#017FFD;">Created by Trevor Dsouza</text>
<text
     x="55.349575"
     y="126.18644"
     font-size="5px"
     font-weight="bold"
     id="text58"
     style="font-weight:bold;font-size:5px;font-family:'Helvetica Neue', Helvetica, Arial-Unicode, Arial, Sans-serif;fill:#017FFD;">from the Noun Project</text>
</svg>