<svg xmlns="http://www.w3.org/2000/svg" xmlns:xlink="http://www.w3.org/1999/xlink" version="1.1" x="0px" y="0px" viewBox="0 0 66 82.5" enable-background="new 0 0 66 66" xml:space="preserve"><g><g><path d="M64.9,4c0-1.1-0.7-2.1-1.6-2.6C62.9,1.1,62.4,1,61.9,1h0H15.5h0c-1.6,0-3,1.3-3,3v28C6,32.1,1.1,34.5,1.1,37.6v21.8    C1.1,62.6,6.2,65,13,65c6.8,0,11.9-2.4,11.9-5.6v-6.1h36.9c1.6,0,3-1.3,3-3V9.2c0,0,0,0,0,0V4z M61.9,3c0.2,0,0.3,0.1,0.5,0.1    c0.3,0.2,0.5,0.5,0.5,0.9v4.2H14.6V4c0-0.5,0.4-1,1-1H61.9z M23,44.9c0,1.5-3.8,3.6-9.9,3.6c-6.1,0-9.9-2.1-9.9-3.6v-4    c2.1,1.5,5.7,2.4,9.9,2.4c4.2,0,7.8-0.9,9.9-2.4V44.9z M3.1,48c2.1,1.5,5.7,2.4,9.9,2.4c4.2,0,7.8-0.9,9.9-2.4v4.6c0,0,0,0,0,0    c0,1.5-3.8,3.6-9.9,3.6c-6.1,0-9.9-2.1-9.9-3.6V48z M25,37.6c0-3-4.4-5.2-10.4-5.6V10.2h23.2v41.1H25V37.6z M13,34    c6.1,0,9.9,2.1,9.9,3.6c0,0,0,0,0,0v0c0,1.5-3.8,3.6-9.9,3.6c-6.1,0-9.9-2.1-9.9-3.6C3.1,36.1,6.9,34,13,34z M13,63    c-6.1,0-9.9-2.1-9.9-3.6v-3.5c2.1,1.5,5.7,2.4,9.9,2.4c4.2,0,7.8-0.9,9.9-2.4v3.5C23,60.9,19.2,63,13,63z M61.9,51.3H39.7V10.2    h23.2v40.1C62.9,50.9,62.4,51.3,61.9,51.3z"/></g><g><path d="M36.6,6.6h22.7c0.6,0,1-0.4,1-1c0-0.6-0.4-1-1-1H36.6c-0.6,0-1,0.4-1,1C35.6,6.2,36.1,6.6,36.6,6.6z"/></g><g><path d="M18.2,6.6h1.2c0.6,0,1-0.4,1-1c0-0.6-0.4-1-1-1h-1.2c-0.6,0-1,0.4-1,1C17.2,6.2,17.6,6.6,18.2,6.6z"/></g><g><path d="M22.9,6.6h1.2c0.6,0,1-0.4,1-1c0-0.6-0.4-1-1-1h-1.2c-0.6,0-1,0.4-1,1C21.9,6.2,22.3,6.6,22.9,6.6z"/></g><g><path d="M27.6,6.6h1.2c0.6,0,1-0.4,1-1c0-0.6-0.4-1-1-1h-1.2c-0.6,0-1,0.4-1,1C26.6,6.2,27.1,6.6,27.6,6.6z"/></g><g><path d="M59.2,14.5h-4.6c-0.6,0-1,0.4-1,1v2H51c-0.6,0-1,0.4-1,1v11.3h-1.6v-2c0-0.6-0.4-1-1-1h-4.6c-0.6,0-1,0.4-1,1v6    c0,0.6,0.4,1,1,1h4.6c0.6,0,1-0.4,1-1v-2H50v11.3c0,0.6,0.4,1,1,1h2.6v2c0,0.6,0.4,1,1,1h4.6c0.6,0,1-0.4,1-1v-6c0-0.6-0.4-1-1-1    h-4.6c-0.6,0-1,0.4-1,1v2H52V31.8h1.6v2c0,0.6,0.4,1,1,1h4.6c0.6,0,1-0.4,1-1v-6c0-0.6-0.4-1-1-1h-4.6c-0.6,0-1,0.4-1,1v2H52V19.4    h1.6v2c0,0.6,0.4,1,1,1h4.6c0.6,0,1-0.4,1-1v-6C60.2,14.9,59.8,14.5,59.2,14.5z M46.3,32.8h-2.6v-4h2.6V32.8z M55.6,41.1h2.6v4    h-2.6V41.1z M55.6,28.8h2.6v4h-2.6V28.8z M58.2,20.4h-2.6v-4h2.6V20.4z"/></g><g><path d="M17.9,16.5h16.5c0.6,0,1-0.4,1-1c0-0.6-0.4-1-1-1H17.9c-0.6,0-1,0.4-1,1C16.9,16,17.4,16.5,17.9,16.5z"/></g><g><path d="M34.4,21H17.9c-0.6,0-1,0.4-1,1c0,0.6,0.4,1,1,1h16.5c0.6,0,1-0.4,1-1C35.4,21.4,34.9,21,34.4,21z"/></g><g><path d="M34.4,27.5H17.9c-0.6,0-1,0.4-1,1s0.4,1,1,1h16.5c0.6,0,1-0.4,1-1S34.9,27.5,34.4,27.5z"/></g></g><text x="0" y="81" fill="#000000" font-size="5px" font-weight="bold" font-family="'Helvetica Neue', Helvetica, Arial-Unicode, Arial, Sans-serif">Created by ProSymbols</text><text x="0" y="86" fill="#000000" font-size="5px" font-weight="bold" font-family="'Helvetica Neue', Helvetica, Arial-Unicode, Arial, Sans-serif">from the Noun Project</text></svg>