<?xml version="1.0" encoding="UTF-8" standalone="no"?>
<svg
   xmlns:dc="http://purl.org/dc/elements/1.1/"
   xmlns:cc="http://creativecommons.org/ns#"
   xmlns:rdf="http://www.w3.org/1999/02/22-rdf-syntax-ns#"
   xmlns:svg="http://www.w3.org/2000/svg"
   xmlns="http://www.w3.org/2000/svg"
   xmlns:sodipodi="http://sodipodi.sourceforge.net/DTD/sodipodi-0.dtd"
   xmlns:inkscape="http://www.inkscape.org/namespaces/inkscape"
   version="1.1"
   x="0px"
   y="0px"
   viewBox="0 0 125 125"
   enable-background="new 0 0 100 100"
   xml:space="preserve"
   id="svg2"
   inkscape:version="0.91 r13725"
   sodipodi:docname="noun_data_integration_1630965_blue.svg"
   width="125"
   height="125"><metadata
     id="metadata14"><rdf:RDF><cc:Work
         rdf:about=""><dc:format>image/svg+xml</dc:format><dc:type
           rdf:resource="http://purl.org/dc/dcmitype/StillImage" /><dc:title /></cc:Work></rdf:RDF></metadata><defs
     id="defs12" /><sodipodi:namedview
     pagecolor="#ffffff"
     bordercolor="#666666"
     borderopacity="1"
     objecttolerance="10"
     gridtolerance="10"
     guidetolerance="10"
     inkscape:pageopacity="0"
     inkscape:pageshadow="2"
     inkscape:window-width="1318"
     inkscape:window-height="723"
     id="namedview10"
     showgrid="false"
     inkscape:zoom="30.208"
     inkscape:cx="68.110298"
     inkscape:cy="94.752122"
     inkscape:window-x="0"
     inkscape:window-y="0"
     inkscape:window-maximized="0"
     inkscape:current-layer="svg2"
     showguides="false" /><path
     d="M 56.193359 49.861328 C 55.917359 49.861328 55.693359 50.085328 55.693359 50.361328 L 55.693359 54.193359 C 55.693359 54.470359 55.917359 54.693359 56.193359 54.693359 L 60.443359 54.693359 C 60.719359 54.693359 60.943359 54.469359 60.943359 54.193359 L 60.943359 50.361328 C 60.943359 50.085328 60.719359 49.861328 60.443359 49.861328 L 56.193359 49.861328 z M 56.693359 50.861328 L 59.943359 50.861328 L 59.943359 53.693359 L 56.693359 53.693359 L 56.693359 50.861328 z "
     id="path4145"
     style="fill:#017FFD" /><path
     id="path4141"
     d="m 63.335938,45.861328 c -0.276002,0 -0.5,0.224 -0.5,0.5 l 0,7.832031 c 0,0.277 0.223998,0.5 0.5,0.5 l 4.25,0 c 0.275998,0 0.5,-0.224 0.5,-0.5 l 0,-7.832031 c 0,-0.276 -0.224002,-0.5 -0.5,-0.5 l -4.25,0 z m 0.5,1 3.25,0 0,6.832031 -3.25,0 0,-6.832031 z m 13.785156,0 c -0.276,0 -0.5,0.224 -0.5,0.5 l 0,6.832031 c 0,0.277 0.224,0.5 0.5,0.5 l 4.25,0 c 0.276,0 0.5,-0.224 0.5,-0.5 l 0,-6.832031 c 0,-0.276 -0.224,-0.5 -0.5,-0.5 l -4.25,0 z m -7.142578,4 c -0.276,0 -0.5,0.224 -0.5,0.5 l 0,2.832031 c 0,0.277 0.223,0.5 0.5,0.5 l 4.25,0 c 0.276,0 0.5,-0.224 0.5,-0.5 l 0,-2.832031 c 0,-0.276 -0.224,-0.5 -0.5,-0.5 l -4.25,0 z m 10.957031,-2.99414 -0.06641,5.892578 -3.244141,0 0.132812,-5.826172 3.177735,-0.06641 z m 0,0 -3.177735,0.06641 -0.132812,5.826172 3.244141,0 0.06641,-5.892578 z m -3.314453,-0.0059 3.25,0 0,5.832031 -3.25,0 0,-5.832031 z m -7.142578,4.00004 3.25,0 0,1.832031 -3.25,0 0,-1.832031 z"
     style="fill:#017FFD" /><path
     style="fill:#017FFD"
     d="M 35.861328 54.007812 L 42.689453 54.007812 L 42.689453 56.347656 C 42.689453 56.701656 42.874641 57.030031 43.181641 57.207031 C 43.610641 57.454031 44.021875 57.306609 44.171875 57.224609 L 50.138672 53.945312 L 50.052734 52.130859 L 44.171875 48.902344 C 43.861875 48.732344 43.484641 48.735969 43.181641 48.917969 C 42.876641 49.097969 42.689453 49.425297 42.689453 49.779297 L 42.689453 52.007812 L 35.861328 52.007812 L 35.861328 54.007812 z M 44.689453 51.46875 L 47.591797 53.0625 L 44.689453 54.65625 L 44.689453 51.46875 z "
     id="path4194" /><path
     style="fill:#000000;fill-opacity:1.0"
     d="M 35.861328 54.007812 L 35.861328 52.007812 L 35.810547 52.007812 C 35.323547 48.668813 32.448563 46.09375 28.976562 46.09375 C 25.163563 46.09375 22.0625 49.194814 22.0625 53.007812 C 22.0625 56.820813 25.164563 59.923828 28.976562 59.923828 C 32.448563 59.923828 35.323547 57.347812 35.810547 54.007812 L 35.861328 54.007812 z M 28.976562 50.091797 C 30.582563 50.091797 31.890625 51.398859 31.890625 53.005859 C 31.890625 54.612859 30.582563 55.921875 28.976562 55.921875 C 27.370562 55.921875 26.0625 54.612859 26.0625 53.005859 C 26.0625 51.398859 27.370563 50.091797 28.976562 50.091797 z "
     id="path4152" /><path
     style="fill:#000000;fill-opacity:1.0"
     d="M 104.01953 65.537109 L 102.01953 65.498047 L 102.01953 65.576172 C 98.682534 66.065172 96.109375 68.940156 96.109375 72.410156 C 96.109375 76.223156 99.211432 79.324219 103.02344 79.324219 C 106.83544 79.324219 109.9375 76.223156 109.9375 72.410156 C 109.9375 68.937156 107.36053 66.061172 104.01953 65.576172 L 104.01953 65.537109 z M 103.02344 69.494141 C 104.62944 69.494141 105.9375 70.803156 105.9375 72.410156 C 105.9375 74.017156 104.63044 75.324219 103.02344 75.324219 C 101.41744 75.324219 100.10935 74.017156 100.10938 72.410156 C 100.10938 70.803156 101.41744 69.494141 103.02344 69.494141 z "
     id="path4217" /><path
     style="fill:#017FFD"
     d="M 94.099609 49.802734 C 93.776609 49.627734 93.380219 49.644656 93.074219 49.847656 L 88.089844 53.132812 C 87.886855 53.266735 87.788083 53.488858 87.724609 53.716797 L 87.724609 54.212891 C 87.786927 54.442809 87.886679 54.666861 88.091797 54.800781 L 93.076172 58.085938 C 93.242172 58.195937 93.772609 58.333859 94.099609 58.130859 C 94.411609 57.937859 94.625 57.617 94.625 57.25 L 94.625 54.966797 L 101.98633 54.966797 L 102.01953 65.498047 L 104.01953 65.537109 L 103.98242 53.964844 C 103.98042 53.413844 103.53342 52.966797 102.98242 52.966797 L 94.623047 52.966797 L 94.623047 50.683594 C 94.623047 50.315594 94.422609 49.976734 94.099609 49.802734 z M 92.623047 52.537109 L 92.623047 55.394531 L 90.455078 53.966797 L 92.623047 52.537109 z "
     id="path4157" /><path
     style="fill:#000000;fill-opacity:1.0"
     d="M 69.726562 86.943359 L 67.726562 86.984375 L 67.726562 87.027344 C 64.387563 87.514344 61.8125 90.389328 61.8125 93.861328 C 61.8125 97.674328 64.914562 100.77539 68.726562 100.77539 C 72.538562 100.77539 75.640625 97.673328 75.640625 93.861328 C 75.640625 90.389328 73.065562 87.514344 69.726562 87.027344 L 69.726562 86.943359 z M 68.726562 90.943359 C 70.332562 90.943359 71.640625 92.252375 71.640625 93.859375 C 71.640625 95.466375 70.332563 96.773438 68.726562 96.773438 C 67.120565 96.773438 65.8125 95.466375 65.8125 93.859375 C 65.8125 92.252375 67.120565 90.943359 68.726562 90.943359 z "
     id="path4212" /><path
     style="fill:#017FFD"
     d="M 67.929688 65.693359 C 67.916275 65.703025 67.902424 65.712009 67.892578 65.726562 L 64.607422 70.712891 C 64.405422 71.019891 64.3885 71.413328 64.5625 71.736328 C 64.7375 72.060328 65.075359 72.261719 65.443359 72.261719 L 67.726562 72.261719 L 67.726562 86.984375 L 69.726562 86.943359 L 69.726562 72.259766 L 72.011719 72.259766 C 72.379719 72.259766 72.717578 72.058375 72.892578 71.734375 C 73.066578 71.410375 73.047703 71.017938 72.845703 70.710938 L 69.568359 65.732422 L 67.929688 65.693359 z M 68.726562 68.09375 L 70.152344 70.259766 L 67.298828 70.259766 L 68.726562 68.09375 z "
     id="path4168" /><path
     style="fill:#000000;fill-opacity:1.0"
     d="M 36.882812 78.839844 L 34.882812 78.839844 L 34.882812 78.865234 C 31.543813 79.352234 28.96875 82.227219 28.96875 85.699219 C 28.96875 89.512219 32.070813 92.615234 35.882812 92.615234 C 39.694812 92.615234 42.796875 89.512219 42.796875 85.699219 C 42.796875 82.227219 40.221813 79.352234 36.882812 78.865234 L 36.882812 78.839844 z M 35.880859 82.78125 C 37.487859 82.78225 38.796875 84.090266 38.796875 85.697266 C 38.796875 87.304266 37.487859 88.611328 35.880859 88.611328 C 34.274859 88.611328 32.966797 87.304266 32.966797 85.697266 C 32.966797 84.090266 34.274859 82.78125 35.880859 82.78125 z "
     id="path4207" /><path
     style="fill:#017FFD"
     d="M 46.599609 64.285156 L 40.957031 65.283203 C 40.590031 65.348203 40.289734 65.61275 40.177734 65.96875 C 40.066734 66.32375 40.161781 66.713562 40.425781 66.976562 L 42.029297 68.578125 L 35.210938 74.740234 C 35.001936 74.929234 34.882813 75.199422 34.882812 75.482422 L 34.882812 78.839844 L 36.882812 78.839844 L 36.882812 75.927734 L 43.445312 69.994141 L 45.070312 71.619141 C 45.260312 71.809141 45.516344 71.912109 45.777344 71.912109 C 45.878344 71.912109 45.979125 71.898188 46.078125 71.867188 C 46.433125 71.755188 46.698672 71.454891 46.763672 71.087891 L 47.759766 65.445312 C 47.772766 65.372315 47.774484 65.299565 47.771484 65.226562 C 47.792546 65.24265 47.824101 65.236635 47.845703 65.251953 L 47.115234 64.292969 C 47.11967 64.30587 47.106639 64.319193 47.111328 64.332031 C 46.949328 64.274031 46.773609 64.254156 46.599609 64.285156 z M 45.539062 66.501953 L 45.126953 68.845703 L 43.195312 66.917969 L 45.539062 66.501953 z "
     id="path4173" /><path
     d="M 50.408203 54.267578 L 50.419922 54.261719 L 50.419922 51.638672 L 50.408203 51.636719 L 50.408203 52.400391 C 50.334203 52.317391 50.251391 52.240547 50.150391 52.185547 L 50.052734 52.130859 L 50.138672 53.945312 L 50.150391 53.939453 C 50.251391 53.883453 50.333203 53.809562 50.408203 53.726562 L 50.408203 54.267578 z "
     id="path4202"
     style="fill:#017FFD" /><path
     d="M 68.007812 38.261719 C 68.009079 38.263043 68.010453 38.2643 68.011719 38.265625 L 52.408203 38.265625 C 51.304203 38.265625 50.408203 39.161625 50.408203 40.265625 L 50.408203 51.636719 L 50.419922 51.638672 L 50.419922 54.261719 L 50.408203 54.267578 L 50.408203 57.1875 L 47.242188 62.646484 C 46.949151 63.153436 46.928592 63.750142 47.115234 64.292969 L 47.845703 65.251953 C 48.175913 65.486102 48.557949 65.650391 48.976562 65.650391 L 67.980469 65.650391 C 67.965599 65.667548 67.947603 65.680447 67.929688 65.693359 L 69.568359 65.732422 L 69.5625 65.724609 C 69.5405 65.690609 69.499656 65.678438 69.472656 65.648438 L 89.091797 65.648438 C 89.098797 65.649438 89.106328 65.648438 89.111328 65.648438 C 90.216328 65.648438 91.111328 64.752437 91.111328 63.648438 C 91.111328 63.188437 90.956314 62.763781 90.695312 62.425781 L 87.658203 57.185547 L 87.658203 54.107422 C 87.664299 54.150248 87.713404 54.171549 87.724609 54.212891 L 87.724609 53.716797 C 87.712724 53.75948 87.662717 53.781852 87.65625 53.826172 L 87.65625 40.265625 C 87.65625 39.161625 86.76025 38.265625 85.65625 38.265625 L 69.439453 38.265625 C 69.440719 38.26433 69.442094 38.263017 69.443359 38.261719 L 68.007812 38.261719 z M 54.408203 42.265625 L 83.65625 42.265625 L 83.65625 56.724609 L 54.408203 56.724609 L 54.408203 42.265625 z M 54.140625 58.724609 L 83.923828 58.724609 C 83.924828 58.725609 83.925781 58.727516 83.925781 58.728516 L 85.617188 61.648438 L 52.445312 61.648438 L 54.138672 58.728516 C 54.139672 58.727516 54.140625 58.725609 54.140625 58.724609 z "
     id="path4187" /><path
     d="M 68.007812 38.261719 L 69.443359 38.261719 C 69.485092 38.218919 69.526577 38.174487 69.560547 38.123047 L 69.816406 37.734375 L 67.634766 37.734375 L 67.890625 38.123047 C 67.924595 38.174487 67.96608 38.21806 68.007812 38.261719 z "
     id="path4139"
     style="fill:#017FFD" /><path
     style="fill:#017FFD"
     d="M 67.726562 24.994141 L 67.726562 31.587891 L 65.441406 31.587891 C 65.073406 31.587891 64.735547 31.789281 64.560547 32.113281 C 64.386547 32.437281 64.405422 32.831672 64.607422 33.138672 L 67.634766 37.734375 L 69.816406 37.734375 L 72.845703 33.138672 C 73.047703 32.831672 73.064625 32.436281 72.890625 32.113281 C 72.715625 31.789281 72.377766 31.587891 72.009766 31.587891 L 69.726562 31.587891 L 69.726562 24.994141 L 67.726562 24.994141 z M 67.298828 33.587891 L 70.152344 33.587891 L 68.724609 35.755859 L 67.298828 33.587891 z "
     id="path4222" /><path
     style="fill:#000000;fill-opacity:1.0"
     d="M 67.726562 24.994141 L 69.726562 24.994141 L 69.726562 24.974609 C 73.065562 24.487609 75.640625 21.612625 75.640625 18.140625 C 75.640625 14.327625 72.538563 11.226562 68.726562 11.226562 C 64.914563 11.226562 61.8125 14.328625 61.8125 18.140625 C 61.8125 21.612625 64.387563 24.487609 67.726562 24.974609 L 67.726562 24.994141 z M 68.726562 15.226562 C 70.332562 15.226562 71.640625 16.533625 71.640625 18.140625 C 71.640625 19.747625 70.332563 21.056641 68.726562 21.056641 C 67.120564 21.056641 65.8125 19.747625 65.8125 18.140625 C 65.8125 16.533625 67.120563 15.226563 68.726562 15.226562 z "
     id="path4" /><text
     x="40.003426"
     y="108.25647"
     font-size="5px"
     font-weight="bold"
     id="text6"
     style="font-weight:bold;font-size:3.46020937px;font-family:'Helvetica Neue', Helvetica, Arial-Unicode, Arial, Sans-serif;fill:#017FFD;">Created by H Alberto Gongora</text>
<text
     x="46.923847"
     y="113.10075"
     font-size="5px"
     font-weight="bold"
     id="text8"
     style="font-weight:bold;font-size:3.46020937px;font-family:'Helvetica Neue', Helvetica, Arial-Unicode, Arial, Sans-serif;fill:#017FFD;">from the Noun Project</text>
</svg>