<svg xmlns="http://www.w3.org/2000/svg" xmlns:xlink="http://www.w3.org/1999/xlink" version="1.1" x="0px" y="0px" viewBox="0 0 100 125" enable-background="new 0 0 100 100" xml:space="preserve"><g><path d="M63.104,48.353h-3.34c-0.797-4.834-4.992-8.533-10.049-8.533c-5.055,0-9.25,3.699-10.049,8.533H29.86v3.123h9.777   c0.711,4.932,4.953,8.736,10.078,8.736c5.127,0,9.369-3.805,10.08-8.736h3.309v5.928l6.678-7.488l-6.678-7.488V48.353z    M49.716,57.089c-3.898,0-7.072-3.174-7.072-7.072c0-3.9,3.174-7.074,7.072-7.074c3.9,0,7.074,3.174,7.074,7.074   C56.79,53.915,53.616,57.089,49.716,57.089z"/><path d="M92.298,41.659H73.624c-1.373,0-2.488,1.115-2.488,2.486v11.537c0,1.373,1.115,2.486,2.488,2.486h18.674   c1.371,0,2.488-1.113,2.488-2.486V44.146C94.786,42.774,93.669,41.659,92.298,41.659z M91.663,55.046H74.259V44.782h17.404V55.046z   "/><path d="M26.257,19.124H7.581c-1.371,0-2.488,1.115-2.488,2.488v11.535c0,1.371,1.117,2.488,2.488,2.488h18.676   c1.371,0,2.486-1.117,2.486-2.488V21.612C28.743,20.239,27.628,19.124,26.257,19.124z M25.62,32.511H8.218V22.247H25.62V32.511z"/><path d="M26.257,41.659H7.581c-1.371,0-2.488,1.117-2.488,2.488v11.535c0,1.373,1.117,2.486,2.488,2.486h18.676   c1.371,0,2.486-1.113,2.486-2.486V44.147C28.743,42.776,27.628,41.659,26.257,41.659z M25.62,55.046H8.218V44.782H25.62V55.046z"/><path d="M26.257,64.194H7.581c-1.371,0-2.488,1.115-2.488,2.486v11.535c0,1.373,1.117,2.488,2.488,2.488h18.676   c1.371,0,2.486-1.115,2.486-2.488V66.681C28.743,65.31,27.628,64.194,26.257,64.194z M25.62,77.581H8.218V67.317H25.62V77.581z"/><path d="M79.378,52.253c0,0,0,0.002,0.002,0.002l0.697,0.939c0.002,0,0.002,0,0.002,0.002l0.033,0.043   c0.174,0.232,0.504,0.381,0.738,0.205l0.992-0.639l0,0l5.803-4.426c0.234-0.176,0.27-0.625,0.076-0.885l-0.701-0.938   c-0.191-0.26-0.539-0.328-0.771-0.152l-5.381,4.008l-1.766-2.369c-0.174-0.234-0.506-0.281-0.74-0.107l-0.992,0.738   c-0.234,0.174-0.281,0.508-0.107,0.742L79.378,52.253z"/><path d="M49.95,49.286c-0.008-0.018-0.016-0.037-0.025-0.055c-0.002-0.006,0.006-0.006,0.002-0.01l-0.582-5.398l0,0l-1.133,5.182   c-0.289,0.316-0.373,0.793-0.164,1.199c0.172,0.336,0.498,0.537,0.848,0.568l5.297,2.203l-0.002-0.002L49.95,49.286z"/><rect x="48.155" y="19.794" width="3.123" height="2.678"/><rect x="48.155" y="24.927" width="3.123" height="2.676"/><rect x="48.155" y="30.058" width="3.123" height="2.678"/><rect x="48.155" y="35.188" width="3.123" height="2.676"/><rect x="48.155" y="62.187" width="3.123" height="2.678"/><rect x="48.155" y="67.317" width="3.123" height="2.678"/><rect x="48.155" y="72.45" width="3.123" height="2.676"/><rect x="48.155" y="77.581" width="3.123" height="2.678"/></g><text x="0" y="115" fill="#000000" font-size="5px" font-weight="bold" font-family="'Helvetica Neue', Helvetica, Arial-Unicode, Arial, Sans-serif">Created by www.yugudesign.com</text><text x="0" y="120" fill="#000000" font-size="5px" font-weight="bold" font-family="'Helvetica Neue', Helvetica, Arial-Unicode, Arial, Sans-serif">from the Noun Project</text></svg>