<svg xmlns="http://www.w3.org/2000/svg" xmlns:xlink="http://www.w3.org/1999/xlink" version="1.1" x="0px" y="0px" viewBox="0 0 512 640" style="enable-background:new 0 0 512 512;" xml:space="preserve"><g><path d="M301.7,168.5c1.2-4.2,1.9-8.6,1.9-13.1c0-26.2-21.3-47.6-47.6-47.6c-1.4,0-2.8,0.1-4.2,0.2   C256.1,122.1,269.8,156.4,301.7,168.5z"/><path d="M240,110.6c-18.2,6.5-31.2,23.8-31.5,44.1c13.6-3.4,23-11,27.9-22.8c4.3-10.1,3.6-19.8,3.6-19.9l0.4,0   C240.2,111.5,240.1,111.1,240,110.6z"/><path d="M321.9,164.1c10.5,0,19-8.5,19-19s-8.5-19-19-19c-4.4,0-8.6,1.5-11.9,4.2c3.6,7.6,5.6,16.1,5.6,25.1c0,2.5-0.2,5-0.5,7.4   C317.2,163.7,319.6,164.1,321.9,164.1z"/><path d="M248.9,132.9c-0.4,1.2-0.9,2.5-1.4,3.8c-4.7,11.2-15.1,25.1-37.6,30.1c5.1,20.8,23.9,36.3,46.2,36.3   c17.4,0,32.7-9.4,41-23.4c-18.6-7.2-34.3-21.7-45.7-42.2C250.4,135.8,249.6,134.3,248.9,132.9z"/><circle cx="418" cy="119" r="36.9"/><path d="M201.3,236.7c-21.9,1.5-39.3,19.8-39.3,42.1v88.6h120.8c-0.5-3.8-0.8-7.7-0.8-11.7c0-20.7,7.5-40.7,21-56.3   c12.2-14,28.5-23.7,46.4-27.6c-3.2-19.2-19.1-33.8-38.7-35.1c-13.3,16.4-33.5,26.1-54.7,26.1S214.6,253.1,201.3,236.7z"/><path d="M368,429.8c40.8,0,74-33.2,74-74s-33.2-74-74-74c-3.7,0-7.5,0.3-11.2,0.8c-17.3,2.6-33.2,11.4-44.8,24.7   C300.4,320.8,294,338,294,355.8c0,37.3,27.8,68.8,64.7,73.4C361.8,429.6,364.9,429.8,368,429.8z M322,352.1v-24.9   c0-2.2,1.2-4.2,3.1-5.3l39.4-21.6c1.8-1,3.9-1,5.7,0l40.6,21.6c2,1,3.2,3.1,3.2,5.3v24.4c0,25.1-15,47.6-38.2,57.4l-6.2,2.7   c-0.8,0.3-1.6,0.5-2.4,0.5c-0.8,0-1.6-0.2-2.4-0.5l-5.5-2.4C336.7,399.3,322,376.8,322,352.1z"/><path d="M373.7,185.3c-16.6,1.4-29.7,15.5-29.7,32.4v20.7c9,8.1,15.3,19.1,17.3,31.7c2.2-0.2,4.5-0.3,6.7-0.3   c19.6,0,37.6,6.6,52.1,17.7H492v-69.7c0-17-13.1-31-29.7-32.4c-10.9,13.1-27.2,20.9-44.3,20.9S384.6,198.4,373.7,185.3z"/><path d="M367.3,399.6l3.8-1.6c0,0,0,0,0,0c18.7-7.9,30.9-26.1,30.9-46.4v-20.8l-34.5-18.4L334,330.7v21.4c0,20,11.9,38.1,30.2,46.2   L367.3,399.6z M357.1,368.5L346.5,356c-2.2-2.5-1.9-6.3,0.7-8.5c2.5-2.2,6.3-1.9,8.5,0.7l6.9,8l20.3-16.5c2.6-2.1,6.3-1.7,8.4,0.9   s1.7,6.3-0.9,8.4l-24.8,20.2c-1.1,0.9-2.5,1.3-3.8,1.3C360,370.6,358.3,369.9,357.1,368.5z"/><path d="M49.7,185.3C33.1,186.8,20,200.8,20,217.8v69.7h130v-8.6c0-16,7-30.4,18-40.3v-20.8c0-17-13.1-31-29.7-32.4   c-10.9,13.1-27.2,20.9-44.3,20.9S60.6,198.4,49.7,185.3z"/><circle cx="94" cy="119" r="36.9"/></g><text x="0" y="527" fill="#000000" font-size="5px" font-weight="bold" font-family="'Helvetica Neue', Helvetica, Arial-Unicode, Arial, Sans-serif">Created by Busy</text><text x="0" y="532" fill="#000000" font-size="5px" font-weight="bold" font-family="'Helvetica Neue', Helvetica, Arial-Unicode, Arial, Sans-serif">from the Noun Project</text></svg>