<?xml version="1.0" encoding="UTF-8" standalone="no"?>
<svg
   xmlns:dc="http://purl.org/dc/elements/1.1/"
   xmlns:cc="http://creativecommons.org/ns#"
   xmlns:rdf="http://www.w3.org/1999/02/22-rdf-syntax-ns#"
   xmlns:svg="http://www.w3.org/2000/svg"
   xmlns="http://www.w3.org/2000/svg"
   xmlns:sodipodi="http://sodipodi.sourceforge.net/DTD/sodipodi-0.dtd"
   xmlns:inkscape="http://www.inkscape.org/namespaces/inkscape"
   version="1.1"
   x="0px"
   y="0px"
   viewBox="0 0 80 80"
   xml:space="preserve"
   id="svg2"
   inkscape:version="0.91 r13725"
   sodipodi:docname="noun_computer_analysis_2019704_green.svg"
   width="80"
   height="80"><metadata
     id="metadata26"><rdf:RDF><cc:Work
         rdf:about=""><dc:format>image/svg+xml</dc:format><dc:type
           rdf:resource="http://purl.org/dc/dcmitype/StillImage" /><dc:title></dc:title></cc:Work></rdf:RDF></metadata><defs
     id="defs24" /><sodipodi:namedview
     pagecolor="#ffffff"
     bordercolor="#666666"
     borderopacity="1"
     objecttolerance="10"
     gridtolerance="10"
     guidetolerance="10"
     inkscape:pageopacity="0"
     inkscape:pageshadow="2"
     inkscape:window-width="1840"
     inkscape:window-height="792"
     id="namedview22"
     showgrid="false"
     inkscape:zoom="4.17193"
     inkscape:cx="-59.252061"
     inkscape:cy="20.210972"
     inkscape:window-x="-1"
     inkscape:window-y="4"
     inkscape:window-maximized="0"
     inkscape:current-layer="svg2" /><path
     inkscape:connector-curvature="0"
     id="path6"
     d="m 68,29 -2.641,0 C 67.608,26.662 69,23.493 69,20 69,12.832 63.168,7 56,7 48.832,7 43,12.832 43,20 c 0,3.493 1.392,6.662 3.641,9 L 41,29 41,14 c 0,-0.277 -0.113,-0.527 -0.294,-0.708 L 34.709,7.295 C 34.527,7.113 34.277,7 34,7 L 10,7 C 9.447,7 9,7.447 9,8 l 0,38 c 0,0.553 0.447,1 1,1 l 7,0 0,9 c 0,1.654 1.346,3 3,3 l 20,0 0,4 -5,0 c -2.757,0 -5,2.243 -5,5 0,0.553 0.447,1 1,1 l 26,0 c 0.553,0 1,-0.447 1,-1 0,-2.757 -2.243,-5 -5,-5 l -5,0 0,-4 20,0 c 1.654,0 3,-1.346 3,-3 l 0,-24 c 0,-1.654 -1.346,-3 -3,-3 z M 56,9 c 6.065,0 11,4.935 11,11 0,6.065 -4.935,11 -11,11 C 49.935,31 45,26.065 45,20 45,13.935 49.935,9 56,9 Z m -2,32 4,0 0,10 c 0,1.103 -0.897,2 -2,2 -1.103,0 -2,-0.897 -2,-2 l 0,-10 z m 0,-2 0,-2 4,0 0,2 -4,0 z m 4,-4 -4,0 0,-2.17 c 0.654,0.102 1.318,0.17 2,0.17 0.682,0 1.346,-0.069 2,-0.17 L 58,35 Z m -8.896,-4 c 0.899,0.566 1.867,1.03 2.896,1.364 l 0,0.636 -11,0 0,-2 8.104,0 z M 35,10.414 37.586,13 35,13 35,10.414 Z M 11,9 l 22,0 0,5 c 0,0.553 0.447,1 1,1 l 5,0 0,30 -28,0 0,-36 z M 55.829,67 32.171,67 C 32.584,65.836 33.696,65 35,65 l 18,0 c 1.304,0 2.416,0.836 2.829,2 z M 46,63 l -4,0 0,-4 4,0 0,4 z m 23,-7 c 0,0.552 -0.448,1 -1,1 l -48,0 c -0.552,0 -1,-0.448 -1,-1 l 0,-9 2,0 0,7 c 0,0.553 0.447,1 1,1 l 28,0 0,-2 -27,0 0,-6 17,0 c 0.553,0 1,-0.447 1,-1 l 0,-11 11,0 0,4 -2,0 0,2 2,0 0,10 c 0,2.206 1.794,4 4,4 2.206,0 4,-1.794 4,-4 l 0,-10 2,0 0,-2 -2,0 0,-4 5,0 0,18 -3,0 0,2 4,0 c 0.553,0 1,-0.447 1,-1 l 0,-20 c 0,-0.553 -0.447,-1 -1,-1 l -6,0 0,-0.636 C 61.029,32.03 61.997,31.566 62.896,31 L 68,31 c 0.552,0 1,0.448 1,1 l 0,24 z"
     style="fill:#353535" /><path
     inkscape:connector-curvature="0"
     id="path8"
     d="m 25,19 c -6.617,0 -12,5.383 -12,12 0,6.617 5.383,12 12,12 6.617,0 12,-5.383 12,-12 0,-6.617 -5.383,-12 -12,-12 z m 0,18 c -3.309,0 -6,-2.691 -6,-6 0,-3.309 2.691,-6 6,-6 3.309,0 6,2.691 6,6 0,3.309 -2.691,6 -6,6 z M 24,23.069 c -1.458,0.183 -2.792,0.759 -3.898,1.619 l -1.427,-1.427 c 1.482,-1.213 3.316,-2.011 5.324,-2.211 l 0,2.019 z m 5.898,1.619 C 28.792,23.828 27.458,23.252 26,23.069 l 0,-2.019 c 2.008,0.2 3.842,0.998 5.324,2.211 l -1.426,1.427 z m -12.636,-0.012 1.427,1.427 C 17.634,27.458 17,29.154 17,31 c 0,1.846 0.634,3.542 1.688,4.898 l -1.427,1.427 C 15.85,35.599 15,33.397 15,31 c 0,-2.397 0.85,-4.599 2.262,-6.324 z m 1.414,14.062 1.427,-1.427 C 21.458,38.366 23.154,39 25,39 c 1.846,0 3.542,-0.634 4.898,-1.688 l 1.427,1.427 C 29.599,40.15 27.397,41 25,41 22.603,41 20.401,40.15 18.676,38.738 Z M 32.738,37.324 31.311,35.897 C 32.366,34.542 33,32.846 33,31 33,29.154 32.366,27.458 31.312,26.102 l 1.427,-1.427 C 34.15,26.401 35,28.603 35,31 c 0,2.397 -0.85,4.599 -2.262,6.324 z"
     style="fill:#72f6b2" /><path
     inkscape:connector-curvature="0"
     id="path10"
     d="m 56,13 0,-2 c -4.963,0 -9,4.037 -9,9 l 2,0 c 0,-3.859 3.141,-7 7,-7 z"
     style="fill:#72f6b2" /><path
     inkscape:connector-curvature="0"
     id="path12"
     d="m 56,29 c 4.963,0 9,-4.037 9,-9 l -2,0 c 0,3.859 -3.141,7 -7,7 l 0,2 z"
     style="fill:#72f6b2" /><rect
     id="rect14"
     height="2"
     width="8"
     y="11"
     x="13"
     style="fill:#72f6b2" /><rect
     id="rect16"
     height="2"
     width="8"
     y="15"
     x="13"
     style="fill:#72f6b2" /><text
     x="12"
     y="73"
     font-size="5px"
     font-weight="bold"
     id="text18"
     style="font-weight:bold;font-size:5px;font-family:'Helvetica Neue', Helvetica, Arial-Unicode, Arial, Sans-serif;fill:#72f6b2">Image created by Templet</text>
<text
     x="16"
     y="78"
     font-size="5px"
     font-weight="bold"
     id="text20"
     style="font-weight:bold;font-size:5px;font-family:'Helvetica Neue', Helvetica, Arial-Unicode, Arial, Sans-serif;fill:#72f6b2">from the Noun Project</text>
<path
     style="fill:#00ffff;fill-opacity:0;stroke:none;stroke-opacity:1"
     d="m 32.884468,34.542373 c -3.9e-4,-3.169492 0.05056,-4.511727 0.113225,-2.982746 0.06266,1.528981 0.06298,4.122202 7.08e-4,5.762712 -0.06227,1.64051 -0.113543,0.389525 -0.113933,-2.779966 z"
     id="path4154"
     inkscape:connector-curvature="0" /><path
     style="fill:#00ffff;fill-opacity:0;stroke:none;stroke-opacity:1"
     d="m 22.467113,62.625305 c -0.475085,-0.475085 -0.202782,-2.090949 0.539644,-3.202295 1.189357,-1.780356 2.640955,-2.337125 6.094938,-2.337739 l 2.966102,-5.25e-4 0,-2.20339 0,-2.20339 -10.618877,0 -10.618877,0 -0.821801,-0.873746 C 9.2264973,50.973064 9.1811278,50.684447 9.0774407,45.882895 l -0.109,-5.047587 -3.7893051,-0.09562 -3.7893051,-0.09562 0,-19.661017 0,-19.6610171 12.4989865,-0.088965 12.498986,-0.088965 3.17898,3.117514 3.17898,3.1175139 0,7.9036542 0,7.903655 3.068098,0 3.068098,0 -0.85121,-1.115998 C 36.655325,20.267174 35.474417,17.344822 35.248776,15.186012 34.499464,8.0169841 40.736698,1.1525424 48,1.1525424 c 7.263302,0 13.500536,6.8644417 12.751224,14.0334696 -0.225641,2.15881 -1.406549,5.081162 -2.781973,6.884431 l -0.85121,1.115998 1.907732,0 c 1.656569,0 2.038186,0.130454 2.898607,0.990873 l 0.990874,0.990874 0,12.585283 c 0,13.213143 -0.09922,14.160814 -1.54061,14.713926 -0.301807,0.115813 -5.265075,0.210569 -11.029488,0.210569 l -10.480749,0 0,2.20339 0,2.20339 2.966101,6.78e-4 c 2.147224,3.39e-4 3.291787,0.164159 4.145787,0.59322 1.540532,0.77399 2.78099,2.6332 2.649844,3.97161 l -0.100715,1.027712 -13.414244,0.08858 c -7.377833,0.04872 -13.517663,-0.01485 -13.644067,-0.141244 z M 48,60.872647 c 0,-0.153939 -0.39341,-0.649701 -0.874247,-1.101694 l -0.874245,-0.8218 -9.888467,-0.08757 c -10.495955,-0.09295 -10.986548,-0.03053 -12.011849,1.528248 l -0.501681,0.762711 12.075245,0 C 42.566139,61.152542 48,61.02659 48,60.872647 Z M 38.100922,54.966102 38,52.847458 l -2.033898,0 -2.033899,0 -0.100921,2.118644 -0.100921,2.118644 2.235741,0 2.235739,0 -0.100919,-2.118644 z m 22.249892,-3.974661 0.869525,-0.330594 0,-12.482966 c 0,-9.256996 -0.105125,-12.58809 -0.40678,-12.889745 -0.250827,-0.250827 -1.481976,-0.40678 -3.211271,-0.40678 -2.198051,0 -3.136308,0.161209 -4.338983,0.745514 -2.471329,1.200665 -2.027132,1.589953 1.940085,1.700254 l 3.474576,0.09661 0.08978,10.298183 c 0.06378,7.316013 -0.02186,10.432698 -0.295746,10.762712 -0.246461,0.296966 -1.104213,0.464529 -2.377915,0.464529 -1.89923,0 -1.992393,-0.03963 -1.992393,-0.847458 0,-0.778407 0.124295,-0.847458 1.525424,-0.847458 l 1.525423,0 0,-9.152542 0,-9.152542 -2.711864,0 -2.711864,0 0,2.033898 c 0,2.033898 0,2.033898 1.016949,2.033898 0.851356,0 1.016949,0.134329 1.016949,0.824942 0,0.647945 -0.20001,0.847955 -0.932204,0.932204 l -0.932203,0.107261 -0.169491,5.779478 c -0.1906,6.499288 -0.430421,7.252329 -2.530367,7.945373 -1.563352,0.515952 -3.310549,-0.03363 -4.235193,-1.332166 -0.599705,-0.842207 -0.685698,-1.588716 -0.768417,-6.670509 L 44.101694,34.881361 43.169491,34.7741 c -0.732194,-0.08425 -0.932204,-0.284259 -0.932204,-0.932204 0,-0.690613 0.165593,-0.824942 1.016949,-0.824942 1.016949,0 1.016949,0 1.016949,-2.033898 l 0,-2.033898 -5.754708,0 -5.754706,0 -0.09275,5.847457 -0.09275,5.847458 -8.898305,0.09037 -8.898305,0.09038 0,3.214708 0,3.214712 13.559322,0 13.559322,0 0,0.847458 0,0.847458 -14,0 c -10.436911,0 -14.103528,-0.103529 -14.40678,-0.40678 -0.266164,-0.266166 -0.406779,-1.672315 -0.406779,-4.067797 l 0,-3.661017 -1.186441,0 -1.186441,0 0.0052,4.661017 c 0.0053,4.723424 0.101061,5.253705 1.011759,5.600377 0.915552,0.348518 47.697014,0.268169 48.622001,-0.08351 z M 49.280505,46.726542 c 0.728129,-0.51 0.753393,-0.720305 0.753393,-6.271186 l 0,-5.743492 -2.033898,0 -2.033898,0 0,5.743492 c 0,5.550881 0.02525,5.761186 0.753393,6.271186 0.414363,0.290231 0.990593,0.527695 1.280505,0.527695 0.289912,0 0.866142,-0.237464 1.280505,-0.527695 z m -18.229658,-22.678935 0,-15.0710358 -2.79661,-0.098455 -2.79661,-0.098455 -0.09794,-2.9661017 -0.09794,-2.9661017 -11.173243,0 -11.1732428,0 0,18.1355932 0,18.135593 14.0677968,0 14.067796,0 0,-15.071037 z M 50.033898,32 c 0,-1.016949 0,-1.016949 -2.033898,-1.016949 -2.033898,0 -2.033898,0 -2.033898,1.016949 0,1.016949 0,1.016949 2.033898,1.016949 2.033898,0 2.033898,0 2.033898,-1.016949 z m 0,-3.983051 0,-1.271186 -2.033898,0 -2.033898,0 0,1.271186 0,1.271187 2.033898,0 2.033898,0 0,-1.271187 z m -5.762712,-1.203638 c 0,-0.24251 -0.690522,-0.776409 -1.534491,-1.186441 -1.33001,-0.646169 -2.097936,-0.745514 -5.762712,-0.745514 l -4.22822,0 0,1.186441 0,1.18644 5.762712,0 c 4.504057,0 5.762711,-0.0963 5.762711,-0.440926 z M 52.971,23.857584 c 2.422224,-1.18704 3.924492,-2.758316 5.164217,-5.401438 0.727349,-1.550726 0.878586,-2.354698 0.863769,-4.591739 C 58.976831,10.520023 57.919247,8.0473071 55.594485,5.9044169 53.207624,3.7042836 51.413129,3.0235717 48,3.0235717 c -3.413129,0 -5.207624,0.6807119 -7.594485,2.8808452 -4.318498,3.9806519 -4.642888,10.8812961 -0.729054,15.5090111 3.083603,3.646054 8.725458,4.68329 13.294539,2.444156 z M 29.694915,6.9840502 c 0,-0.1486031 -0.610169,-0.8660017 -1.355932,-1.5942197 l -1.355932,-1.3240324 0,1.5942195 0,1.5942197 1.355932,0 c 0.745763,0 1.355932,-0.1215844 1.355932,-0.2701871 z"
     id="path4156"
     inkscape:connector-curvature="0" /><path
     style="fill:#ff0000;fill-opacity:0;stroke:none;stroke-opacity:1"
     d="m 10.141345,38.864724 c 3.881129,-0.05443 10.135366,-0.05435 13.898305,1.59e-4 3.762938,0.05451 0.587469,0.09904 -7.056599,0.09896 -7.6440679,-8.8e-5 -10.7228357,-0.04469 -6.841706,-0.09912 z"
     id="path4164"
     inkscape:connector-curvature="0" /><path
     style="fill:#ff0000;fill-opacity:0;stroke:none;stroke-opacity:1"
     d="m 22.467113,62.625305 c -0.475085,-0.475085 -0.202782,-2.090949 0.539644,-3.202295 1.191084,-1.782942 2.639776,-2.337125 6.111113,-2.337739 l 2.982277,-5.25e-4 -0.100921,-2.118644 -0.100921,-2.118644 -10.847458,-0.181455 C 15.084746,52.566203 10.157471,52.451797 10.101347,52.411766 10.045223,52.371736 9.7782742,51.809983 9.5081264,51.163431 9.1615237,50.333892 9.0169492,48.640949 9.0169492,45.41182 l 0,-4.576057 -3.8135594,-0.09585 -3.8135593,-0.09585 0,-19.661017 0,-19.6610171 12.4989865,-0.088965 12.498986,-0.088965 3.17898,3.117514 3.17898,3.1175139 0,7.9036542 0,7.903655 3.050284,0 3.050282,0 -1.133207,-1.61017 C 32.867382,14.69098 35.38021,5.6109169 43.095824,2.1259747 44.457593,1.5108985 45.395617,1.3646172 48,1.3611871 c 2.752664,-0.00363 3.497254,0.1231738 5.127132,0.8731186 7.544248,3.4712851 9.958888,12.5228823 5.159746,19.3419653 l -1.133207,1.61017 1.889919,0 c 1.641851,0 2.021495,0.131577 2.892356,1.002438 l 1.002437,1.002438 -0.09631,13.053581 c -0.08854,11.999651 -0.145146,13.102431 -0.701156,13.65858 -0.547461,0.547597 -1.624878,0.621078 -11.355933,0.774488 l -10.751088,0.169492 -0.100922,2.118644 -0.100918,2.118644 2.908417,0 c 4.527471,0 6.697769,1.332749 6.755383,4.148383 l 0.02957,1.444837 -13.414244,0.08858 c -7.377833,0.04872 -13.517663,-0.01485 -13.644067,-0.141244 z M 48,60.872647 c 0,-0.153939 -0.39341,-0.649701 -0.874247,-1.101694 l -0.874245,-0.8218 -9.888467,-0.08757 c -10.495955,-0.09295 -10.986548,-0.03053 -12.011849,1.528248 l -0.501681,0.762711 12.075245,0 C 42.566139,61.152542 48,61.02659 48,60.872647 Z M 38.100922,54.966102 38,52.847458 l -2.033898,0 -2.033899,0 -0.100921,2.118644 -0.100921,2.118644 2.235741,0 2.235739,0 -0.100919,-2.118644 z M 60.88861,50.644068 c 0.50301,-0.795922 0.431814,-24.849067 -0.07505,-25.355932 -0.250827,-0.250827 -1.481976,-0.40678 -3.211271,-0.40678 -2.200773,0 -3.135878,0.161001 -4.343915,0.747911 -0.846685,0.411351 -1.486892,0.907113 -1.422678,1.101695 0.06539,0.198161 1.595956,0.42834 3.479508,0.523275 l 3.362763,0.169492 0.08973,10.485386 c 0.06986,8.162838 -0.0052,10.545665 -0.338983,10.757522 -0.235793,0.149675 -1.305834,0.274471 -2.377868,0.277326 -1.854491,0.0049 -1.949152,-0.03597 -1.949152,-0.842268 0,-0.778407 0.124295,-0.847458 1.525424,-0.847458 l 1.525423,0 0,-9.152542 0,-9.152542 -2.711864,0 -2.711864,0 0,2.033898 c 0,2.033898 0,2.033898 1.016949,2.033898 0.851356,0 1.016949,0.134329 1.016949,0.824942 0,0.647945 -0.20001,0.847955 -0.932204,0.932204 l -0.932203,0.107261 -0.09314,5.722176 c -0.08272,5.081793 -0.168712,5.828302 -0.768417,6.670509 -0.909919,1.277864 -2.67438,1.847281 -4.182197,1.349657 -2.273722,-0.750396 -2.395108,-1.11501 -2.583363,-7.759793 l -0.169491,-5.982549 -0.932203,-0.107261 c -0.732194,-0.08425 -0.932204,-0.284259 -0.932204,-0.932204 0,-0.690613 0.165593,-0.824942 1.016949,-0.824942 1.016949,0 1.016949,0 1.016949,-2.033898 l 0,-2.033898 -5.754708,0 -5.754706,0 -0.09275,5.847457 -0.09275,5.847458 -8.898305,0.09037 -8.898305,0.09038 0,3.214708 0,3.214712 13.559322,0 13.559322,0 0,0.847458 0,0.847458 -14,0 c -10.436911,0 -14.103528,-0.103529 -14.40678,-0.40678 -0.266164,-0.266166 -0.406779,-1.672315 -0.406779,-4.067797 l 0,-3.661017 -1.186441,0 -1.186441,0 0.0052,4.661017 c 0.0053,4.722648 0.10062,5.250817 1.011759,5.60381 0.279661,0.10835 11.382719,0.169356 24.673465,0.135577 21.065963,-0.05354 24.206197,-0.126631 24.486332,-0.569895 z M 49.610169,46.307763 c 0.299628,-0.381166 0.423729,-2.158197 0.423729,-6.067468 l 0,-5.528431 -2.033898,0 -2.033898,0 0,5.528431 c 0,5.612874 0.14784,6.3516 1.355932,6.775305 0.723037,0.253583 1.792424,-0.07723 2.288135,-0.707837 z m -18.559322,-22.260156 0,-15.0710358 -2.79661,-0.098455 -2.79661,-0.098455 -0.09794,-2.9661017 -0.09794,-2.9661017 -11.173243,0 -11.1732428,0 0,18.1355932 0,18.135593 14.0677968,0 14.067796,0 0,-15.071037 z M 50.033898,32 c 0,-1.016949 0,-1.016949 -2.033898,-1.016949 -2.033898,0 -2.033898,0 -2.033898,1.016949 0,1.016949 0,1.016949 2.033898,1.016949 2.033898,0 2.033898,0 2.033898,-1.016949 z m 0,-3.983051 0,-1.271186 -2.033898,0 -2.033898,0 0,1.271186 0,1.271187 2.033898,0 2.033898,0 0,-1.271187 z m -5.870434,-1.285987 c 0.06468,-0.194582 -0.575152,-0.690344 -1.421837,-1.101695 -1.33578,-0.648973 -2.098759,-0.747911 -5.767644,-0.747911 l -4.22822,0 0,1.194637 0,1.194637 5.650057,-0.09294 c 3.541997,-0.05826 5.693929,-0.224941 5.767644,-0.446726 z M 52.971,23.857584 c 2.422224,-1.18704 3.924492,-2.758316 5.164217,-5.401438 0.726939,-1.549849 0.878746,-2.355962 0.864725,-4.591739 C 58.985603,11.576643 58.830156,10.845574 58.006014,9.1896681 56.864631,6.8963451 54.702847,4.7781003 52.466329,3.7615558 51.248044,3.2078203 50.214742,3.0411523 48,3.0411523 c -3.421003,0 -5.22682,0.6808281 -7.594485,2.8632646 -4.318498,3.9806519 -4.642888,10.8812961 -0.729054,15.5090111 3.083603,3.646054 8.725458,4.68329 13.294539,2.444156 z M 29.694915,6.9840502 c 0,-0.1486031 -0.610169,-0.8660017 -1.355932,-1.5942197 l -1.355932,-1.3240324 0,1.5942195 0,1.5942197 1.355932,0 c 0.745763,0 1.355932,-0.1215844 1.355932,-0.2701871 z"
     id="path4166"
     inkscape:connector-curvature="0" /></svg>