<?xml version="1.0" encoding="UTF-8" standalone="no"?>
<svg
   xmlns:dc="http://purl.org/dc/elements/1.1/"
   xmlns:cc="http://creativecommons.org/ns#"
   xmlns:rdf="http://www.w3.org/1999/02/22-rdf-syntax-ns#"
   xmlns:svg="http://www.w3.org/2000/svg"
   xmlns="http://www.w3.org/2000/svg"
   xmlns:sodipodi="http://sodipodi.sourceforge.net/DTD/sodipodi-0.dtd"
   xmlns:inkscape="http://www.inkscape.org/namespaces/inkscape"
   version="1.1"
   x="0px"
   y="0px"
   viewBox="0 0 100 100"
   enable-background="new 0 0 66 66"
   xml:space="preserve"
   id="svg2"
   inkscape:version="0.91 r13725"
   sodipodi:docname="noun_statistical_analysis_1857873_blue.svg"
   width="100"
   height="100"><metadata
     id="metadata72"><rdf:RDF><cc:Work
         rdf:about=""><dc:format>image/svg+xml</dc:format><dc:type
           rdf:resource="http://purl.org/dc/dcmitype/StillImage" /><dc:title></dc:title></cc:Work></rdf:RDF></metadata><defs
     id="defs70" /><sodipodi:namedview
     pagecolor="#ffffff"
     bordercolor="#666666"
     borderopacity="1"
     objecttolerance="10"
     gridtolerance="10"
     guidetolerance="10"
     inkscape:pageopacity="0"
     inkscape:pageshadow="2"
     inkscape:window-width="1290"
     inkscape:window-height="789"
     id="namedview68"
     showgrid="false"
     inkscape:zoom="2.8606061"
     inkscape:cx="-20.485169"
     inkscape:cy="44.745763"
     inkscape:window-x="377"
     inkscape:window-y="37"
     inkscape:window-maximized="0"
     inkscape:current-layer="svg2" /><g
     id="g8"
     transform="translate(18.527542,8.4110169)"><path
       d="m 63.928,58.037 -1.556,0 0,-40.48 c 0,-1.77 -1.44,-3.21 -3.21,-3.21 l -6.828,0 c 0,-4.366 0,-8.141 0,-12.596 0,-0.414 -0.336,-0.75 -0.75,-0.75 l -37.163,0 c -0.414,0 -0.75,0.336 -0.75,0.75 0,4.438 0,8.222 0,12.596 l -6.828,0 c -1.77,0 -3.21,1.44 -3.21,3.21 l 0,40.48 -1.561,0 c -0.414,0 -0.75,0.336 -0.75,0.75 l 0,1.676 C 1.322,62.965 3.357,65 5.859,65 l 54.281,0 c 2.502,0 4.538,-2.035 4.538,-4.537 l 0,-1.676 c 0,-0.414 -0.336,-0.75 -0.75,-0.75 z m -13.094,-4.055 -35.663,0 c 0,-3.234 0,-44.065 0,-45.363 l 35.664,0 c -10e-4,1.246 -10e-4,42.246 -10e-4,45.363 z m -37.163,0.124 -4.589,0 0,-34.3 4.588,0 0,34.3 z m 38.663,-34.3 4.578,0 0,34.3 -4.578,0 0,-34.3 z M 15.171,2.5 l 35.664,0 0,4.619 -35.664,0 0,-4.619 z M 5.133,17.556 c 0,-0.943 0.767,-1.71 1.71,-1.71 l 6.828,0 0,2.46 -5.339,0 c -0.414,0 -0.75,0.336 -0.75,0.75 l 0,35.8 c 0,0.414 0.336,0.75 0.75,0.75 l 49.33,0 c 0.414,0 0.75,-0.336 0.75,-0.75 l 0,-35.8 c 0,-0.414 -0.336,-0.75 -0.75,-0.75 l -5.328,0 0,-2.46 6.828,0 c 0.943,0 1.71,0.767 1.71,1.71 l 0,40.48 -55.739,0 0,-40.48 z m -2.311,42.907 0,-0.926 c 40.611,0.04 26.604,0.026 29.635,0.029 -0.857,0.239 -1.492,1.019 -1.492,1.952 0,0.968 0.68,1.776 1.586,1.982 l -26.692,0 C 4.184,63.5 2.822,62.138 2.822,60.463 Z M 33,62.054 c -0.295,0 -0.535,-0.24 -0.535,-0.536 0,-0.295 0.24,-0.535 0.535,-0.535 0.296,0 0.536,0.24 0.536,0.535 -0.001,0.295 -0.241,0.536 -0.536,0.536 z m 30.178,-1.591 c 0,1.675 -1.363,3.037 -3.038,3.037 l -26.691,0 c 0.906,-0.206 1.586,-1.014 1.586,-1.982 0,-0.933 -0.635,-1.713 -1.492,-1.952 3.03,-0.003 -10.977,0.011 29.635,-0.029 l 0,0.926 z"
       id="path10"
       inkscape:connector-curvature="0" /></g><g
     id="g12"
     transform="translate(18.527542,8.4110169)"><path
       d="m 18.46,2.774 c -1.122,0 -2.035,0.913 -2.035,2.036 0,1.122 0.913,2.035 2.035,2.035 1.123,0 2.036,-0.913 2.036,-2.035 0,-1.123 -0.913,-2.036 -2.036,-2.036 z m 0,2.571 c -0.295,0 -0.535,-0.24 -0.535,-0.535 0,-0.295 0.24,-0.536 0.535,-0.536 0.295,0 0.536,0.24 0.536,0.536 0,0.294 -0.24,0.535 -0.536,0.535 z"
       id="path14"
       inkscape:connector-curvature="0" /></g><g
     id="g16"
     transform="translate(18.527542,8.4110169)"><path
       d="m 23.039,2.774 c -1.123,0 -2.036,0.913 -2.036,2.036 0,1.122 0.913,2.035 2.036,2.035 1.122,0 2.035,-0.913 2.035,-2.035 10e-4,-1.123 -0.913,-2.036 -2.035,-2.036 z m 0,2.571 c -0.295,0 -0.536,-0.24 -0.536,-0.535 0,-0.295 0.24,-0.536 0.536,-0.536 0.295,0 0.535,0.24 0.535,0.536 10e-4,0.294 -0.24,0.535 -0.535,0.535 z"
       id="path18"
       inkscape:connector-curvature="0" /></g><g
     id="g20"
     transform="translate(18.527542,8.4110169)"><path
       d="m 27.618,2.774 c -1.123,0 -2.036,0.913 -2.036,2.036 0,1.122 0.913,2.035 2.036,2.035 1.122,0 2.035,-0.913 2.035,-2.035 0,-1.123 -0.913,-2.036 -2.035,-2.036 z m 0,2.571 c -0.295,0 -0.536,-0.24 -0.536,-0.535 0,-0.295 0.24,-0.536 0.536,-0.536 0.295,0 0.535,0.24 0.535,0.536 0,0.294 -0.24,0.535 -0.535,0.535 z"
       id="path22"
       inkscape:connector-curvature="0" /></g><g
     id="g24"
     transform="translate(18.527542,8.4110169)"><path
       d="m 48.628,4.06 -15.953,0 c -0.414,0 -0.75,0.336 -0.75,0.75 0,0.414 0.336,0.75 0.75,0.75 l 15.953,0 c 0.414,0 0.75,-0.336 0.75,-0.75 0,-0.414 -0.336,-0.75 -0.75,-0.75 z"
       id="path26"
       inkscape:connector-curvature="0" /></g><g
     id="g28"
     transform="translate(18.527542,8.4110169)"
     style="fill:#017FFD"><path
       d="m 30.936,26.258 16.425,0 c 0.414,0 0.75,-0.336 0.75,-0.75 l 0,-6.382 c 0,-0.598 -0.664,-0.95 -1.159,-0.628 L 44.96,19.795 43.698,16.914 C 43.483,16.423 42.837,16.31 42.468,16.697 L 41.035,18.2 38.633,14.744 c -0.26,-0.376 -0.785,-0.426 -1.116,-0.131 l -2.35,2.105 -3.681,-3.969 c -0.457,-0.495 -1.3,-0.175 -1.3,0.51 l 0,12.249 c 0,0.414 0.336,0.75 0.75,0.75 z m 0.75,-11.088 2.882,3.107 c 0.278,0.3 0.746,0.32 1.05,0.048 l 2.267,-2.03 2.442,3.515 c 0.269,0.387 0.829,0.435 1.159,0.09 l 1.29,-1.353 1.165,2.659 c 0.185,0.423 0.705,0.581 1.096,0.328 l 1.574,-1.025 0,4.249 -14.925,0 0,-9.588 z"
       id="path30"
       inkscape:connector-curvature="0"
       style="fill:#017FFD" /></g><g
     id="g32"
     transform="translate(18.527542,8.4110169)"
     style="fill:#017FFD"><path
       d="m 19.024,14.616 8.106,0 c 0.414,0 0.75,-0.336 0.75,-0.75 0,-0.414 -0.336,-0.75 -0.75,-0.75 l -8.106,0 c -0.414,0 -0.75,0.336 -0.75,0.75 0,0.414 0.336,0.75 0.75,0.75 z"
       id="path34"
       inkscape:connector-curvature="0"
       style="fill:#017FFD" /></g><g
     id="g36"
     transform="translate(18.527542,8.4110169)"
     style="fill:#017FFD"><path
       d="m 19.024,20.133 8.106,0 c 0.414,0 0.75,-0.336 0.75,-0.75 0,-0.414 -0.336,-0.75 -0.75,-0.75 l -8.106,0 c -0.414,0 -0.75,0.336 -0.75,0.75 0,0.414 0.336,0.75 0.75,0.75 z"
       id="path38"
       inkscape:connector-curvature="0"
       style="fill:#017FFD" /></g><g
     id="g40"
     transform="translate(18.527542,8.4110169)"
     style="fill:#017FFD"><path
       d="m 19.024,25.65 8.106,0 c 0.414,0 0.75,-0.336 0.75,-0.75 0,-0.414 -0.336,-0.75 -0.75,-0.75 l -8.106,0 c -0.414,0 -0.75,0.336 -0.75,0.75 0,0.415 0.336,0.75 0.75,0.75 z"
       id="path42"
       inkscape:connector-curvature="0"
       style="fill:#017FFD" /></g><g
     id="g44"
     transform="translate(18.527542,8.4110169)"
     style="fill:#017FFD"><path
       d="m 47.36,35.62 -11.472,0 c -0.414,0 -0.75,0.336 -0.75,0.75 0,0.414 0.336,0.75 0.75,0.75 l 11.472,0 c 0.414,0 0.75,-0.336 0.75,-0.75 0,-0.414 -0.336,-0.75 -0.75,-0.75 z"
       id="path46"
       inkscape:connector-curvature="0"
       style="fill:#017FFD" /></g><g
     id="g48"
     transform="translate(18.527542,8.4110169)"
     style="fill:#017FFD"><path
       d="m 47.36,41.081 -11.472,0 c -0.414,0 -0.75,0.336 -0.75,0.75 0,0.414 0.336,0.75 0.75,0.75 l 11.472,0 c 0.414,0 0.75,-0.336 0.75,-0.75 0,-0.414 -0.336,-0.75 -0.75,-0.75 z"
       id="path50"
       inkscape:connector-curvature="0"
       style="fill:#017FFD" /></g><g
     id="g52"
     transform="translate(18.527542,8.4110169)"
     style="fill:#017FFD"><path
       d="m 47.36,46.541 -11.472,0 c -0.414,0 -0.75,0.336 -0.75,0.75 0,0.414 0.336,0.75 0.75,0.75 l 11.472,0 c 0.414,0 0.75,-0.336 0.75,-0.75 0,-0.414 -0.336,-0.75 -0.75,-0.75 z"
       id="path54"
       inkscape:connector-curvature="0"
       style="fill:#017FFD" /></g><g
     id="g56"
     transform="translate(18.527542,8.4110169)"
     style="fill:#017FFD"><path
       d="m 19.026,30.277 c -0.414,0 -0.75,0.336 -0.75,0.75 0,0.414 0.336,0.75 0.75,0.75 l 28.651,10e-4 c 0.414,0 0.75,-0.336 0.75,-0.75 0,-0.414 -0.336,-0.75 -0.75,-0.75 L 19.026,30.277 Z"
       id="path58"
       inkscape:connector-curvature="0"
       style="fill:#017FFD" /></g><g
     id="g60"
     transform="translate(18.527542,8.4110169)"
     style="fill:#017FFD"><path
       d="m 18.327,42.581 1.166,0 c -0.017,0.062 -0.038,0.122 -0.038,0.189 0,4.038 3.285,7.323 7.323,7.323 4.038,0 7.323,-3.285 7.323,-7.323 0,-4.038 -3.285,-7.323 -7.323,-7.323 -0.067,0 -0.127,0.022 -0.189,0.038 l 0,-1.166 c 0,-0.414 -0.336,-0.75 -0.75,-0.75 -4.556,0 -8.262,3.706 -8.262,8.262 0,0.414 0.336,0.75 0.75,0.75 z m 9.202,0.189 0,-5.775 c 2.857,0.37 5.073,2.819 5.073,5.775 0,3.21 -2.612,5.823 -5.823,5.823 -2.957,0 -5.406,-2.215 -5.775,-5.073 l 5.775,0 c 0.414,0 0.75,-0.336 0.75,-0.75 z m -2.439,-7.66 0,5.971 -5.971,0 c 0.347,-3.131 2.84,-5.624 5.971,-5.971 z"
       id="path62"
       inkscape:connector-curvature="0"
       style="fill:#017FFD" /></g><text
     x="29.420193"
     y="80.760155"
     font-size="5px"
     font-weight="bold"
     id="text64"
     style="font-weight:bold;font-size:3.53193617px;font-family:'Helvetica Neue', Helvetica, Arial-Unicode, Arial, Sans-serif;fill:#017FFD;">Created by Vectors Market</text>
<text
     x="32.13649"
     y="84.539024"
     font-size="5px"
     font-weight="bold"
     id="text66"
     style="font-weight:bold;font-size:3.53193617px;font-family:'Helvetica Neue', Helvetica, Arial-Unicode, Arial, Sans-serif;fill:#017FFD;">from the Noun Project</text>
</svg>