<svg xmlns="http://www.w3.org/2000/svg" xmlns:xlink="http://www.w3.org/1999/xlink" viewBox="0 0 60 58.75" version="1.1" x="0px" y="0px"><title>64 -Diagram- (Outline)</title><desc>Created with Sketch.</desc><g stroke="none" stroke-width="1" fill="none" fill-rule="evenodd"><g transform="translate(-481.000000, -1077.000000)" fill="#000000"><g transform="translate(481.000000, 1077.000000)"><path d="M37,45 L23,45 L23,40 C23,36.1342847 26.1342847,33 30,33 C33.8657153,33 37,36.1342847 37,40 L37,45 Z M38,47 C38.5522847,47 39,46.5522847 39,46 L39,40 C39,35.0297153 34.9702847,31 30,31 C25.0297153,31 21,35.0297153 21,40 L21,46 C21,46.5522847 21.4477153,47 22,47 L38,47 Z"/><path d="M35,26 C35,28.7607153 32.7607153,31 30,31 C27.2392847,31 25,28.7607153 25,26 C25,23.2392847 27.2392847,21 30,21 C32.7607153,21 35,23.2392847 35,26 Z M37,26 C37,22.1347153 33.8652847,19 30,19 C26.1347153,19 23,22.1347153 23,26 C23,29.8652847 26.1347153,33 30,33 C33.8652847,33 37,29.8652847 37,26 Z"/><path d="M1,36 L15,36 C15.5522847,36 16,35.5522847 16,35 L16,27 C16,26.4477153 15.5522847,26 15,26 L1,26 C0.44771525,26 0,26.4477153 0,27 L0,35 C0,35.5522847 0.44771525,36 1,36 Z M2,28 L14,28 L14,34 L2,34 L2,28 Z"/><path d="M1,10 L15,10 C15.5522847,10 16,9.55228475 16,9 L16,1 C16,0.44771525 15.5522847,0 15,0 L1,0 C0.44771525,0 0,0.44771525 0,1 L0,9 C0,9.55228475 0.44771525,10 1,10 Z M2,2 L14,2 L14,8 L2,8 L2,2 Z"/><path d="M6,23 L20,23 C20.5522847,23 21,22.5522847 21,22 L21,14 C21,13.4477153 20.5522847,13 20,13 L6,13 C5.44771525,13 5,13.4477153 5,14 L5,22 C5,22.5522847 5.44771525,23 6,23 Z M7,21 L7,15 L19,15 L19,21 L7,21 Z"/><path d="M35,14 L51,14 C51.5522847,14 52,13.5522847 52,13 L52,5 C52,4.44771525 51.5522847,4 51,4 L35,4 C34.4477153,4 34,4.44771525 34,5 L34,13 C34,13.5522847 34.4477153,14 35,14 Z M36,12 L36,6 L50,6 L50,12 L36,12 Z"/><path d="M43,27 L59,27 C59.5522847,27 60,26.5522847 60,26 L60,18 C60,17.4477153 59.5522847,17 59,17 L43,17 C42.4477153,17 42,17.4477153 42,18 L42,26 C42,26.5522847 42.4477153,27 43,27 Z M44,19 L58,19 L58,25 L44,25 L44,19 Z"/><path d="M46,40 L56,40 C56.5522847,40 57,39.5522847 57,39 L57,31 C57,30.4477153 56.5522847,30 56,30 L46,30 C45.4477153,30 45,30.4477153 45,31 L45,39 C45,39.5522847 45.4477153,40 46,40 Z M47,38 L47,32 L55,32 L55,38 L47,38 Z"/><path d="M7.29289322,9.70710678 L12.2928932,14.7071068 C12.6834175,15.0976311 13.3165825,15.0976311 13.7071068,14.7071068 C14.0976311,14.3165825 14.0976311,13.6834175 13.7071068,13.2928932 L8.70710678,8.29289322 C8.31658249,7.90236893 7.68341751,7.90236893 7.29289322,8.29289322 C6.90236893,8.68341751 6.90236893,9.31658249 7.29289322,9.70710678 Z"/><path d="M12.2928932,21.2928932 L7.29289322,26.2928932 C6.90236893,26.6834175 6.90236893,27.3165825 7.29289322,27.7071068 C7.68341751,28.0976311 8.31658249,28.0976311 8.70710678,27.7071068 L13.7071068,22.7071068 C14.0976311,22.3165825 14.0976311,21.6834175 13.7071068,21.2928932 C13.3165825,20.9023689 12.6834175,20.9023689 12.2928932,21.2928932 Z"/><path d="M51.0194193,25.8038839 L50.0194193,30.8038839 C49.9111074,31.3454436 50.2623241,31.8722687 50.8038839,31.9805807 C51.3454436,32.0888926 51.8722687,31.7376759 51.9805807,31.1961161 L52.9805807,26.1961161 C53.0888926,25.6545564 52.7376759,25.1277313 52.1961161,25.0194193 C51.6545564,24.9111074 51.1277313,25.2623241 51.0194193,25.8038839 Z"/><path d="M42.4700011,13.8479983 L50.4700011,18.8479983 C50.9383376,19.1407086 51.555288,18.9983355 51.8479983,18.5299989 C52.1407086,18.0616624 51.9983355,17.444712 51.5299989,17.1520017 L43.5299989,12.1520017 C43.0616624,11.8592914 42.444712,12.0016645 42.1520017,12.4700011 C41.8592914,12.9383376 42.0016645,13.555288 42.4700011,13.8479983 Z"/><path d="M34.4855042,8.14250707 L19.4855042,17.1425071 C19.011924,17.4266552 18.8583589,18.0409155 19.1425071,18.5144958 C19.4266552,18.988076 20.0409155,19.1416411 20.5144958,18.8574929 L35.5144958,9.85749293 C35.988076,9.57334477 36.1416411,8.95908451 35.8574929,8.48550424 C35.5733448,8.01192398 34.9590845,7.85835891 34.4855042,8.14250707 Z"/></g></g></g><text x="0" y="62" fill="#000000" font-size="5px" font-weight="bold" font-family="'Helvetica Neue', Helvetica, Arial-Unicode, Arial, Sans-serif">Created by Ben Davis</text><text x="0" y="67" fill="#000000" font-size="5px" font-weight="bold" font-family="'Helvetica Neue', Helvetica, Arial-Unicode, Arial, Sans-serif">from the Noun Project</text></svg>