<svg xmlns:dc="http://purl.org/dc/elements/1.1/" xmlns:cc="http://creativecommons.org/ns#" xmlns:rdf="http://www.w3.org/1999/02/22-rdf-syntax-ns#" xmlns:svg="http://www.w3.org/2000/svg" xmlns="http://www.w3.org/2000/svg" xmlns:sodipodi="http://sodipodi.sourceforge.net/DTD/sodipodi-0.dtd" xmlns:inkscape="http://www.inkscape.org/namespaces/inkscape" viewBox="0 0 64.000001 80.00000125" version="1.1" x="0px" y="0px"><g transform="translate(0,-988.36216)"><path style="color:#000000;font-style:normal;font-variant:normal;font-weight:normal;font-stretch:normal;font-size:medium;line-height:normal;font-family:sans-serif;text-indent:0;text-align:start;text-decoration:none;text-decoration-line:none;text-decoration-style:solid;text-decoration-color:#000000;letter-spacing:normal;word-spacing:normal;text-transform:none;direction:ltr;block-progression:tb;writing-mode:lr-tb;baseline-shift:baseline;text-anchor:start;white-space:normal;clip-rule:nonzero;display:inline;overflow:visible;visibility:visible;opacity:1;isolation:auto;mix-blend-mode:normal;color-interpolation:sRGB;color-interpolation-filters:linearRGB;solid-color:#000000;solid-opacity:1;fill:#000000;fill-opacity:1;fill-rule:nonzero;stroke:none;stroke-width:1;stroke-linecap:round;stroke-linejoin:round;stroke-miterlimit:4;stroke-dasharray:none;stroke-dashoffset:0;stroke-opacity:1;color-rendering:auto;image-rendering:auto;shape-rendering:auto;text-rendering:auto;enable-background:accumulate" d="m 8.457031,993.36002 a 0.50005,0.50005 0 0 0 -0.048828,0.008 c -0.7463191,0.0152 -1.4898468,0.20985 -2.1582031,0.59571 -1.3916097,0.80345 -2.249999,2.28959 -2.25,3.89648 a 0.50005,0.50005 0 0 0 0.5,0.5 l 4,0 3.5078121,0 0,45.49999 c 0,2.4818 2.011487,4.4957 4.492188,4.5 l 0,0.01 c 3.894845,0 6.216893,0 9.197266,-0.01 l 16.810546,0 a 0.50005,0.50005 0 0 0 0.103516,-0.012 c 1.523295,-7e-4 2.817532,0 4.548828,0 0.901653,0.07 1.803263,-0.1323 2.587891,-0.5821 a 0.50005,0.50005 0 0 0 0.002,0 c 1.391807,-0.8037 2.250337,-2.2912 2.25,-3.8984 a 0.50005,0.50005 0 0 0 -0.5,-0.5 l 0,-0.01 -4,0.01 -0.300781,0 -0.191407,0 0,-3.1914 c 5.665323,-0.9588 9.992184,-5.8825 9.992188,-11.8184 -4e-6,-5.9358 -4.326915,-10.8595 -9.992188,-11.8183 l 0,-18.68169 c 0,-2.48435 -2.015647,-4.5 -4.5,-4.5 l -26,0 -7.9999996,0 a 0.50005,0.50005 0 0 0 -0.050781,0 z m 0.042969,1 a 0.50005,0.50005 0 0 0 0.00781,0 c 0.6014793,0.001 1.2027351,0.15926 1.742187,0.47071 0.928733,0.53621 1.456339,1.4882 1.615234,2.52929 l -3.3652335,0 -3.3652344,0 c 0.1588953,-1.04109 0.6865014,-1.99308 1.6152344,-2.52929 0.5417879,-0.31279 1.1459158,-0.47071 1.75,-0.47071 z m 2.820312,0 5.1875,0 26,0 c 1.947649,0 3.5,1.55235 3.5,3.5 l 0,18.54888 c -0.332906,-0.028 -0.66779,-0.049 -1.007812,-0.049 -0.426762,0 -0.848344,0.023 -1.263672,0.066 -0.07117,-0.039 -0.149229,-0.066 -0.236328,-0.066 l -12,0 c -0.276995,0 -0.5,0.223 -0.5,0.5 0,0.277 0.223005,0.5 0.5,0.5 l 8.714844,0 c -1.149446,0.5016 -2.20011,1.1824 -3.128906,2 l -21.585938,0 c -0.276995,0 -0.5,0.223 -0.5,0.5 0,0.277 0.223005,0.5 0.5,0.5 l 20.578125,0 c -0.555724,0.6193 -1.050032,1.2926 -1.46875,2.0176 -0.02888,-0.01 -0.05543,-0.018 -0.08594,-0.018 l -19.046876,0 c -0.263805,0 -0.476562,0.223 -0.476562,0.5 0,0.277 0.212758,0.5 0.476562,0.5 l 18.626954,0 c -0.293844,0.6385 -0.52999,1.3073 -0.708985,2 l -17.894531,0 c -0.276995,0 -0.5,0.223 -0.5,0.5 0,0.277 0.223005,0.5 0.5,0.5 l 17.679688,0 c -0.109745,0.6516 -0.179688,1.3176 -0.179688,2 l -17.5,0 c -0.276995,0 -0.5,0.223 -0.5,0.5 0,0.277 0.223005,0.5 0.5,0.5 l 17.550781,0 c 0.05692,0.6857 0.176145,1.3518 0.34375,2 l -17.894531,0 c -0.276995,0 -0.5,0.223 -0.5,0.5 l 0,0.025 c 0,0.277 0.223005,0.5 0.5,0.5 l 18.207031,0 c 0.246335,0.6894 0.551656,1.3499 0.914063,1.9746 l -19.121094,0 c -0.276995,0 -0.5,0.223 -0.5,0.5 0,0.277 0.223005,0.5 0.5,0.5 l 19.771484,0 c 0.528855,0.733 1.137331,1.404 1.814454,2 l -21.585938,0 c -0.276995,0 -0.5,0.223 -0.5,0.5 0,0.277 0.223005,0.5 0.5,0.5 l 22.878906,0 c 1.898792,1.2604 4.174047,2 6.621094,2 0.340027,0 0.674901,-0.023 1.007812,-0.051 l 0,3.0606 -2.507812,0 -23,0 a 0.50005,0.50005 0 0 0 -0.5,0.5 c 2.63e-4,1.2514 -0.666252,2.4056 -1.75,3.0312 -0.505551,0.2905 -1.075856,0.4446 -1.658203,0.459 l -0.08398,0 c -1.947648,0 -3.5,-1.5523 -3.5,-3.5 l 0,-45.99998 a 0.50005,0.50005 0 0 0 -0.01562,-0.125 c -0.03709,-1.32484 -0.654206,-2.55482 -1.671876,-3.375 z m 8.179688,3 a 0.50005,0.50005 0 0 0 -0.5,0.5 l 0,2 a 0.50005,0.50005 0 0 0 0.5,0.49998 l 19,0 a 0.50005,0.50005 0 0 0 0.5,-0.49998 l 0,-2 a 0.50005,0.50005 0 0 0 -0.5,-0.5 l -19,0 z m 0.5,1 18,0 0,1 -18,0 0,-1 z m 5.5,3.99998 a 0.50005,0.50005 0 0 0 -0.5,0.5 l 0,12 a 0.50005,0.50005 0 0 0 0.5,0.5 l 3,0 a 0.50005,0.50005 0 0 0 0.5,-0.5 l 0,-12 a 0.50005,0.50005 0 0 0 -0.5,-0.5 l -3,0 z m 5.5,0 a 0.50005,0.50005 0 0 0 -0.5,0.5 l 0,2 a 0.50005,0.50005 0 0 0 0.5,0.5 l 7.583984,0 a 0.50005,0.50005 0 0 0 0.5,-0.5 l 0,-2 a 0.50005,0.50005 0 0 0 -0.5,-0.5 L 31,1002.36 Z m -5,1 2,0 0,11 -2,0 0,-11 z m 5.5,0 6.583984,0 0,1 -6.583984,0 0,-1 z m -11,2 a 0.50005,0.50005 0 0 0 -0.5,0.5 l 0,9 a 0.50005,0.50005 0 0 0 0.5,0.5 l 3,0 a 0.50005,0.50005 0 0 0 0.5,-0.5 l 0,-9 a 0.50005,0.50005 0 0 0 -0.5,-0.5 l -3,0 z m 0.5,1 2,0 0,8 -2,0 0,-8 z m 27.5,0 a 0.50005,0.50005 0 0 0 -0.347656,0.8594 l 0.707031,0.707 a 0.50005,0.50005 0 1 0 0.707031,-0.707 l -0.707031,-0.707 A 0.50005,0.50005 0 0 0 48.5,1006.36 Z m 2.833984,0 a 0.50005,0.50005 0 0 0 -0.34375,0.1504 l -0.707031,0.707 a 0.50005,0.50005 0 1 0 0.707031,0.707 l 0.707032,-0.707 A 0.50005,0.50005 0 0 0 51.333984,1006.36 Z M 31.5,1007.358 c -0.276995,0 -0.5,0.223 -0.5,0.5 0,0.277 0.223005,0.5 0.5,0.5 l 12,0 c 0.276995,0 0.5,-0.223 0.5,-0.5 0,-0.277 -0.223005,-0.5 -0.5,-0.5 l -12,0 z m -16,1 a 0.50005,0.50005 0 0 0 -0.5,0.5 l 0,6 a 0.50005,0.50005 0 0 0 0.5,0.5 l 3,0 a 0.50005,0.50005 0 0 0 0.5,-0.5 l 0,-6 a 0.50005,0.50005 0 0 0 -0.5,-0.5 l -3,0 z m 33.712891,0.1231 a 0.50005,0.50005 0 0 0 -0.34375,0.1504 l -0.707032,0.707 a 0.50005,0.50005 0 1 0 0.707032,0.707 l 0.707031,-0.707 a 0.50005,0.50005 0 0 0 -0.363281,-0.8574 z m 1.417968,0.01 a 0.50005,0.50005 0 0 0 -0.347656,0.8575 l 0.707031,0.707 a 0.50005,0.50005 0 1 0 0.707032,-0.707 l -0.707032,-0.7071 a 0.50005,0.50005 0 0 0 -0.359375,-0.1504 z M 16,1009.3583 l 2,0 0,5 -2,0 0,-5 z m 15.5,1 c -0.276995,0 -0.5,0.223 -0.5,0.5 0,0.277 0.223005,0.5 0.5,0.5 l 12,0 c 0.276995,0 0.5,-0.223 0.5,-0.5 0,-0.277 -0.223005,-0.5 -0.5,-0.5 l -12,0 z m 26,0 a 0.5,0.5 0 0 0 -0.5,0.5 0.5,0.5 0 0 0 0.5,0.5 0.5,0.5 0 0 0 0.5,-0.5 0.5,0.5 0 0 0 -0.5,-0.5 z m -26,3 c -0.276995,0 -0.5,0.223 -0.5,0.5 0,0.277 0.223005,0.5 0.5,0.5 l 12,0 c 0.276995,0 0.5,-0.223 0.5,-0.5 0,-0.277 -0.223005,-0.5 -0.5,-0.5 l -12,0 z m 23,0 c -0.822505,0 -1.5,0.6775 -1.5,1.5 0,0.8225 0.677495,1.5 1.5,1.5 0.822505,0 1.5,-0.6775 1.5,-1.5 0,-0.8225 -0.677495,-1.5 -1.5,-1.5 z m 0,1 c 0.282065,0 0.5,0.218 0.5,0.5 0,0.2821 -0.217935,0.5 -0.5,0.5 -0.282065,0 -0.5,-0.2179 -0.5,-0.5 0,-0.282 0.217935,-0.5 0.5,-0.5 z m -39.5,2 0,1 14,0 0,-1 -14,0 z m 30,1 c 6.081052,0 10.999996,4.919 11,11 -4e-6,6.0811 -4.918948,11 -11,11 -6.081052,0 -10.999996,-4.9189 -11,-11 4e-6,-6.081 4.918948,-11 11,-11 z m 13.5,0 a 0.5,0.5 0 0 0 -0.5,0.5 0.5,0.5 0 0 0 0.5,0.5 0.5,0.5 0 0 0 0.5,-0.5 0.5,0.5 0 0 0 -0.5,-0.5 z m -13.5,2 a 0.50005,0.50005 0 0 0 -0.05078,0 c -4.941097,0.028 -8.949219,4.0505 -8.949219,8.998 0,3.2889 1.777187,6.1603 4.416016,7.7305 a 0.50005,0.50005 0 0 0 0.08398,0.064 c 0.046,0.027 0.09431,0.047 0.140625,0.072 0.07783,0.043 0.157105,0.084 0.236328,0.125 0.161225,0.083 0.323872,0.1617 0.488281,0.2344 0.09172,0.041 0.184045,0.08 0.277344,0.1172 0.169441,0.068 0.339706,0.1301 0.511719,0.1875 0.09282,0.031 0.185166,0.062 0.279297,0.09 0.182592,0.054 0.366176,0.1002 0.550781,0.1426 0.08499,0.02 0.168025,0.043 0.253906,0.061 0.262347,0.052 0.526533,0.093 0.791016,0.1211 0.07868,0.01 0.159011,0.011 0.238281,0.018 0.207116,0.017 0.413846,0.029 0.621094,0.031 0.03745,4e-4 0.07377,0.01 0.111328,0.01 0.0573,0 0.112874,-0.01 0.169922,-0.01 0.1866,0 0.372765,-0.014 0.558594,-0.029 0.107168,-0.01 0.214228,-0.017 0.320312,-0.029 0.176649,-0.021 0.352196,-0.051 0.527344,-0.082 0.09562,-0.017 0.192547,-0.029 0.287109,-0.049 0.128893,-0.027 0.257075,-0.063 0.384766,-0.096 a 0.50005,0.50005 0 0 0 0.08203,-0.014 c 0.03074,-0.01 0.05921,-0.023 0.08984,-0.031 0.07028,-0.02 0.141096,-0.035 0.210937,-0.057 0.07815,-0.024 0.15323,-0.054 0.230469,-0.08 0.179261,-0.06 0.357559,-0.1238 0.533203,-0.1953 0.02252,-0.01 0.04592,-0.016 0.06836,-0.025 0.07038,-0.029 0.137567,-0.065 0.207031,-0.096 0.166758,-0.074 0.331535,-0.1534 0.49414,-0.2383 0.07468,-0.039 0.149224,-0.078 0.222657,-0.1191 0.0071,0 0.01435,-0.01 0.02148,-0.012 0.04121,-0.023 0.08416,-0.043 0.125,-0.066 0.135244,-0.079 0.266824,-0.1657 0.398438,-0.252 0.04677,-0.031 0.09446,-0.06 0.140625,-0.092 0.104874,-0.072 0.206332,-0.1482 0.308593,-0.2246 0.0689,-0.052 0.135664,-0.1047 0.203125,-0.1582 0.04562,-0.036 0.09364,-0.068 0.138672,-0.1055 0.0014,0 0.0025,0 0.0039,0 0.209136,-0.1728 0.415824,-0.3549 0.611329,-0.5488 a 0.50005,0.50005 0 0 0 0.02539,-0.023 0.50005,0.50005 0 0 0 0.0332,-0.037 c 0.39733,-0.4017 0.75298,-0.8365 1.064454,-1.2988 8.11e-4,0 0.0011,0 0.002,0 0.111259,-0.1653 0.210745,-0.3379 0.310547,-0.5098 0.04784,-0.082 0.101191,-0.1604 0.146484,-0.2441 0.07579,-0.1405 0.138881,-0.2874 0.207031,-0.4316 0.05866,-0.1237 0.122681,-0.2444 0.175781,-0.3711 0.04046,-0.097 0.07232,-0.1968 0.109375,-0.2949 0.06963,-0.184 0.141548,-0.3672 0.199219,-0.5567 0.02905,-0.096 0.04639,-0.1945 0.07227,-0.291 0.04773,-0.178 0.09983,-0.355 0.136718,-0.5371 0.03124,-0.1539 0.04712,-0.3111 0.07031,-0.4668 0.02144,-0.1446 0.05,-0.2869 0.06445,-0.4336 0.02809,-0.2827 0.04184,-0.5671 0.04297,-0.8535 a 0.50005,0.50005 0 0 0 0.002,-0.035 c 0,-0.017 -0.0019,-0.034 -0.002,-0.051 a 0.50005,0.50005 0 0 0 0,-0.01 c -0.03087,-4.9384 -4.052496,-8.9434 -8.998047,-8.9434 z m -0.5,1.0254 0,7.8399 -3.925781,6.7988 C 38.41992,1033.5902 37,1031.1439 37,1028.3583 c 0,-4.2552 3.310896,-7.7157 7.5,-7.9746 z m 1,0.076 c 4.00252,0.2598 7.138452,3.396 7.398438,7.3984 l -7.398438,0 0,-7.3984 z m 0.707031,8.3984 6.69336,0 c -0.114097,1.7611 -0.796388,3.4085 -1.960938,4.7344 l -4.732422,-4.7344 z m -1.376953,0.7949 1.732422,6.4668 c -1.684984,0.3401 -3.467176,0.1474 -5.087891,-0.6543 l 3.355469,-5.8125 z m 1.134766,0.379 1.855468,1.8535 2.423829,2.4257 c -0.810913,0.7129 -1.738143,1.2203 -2.714844,1.5508 l -1.564453,-5.83 z m 13.527344,3.3125 A 0.50005,0.50005 0 0 0 59,1033.8523 l 0,0.5 -0.5,0 a 0.50005,0.50005 0 1 0 0,1 l 0.5,0 0,0.5 a 0.50005,0.50005 0 1 0 1,0 l 0,-0.5 0.5,0 a 0.50005,0.50005 0 1 0 0,-1 l -0.5,0 0,-0.5 a 0.50005,0.50005 0 0 0 -0.507812,-0.5078 z M 3.5,1038.3581 c -0.8225048,0 -1.5,0.6775 -1.5,1.5 0,0.8225 0.6774952,1.5 1.5,1.5 0.8225048,0 1.5,-0.6775 1.5,-1.5 0,-0.8225 -0.6774952,-1.5 -1.5,-1.5 z m 0,1 c 0.2820647,0 0.5,0.218 0.5,0.5 0,0.2821 -0.2179353,0.5 -0.5,0.5 -0.2820647,0 -0.5,-0.2179 -0.5,-0.5 0,-0.282 0.2179353,-0.5 0.5,-0.5 z m 12,1 c -0.276995,0 -0.5,0.223 -0.5,0.5 0,0.277 0.223005,0.5 0.5,0.5 l 27,0 c 0.276995,0 0.5,-0.223 0.5,-0.5 0,-0.277 -0.223005,-0.5 -0.5,-0.5 l -27,0 z m 38.576172,0.5762 a 0.50005,0.50005 0 0 0 -0.34961,0.8594 l 0.353516,0.3535 -0.353516,0.3535 a 0.50005,0.50005 0 1 0 0.707032,0.707 l 0.353515,-0.3535 0.353516,0.3535 a 0.50005,0.50005 0 1 0 0.707031,-0.707 l -0.353515,-0.3535 0.353515,-0.3535 a 0.50005,0.50005 0 0 0 -0.363281,-0.8594 0.50005,0.50005 0 0 0 -0.34375,0.1523 l -0.353516,0.3536 -0.353515,-0.3536 a 0.50005,0.50005 0 0 0 -0.357422,-0.1523 z M 9.5,1041.3581 a 0.5,0.5 0 0 0 -0.5,0.5 0.5,0.5 0 0 0 0.5,0.5 0.5,0.5 0 0 0 0.4999998,-0.5 0.5,0.5 0 0 0 -0.4999998,-0.5 z m 41.367188,2.9961 0,0 c -0.158018,1.0413 -0.686991,1.9943 -1.615235,2.5313 -0.610372,0.3498 -1.312324,0.5079 -2.013672,0.4531 a 0.50005,0.50005 0 0 0 -0.03906,0 c -10.688884,0 -17.188863,0.014 -28.046875,0.016 0.963443,-0.7377 1.569863,-1.7877 1.71289,-2.9941 l 22.634766,0 3.699219,0 0.300781,0 3.367188,-0.01 z m -41.5332036,1.1563 a 0.50005,0.50005 0 0 0 -0.34375,0.1523 l -0.7070313,0.707 a 0.50005,0.50005 0 1 0 0.7070313,0.7071 l 0.7070312,-0.7071 a 0.50005,0.50005 0 0 0 -0.3632812,-0.8593 z m -2.8242188,0.01 a 0.50005,0.50005 0 0 0 -0.3476562,0.8594 l 0.7070312,0.707 a 0.50005,0.50005 0 1 0 0.7070313,-0.707 l -0.7070313,-0.707 a 0.50005,0.50005 0 0 0 -0.359375,-0.1524 z m 0.6933594,2.1211 a 0.50005,0.50005 0 0 0 -0.34375,0.1524 l -0.7070312,0.707 a 0.50005,0.50005 0 1 0 0.7070312,0.707 l 0.7070312,-0.707 a 0.50005,0.50005 0 0 0 -0.3632812,-0.8594 z m 1.4277344,0 a 0.50005,0.50005 0 0 0 -0.3476563,0.8594 l 0.7070313,0.707 a 0.50005,0.50005 0 1 0 0.7070312,-0.707 l -0.7070312,-0.707 a 0.50005,0.50005 0 0 0 -0.359375,-0.1524 z"/></g><text x="0" y="79.000001" fill="#000000" font-size="5px" font-weight="bold" font-family="'Helvetica Neue', Helvetica, Arial-Unicode, Arial, Sans-serif">Created by Chameleon Design</text><text x="0" y="84.000001" fill="#000000" font-size="5px" font-weight="bold" font-family="'Helvetica Neue', Helvetica, Arial-Unicode, Arial, Sans-serif">from the Noun Project</text></svg>