<?xml version="1.0" encoding="UTF-8" standalone="no"?>
<svg
   xmlns:dc="http://purl.org/dc/elements/1.1/"
   xmlns:cc="http://creativecommons.org/ns#"
   xmlns:rdf="http://www.w3.org/1999/02/22-rdf-syntax-ns#"
   xmlns:svg="http://www.w3.org/2000/svg"
   xmlns="http://www.w3.org/2000/svg"
   xmlns:sodipodi="http://sodipodi.sourceforge.net/DTD/sodipodi-0.dtd"
   xmlns:inkscape="http://www.inkscape.org/namespaces/inkscape"
   version="1.1"
   x="0px"
   y="0px"
   viewBox="0 0 125 125"
   enable-background="new 0 0 100 100"
   xml:space="preserve"
   id="svg2"
   inkscape:version="0.91 r13725"
   sodipodi:docname="noun_review_192335_green.svg"
   width="125"
   height="125"><metadata
     id="metadata16"><rdf:RDF><cc:Work
         rdf:about=""><dc:format>image/svg+xml</dc:format><dc:type
           rdf:resource="http://purl.org/dc/dcmitype/StillImage" /><dc:title></dc:title></cc:Work></rdf:RDF></metadata><defs
     id="defs14" /><sodipodi:namedview
     pagecolor="#ffffff"
     bordercolor="#666666"
     borderopacity="1"
     objecttolerance="10"
     gridtolerance="10"
     guidetolerance="10"
     inkscape:pageopacity="0"
     inkscape:pageshadow="2"
     inkscape:window-width="1219"
     inkscape:window-height="707"
     id="namedview12"
     showgrid="false"
     inkscape:zoom="1.888"
     inkscape:cx="-25.741525"
     inkscape:cy="62.5"
     inkscape:window-x="0"
     inkscape:window-y="0"
     inkscape:window-maximized="0"
     inkscape:current-layer="svg2" /><path
     d="M 106.1,13 94,15.2 C 93.9,14.6 93.6,14 93.1,13.5 92.5,13 91.8,12.8 91.1,13 l -22,4 -3.3,-3.3 C 65.2,13.1 64.3,12.8 63.5,13 L 21,23 c -1.2,0.3 -2,1.3 -2,2.5 l 0,65 c 0,1.2 0.9,2.2 2.1,2.5 l 55,10 c 0.1,0 0.3,0 0.4,0 0.6,0 1.1,-0.2 1.6,-0.6 0.5,-0.4 0.8,-1 0.9,-1.7 l 12.1,2.3 c 0.1,0 0.3,0 0.4,0 0.6,0 1.1,-0.2 1.6,-0.6 0.5,-0.4 0.8,-1 0.9,-1.7 l 12.1,2.3 c 0.1,0 0.3,0 0.4,0 0.6,0 1.1,-0.2 1.6,-0.6 0.6,-0.5 0.9,-1.2 0.9,-1.9 l 0,-85 c 0,-0.7 -0.3,-1.4 -0.9,-1.9 -0.6,-0.5 -1.3,-0.7 -2,-0.6 z m -42.1,6 9,9 -9,0 0,-9 z m 10,78.5 -50,-9.1 0,-60.9 35,-8.2 0,11.3 c 0,1.4 1.1,2.5 2.5,2.5 l 12.5,0 0,64.4 z m 15,0 L 79,95.7 79,28 c 0,-0.7 -0.3,-1.3 -0.7,-1.8 l -4.9,-4.9 15.6,-2.8 0,79 z m 15,0 -10,-1.8 0,-75.4 10,-1.8 0,79 z"
     id="path4"
     inkscape:connector-curvature="0" /><path
     d="m 59,58 c 0,-8.3 -6.7,-15 -15,-15 -8.3,0 -15,6.7 -15,15 0,8.3 6.7,15 15,15 3.2,0 6.2,-1 8.7,-2.8 l 12.1,12.1 c 0.5,0.5 1.1,0.7 1.8,0.7 0.7,0 1.3,-0.2 1.8,-0.7 1,-1 1,-2.6 0,-3.5 L 56.2,66.7 C 58,64.2 59,61.2 59,58 Z M 44,68 c -5.5,0 -10,-4.5 -10,-10 0,-5.5 4.5,-10 10,-10 5.5,0 10,4.5 10,10 0,5.5 -4.5,10 -10,10 z"
     id="path6"
     inkscape:connector-curvature="0"
     style="fill:#72F6B2" /><text
     x="36"
     y="111"
     font-size="5px"
     font-weight="bold"
     id="text8"
     style="font-weight:bold;font-size:5px;font-family:'Helvetica Neue', Helvetica, Arial-Unicode, Arial, Sans-serif;fill:#72F6B2;">Created by Arthur Shlain</text>
<text
     x="38"
     y="116"
     font-size="5px"
     font-weight="bold"
     id="text10"
     style="font-weight:bold;font-size:5px;font-family:'Helvetica Neue', Helvetica, Arial-Unicode, Arial, Sans-serif;fill:#72F6B2;">from the Noun Project</text>
</svg>